<svg width="816" height="210" viewBox="0 0 816 210" fill="none" xmlns="http://www.w3.org/2000/svg">
<path d="M172.508 0L268.314 210H206.222L189.779 169.68L170.709 122.92L134.297 33.64L97.7441 122.92L78.5995 169.68L62.0915 210H0L95.8063 0H172.508Z" fill="#16211D"/>
<path d="M97.7441 122.92L78.5995 169.68H189.779L170.709 122.92H97.7441Z" fill="#16211D"/>
<path d="M582.152 0V210H526.803V50.72L457.688 210H398.687L329.571 51.28V210H274.223V0H364.129L428.468 153.32L492.245 0H582.152Z" fill="#16211D"/>
<path d="M782.004 87.92C770.579 82.5067 755.969 79.8 738.175 79.8H669.489L669.736 119.56H730.589C739.018 119.56 745.667 121.707 750.537 126C755.594 130.107 758.123 135.987 758.123 143.64C758.123 151.107 755.594 156.987 750.537 161.28C745.667 165.573 739.018 167.72 730.589 167.72H662.188L669.736 119.56L669.489 79.8L663.759 43.96H799.705V0H601.068L617.363 101.08L601.068 210H738.175C754.47 210 768.425 207.387 780.038 202.16C791.65 196.747 800.547 189.187 806.728 179.48C812.909 169.587 816 158.107 816 145.04C816 131.973 813.19 120.587 807.571 110.88C801.952 100.987 793.43 93.3333 782.004 87.92Z" fill="#16211D"/>
</svg>
