<svg width="24" height="24" viewBox="0 0 24 24" fill="none" xmlns="http://www.w3.org/2000/svg">
<path fill-rule="evenodd" clip-rule="evenodd" d="M1 5.8125C1 3.15463 3.15463 1 5.8125 1H18.1875C20.8454 1 23 3.15463 23 5.8125V18.1875C23 20.8454 20.8454 23 18.1875 23H5.8125C3.15463 23 1 20.8454 1 18.1875V5.8125ZM5.8125 3.2C4.36966 3.2 3.2 4.36966 3.2 5.8125V18.1875C3.2 19.6303 4.36966 20.8 5.8125 20.8H18.1875C19.6303 20.8 20.8 19.6303 20.8 18.1875V5.8125C20.8 4.36966 19.6303 3.2 18.1875 3.2H5.8125ZM7.1875 9.67969C7.1875 8.30329 8.30329 7.1875 9.67969 7.1875H14.3203C15.6967 7.1875 16.8125 8.30329 16.8125 9.67969V14.3203C16.8125 15.6967 15.6967 16.8125 14.3203 16.8125H9.67969C8.30329 16.8125 7.1875 15.6967 7.1875 14.3203V9.67969ZM9.67969 9.3875C9.51832 9.3875 9.3875 9.51832 9.3875 9.67969V14.3203C9.3875 14.4817 9.51832 14.6125 9.67969 14.6125H14.3203C14.4817 14.6125 14.6125 14.4817 14.6125 14.3203V9.67969C14.6125 9.51832 14.4817 9.3875 14.3203 9.3875H9.67969Z" fill="white"/>
</svg>
