<svg width="24" height="24" viewBox="0 0 24 24" fill="none" xmlns="http://www.w3.org/2000/svg">
<g clip-path="url(#clip0_2024_3091)">
<path d="M21.5341 7.21319L21.5274 7.21844L21.5277 7.22701C21.5367 7.45762 21.5397 7.68818 21.5397 7.91892C21.5397 14.913 16.5919 22.9833 7.54803 22.9833C4.79294 22.9833 2.2294 22.1175 0.0639682 20.6413C0.428289 20.6797 0.798286 20.7079 1.17379 20.7079C3.48453 20.7079 5.61271 19.856 7.30063 18.4264L7.33456 18.3977L7.2901 18.397C5.15303 18.3658 3.34585 16.8417 2.71284 14.7625C3.00658 14.8219 3.3087 14.8517 3.6174 14.8517C4.06628 14.8517 4.50219 14.7886 4.92009 14.6622L4.91875 14.6299C2.67258 14.1489 0.979314 12.0154 0.979314 9.45137V9.45119V9.45101V9.45082V9.45064V9.45046V9.45027V9.45009V9.44991V9.44973V9.44955V9.44937V9.44919V9.44901V9.44884V9.44866V9.44848V9.4483V9.44813V9.44795V9.44778V9.4476V9.44743V9.44725V9.44708V9.44691V9.44673V9.44656V9.44639V9.44622V9.44605V9.44588V9.44571V9.44554V9.44537V9.4452V9.44503V9.44486V9.4447V9.44453V9.44436V9.4442V9.44403V9.44386V9.4437V9.44353V9.44337V9.44321V9.44304V9.44288V9.44272V9.44256V9.44239V9.44223V9.44207V9.44191V9.44175V9.44159V9.44143V9.44127V9.44112V9.44096V9.4408V9.44064V9.44049V9.44033V9.44017V9.44002V9.43986V9.43971V9.43955V9.4394V9.43924V9.43909V9.43894V9.43879V9.43863V9.43848V9.43833V9.43818V9.43803V9.43788V9.43773V9.43758V9.43743V9.43728V9.43713V9.43698V9.43683V9.43669V9.43654V9.43639V9.43625V9.4361V9.43595V9.43581V9.43566V9.43552V9.43537V9.43523V9.43509V9.43494V9.4348V9.43466V9.43451V9.43437V9.43423V9.43409V9.43395V9.43381V9.43367V9.43353V9.43339V9.43325V9.43311V9.43297V9.43283V9.43269V9.43256V9.43242V9.43228V9.43214V9.43201V9.43187V9.43173V9.4316V9.43146V9.43133V9.43119V9.43106V9.43092V9.43079V9.43066V9.43052V9.43039V9.43026V9.43013V9.42999V9.42986V9.42973V9.4296V9.42947V9.42934V9.42921V9.42908V9.42895V9.42882V9.42869V9.42856V9.42843V9.4283V9.42817V9.42805V9.42792V9.42779V9.42766V9.42754V9.42741V9.42728V9.42716V9.42703V9.4269V9.42678V9.42665V9.42653V9.4264V9.42628V9.42616V9.42603V9.42591V9.42579V9.42566V9.42554V9.42542V9.42529V9.42517V9.42505V9.42493V9.42481V9.42469V9.42456V9.42444V9.42432V9.4242V9.42408V9.42396V9.42384V9.42372V9.4236V9.42348V9.42337V9.42325V9.42313V9.42301V9.42289V9.42277V9.42266V9.42254V9.42242V9.4223V9.42219V9.42207V9.42195V9.42184V9.42172V9.42161V9.42149V9.42138V9.42126V9.42115V9.42103V9.42092V9.4208V9.42069V9.42057V9.42046V9.42034V9.42023V9.42012V9.42V9.41989V9.41978V9.41967V9.41955V9.41944V9.41933V9.41922V9.4191V9.41899V9.41888V9.41877V9.41866V9.41855V9.41844V9.41833V9.41821V9.4181V9.41799V9.41788V9.41777V9.41766V9.41755V9.41744V9.41733V9.41729C1.63997 9.79834 2.39415 10.0348 3.19447 10.066L3.24964 10.0682L3.20488 10.0359C1.88641 9.08404 1.01932 7.46247 1.01932 5.63114C1.01932 4.67773 1.25613 3.77568 1.67347 2.99618C4.10371 6.19949 7.73072 8.30313 11.819 8.52333L11.8408 8.52451L11.8362 8.50317C11.7524 8.11606 11.7095 7.70805 11.7095 7.2999C11.7095 4.3799 13.9076 2.01667 16.6171 2.01667C18.0278 2.01667 19.3022 2.65456 20.1969 3.67972L20.2033 3.68704L20.2128 3.68508C21.3238 3.45683 22.3653 3.02386 23.3096 2.42659C22.9363 3.64237 22.1655 4.6613 21.1621 5.3022L21.1732 5.33278C22.1522 5.20907 23.087 4.93394 23.9556 4.5268C23.3001 5.56528 22.4795 6.48065 21.5341 7.21319Z" fill="white" stroke="#010D07" stroke-width="0.03125"/>
</g>
<defs>
<clipPath id="clip0_2024_3091">
<rect width="24" height="24" fill="white"/>
</clipPath>
</defs>
</svg>
