<svg width="24" height="24" viewBox="0 0 24 24" fill="none" xmlns="http://www.w3.org/2000/svg">
<path d="M11.9991 21H11.9927C11.2685 20.9949 4.86642 20.9343 3.0526 20.4252C1.78496 20.0715 0.784318 19.0341 0.4426 17.7183C-0.0320093 15.8689 -0.00177498 12.3086 0.00150627 12.0243C-0.00158748 11.7413 -0.0321968 8.15152 0.441193 6.28702C0.441662 6.28531 0.442084 6.28342 0.4426 6.28171C0.780428 4.98092 1.80366 3.91135 3.0495 3.55675C3.0526 3.55577 3.05588 3.55504 3.05902 3.55412C4.85236 3.065 11.2671 3.00511 11.9927 3H12.0057C12.7317 3.00511 19.1509 3.06577 20.9481 3.57562C22.2124 3.92833 23.2123 4.96443 23.5549 6.27855C24.0473 8.14432 24.0017 11.7419 23.9968 12.0456C24.0002 12.3447 24.029 15.8731 23.5571 17.7317C23.5567 17.7337 23.5562 17.7354 23.5558 17.7371C23.2139 19.0529 22.2135 20.0903 20.9444 20.4443C20.9427 20.4449 20.9409 20.4453 20.9392 20.4459C19.1461 20.9348 12.7312 20.9946 12.0057 21H11.9992H11.9991ZM2.25352 6.78611C1.8368 8.43184 1.87618 11.9759 1.8765 12.0116V12.0373C1.86408 13.0201 1.90782 15.8665 2.25371 17.2147C2.42143 17.8602 2.91493 18.3716 3.54075 18.5462C4.87903 18.9219 10.0934 19.0401 11.9991 19.054C13.9098 19.0401 19.1318 18.9252 20.4602 18.5645C21.0841 18.3893 21.5759 17.8796 21.7447 17.2332C22.091 15.8654 22.1344 13.0328 22.1218 12.0562C22.1218 12.046 22.1218 12.0357 22.1219 12.0255C22.1391 11.0308 22.1053 8.15118 21.7464 6.79224C21.746 6.79092 21.7457 6.78957 21.7454 6.78821C21.577 6.1398 21.0833 5.6284 20.4575 5.45374C19.1322 5.07768 13.9094 4.95985 11.9991 4.94599C10.0897 4.95985 4.87285 5.07467 3.54038 5.43492C2.92646 5.61171 2.4218 6.14131 2.25352 6.78611ZM9.60942 15.9404V8.05937L16.1719 12L9.60942 15.9404Z" fill="white"/>
</svg>
