<svg width="99" height="36" viewBox="0 0 99 36" fill="none" xmlns="http://www.w3.org/2000/svg">
<path fill-rule="evenodd" clip-rule="evenodd" d="M36.2313 18.3518C36.3151 8.56066 28.4898 0.508198 18.6059 0.0294203L18.5517 0.00784566C18.5106 -0.00498353 18.4778 -0.00209229 18.4486 0.0166168L13.1753 0.538046L13.1519 0.538506L7.40926 2.84025L7.35203 2.84137L7.32789 2.86653C7.31016 2.87662 7.29493 2.89249 7.28556 2.91063L7.28334 2.91295L7.25906 2.96808L0.284116 11.6541C0.268122 11.6708 0.263528 11.6872 0.262365 11.7036C0.261202 11.7089 0.260431 11.7143 0.260102 11.7199C0.259164 11.7238 0.258439 11.7278 0.257903 11.7317C0.257702 11.7333 0.257529 11.7348 0.25738 11.7363C0.25712 11.739 0.256948 11.7416 0.256856 11.7443C0.256775 11.7468 0.256758 11.7492 0.256809 11.7517L0.258416 11.7859L0.00696073 21.3036L0 21.3108L0.00184825 21.4044L1.34366 24.7934L3.45295 30.1572L3.50059 30.2031L11.6425 35.6427C11.6523 35.6535 11.6644 35.6621 11.6783 35.6681C11.6877 35.6753 11.697 35.6792 11.7064 35.6813C11.7246 35.6917 11.7426 35.6914 11.7606 35.691L11.8074 35.6901C11.8098 35.6888 11.8123 35.6872 11.8145 35.6857L21.8441 35.9966C21.8495 35.999 21.8549 36.0001 21.8602 36L21.9074 35.9986L21.9129 35.9988C21.9129 35.9988 21.9158 35.9957 21.9195 35.9908C21.9304 35.9876 21.9431 35.9819 21.9532 35.9748L22.2153 35.8318C30.2088 33.8634 36.1589 26.807 36.2313 18.3518ZM0.679043 11.5403L6.87761 3.83404L3.87693 10.6462L0.679043 11.5403ZM0.244707 21.1826L0.345161 17.4286L0.41339 15.0804L0.511684 17.17L0.677045 21.0376L0.320646 21.1581L0.244707 21.1826ZM2.55904 27.1739L0.283932 21.4256L0.381944 21.3941L0.724168 21.2966L2.48306 26.9288L2.55904 27.1739ZM12.9824 0.868767L13.2217 0.773982L16.9867 0.396781L15.3824 0.806774L9.21565 2.37475L12.9824 0.868767ZM11.4058 35.1952L4.07444 30.2744L8.97555 30.7356L11.4058 35.1952ZM18.6192 0.393783L19.1212 0.821911C19.6923 1.72111 20.53 3.36245 20.8642 5.6415L13.7843 6.01155L15.262 4.22532L18.5147 0.305174L18.6192 0.393783ZM20.9321 6.17957C20.9209 6.0736 20.9085 5.96888 20.8951 5.86542L13.8283 6.23499L22.9206 15.1816L24.0341 9.35952C22.551 8.42777 21.7401 7.59658 21.3307 7.08405C21.3307 7.08405 22.1912 6.6126 22.3449 5.7896C22.3526 5.73102 22.368 5.60366 22.368 5.56291C22.3707 5.41439 22.3496 5.25625 22.2972 5.08906C22.2972 5.08906 22.269 5.32421 22.1151 5.57613C22.0799 5.63032 21.9948 5.75078 21.9302 5.81129L21.9246 5.81684C21.721 6.01654 21.4089 6.17932 20.9321 6.17957ZM23.1603 15.2445L24.2531 9.49481C24.8047 9.83005 25.4434 10.1767 26.1813 10.525C26.1813 10.525 28.4973 11.4793 26.4798 12.9217C26.4798 12.9217 25.5129 13.6415 26.4196 14.4942L23.1603 15.2445ZM25.3408 14.9938L26.6491 14.6929C27.5825 15.5368 26.9385 16.149 25.6606 16.7834C25.6606 16.7834 27.5533 16.6208 27.4416 17.6848C27.415 17.9478 27.3281 18.1684 27.2409 18.3899C26.9753 19.0645 26.7065 19.7473 28.1254 21.6599C28.6275 22.3368 28.6665 22.8722 28.4154 23.3118L23.1947 15.4973L25.3408 14.9938ZM23.0281 15.677L28.2725 23.5166C27.6948 24.2134 26.3592 24.6548 25.1163 25.0655C24.4033 25.3011 23.7207 25.5267 23.2291 25.7847C22.9221 25.9469 22.6241 26.1122 22.3407 26.2864L18.8521 26.7382L22.7676 16.3651L23.0281 15.677ZM19.4209 26.8798L21.9196 26.5602C20.7698 27.3549 19.9437 28.3669 19.8881 30.0519L18.8473 26.9547L19.4209 26.8798ZM18.5982 27.0193L19.9293 30.9771C20.0309 31.8644 20.3118 32.9106 20.8155 34.1603L9.44253 30.5729L14.1239 28.7506L18.5982 27.0193ZM18.4983 34.8541L20.9788 34.5541C21.1386 34.9294 21.3176 35.3222 21.5168 35.7337L13.3729 35.4859L18.4983 34.8541ZM13.5193 5.96349L7.7688 3.00583L18.1748 0.336187L16.7088 2.11953L13.5193 5.96349ZM10.4874 4.68081L13.2756 6.11489L4.23633 10.4759L7.47483 3.14331L10.4874 4.68081ZM0.971346 20.9725L4.0253 10.9855L9.49659 18.5402L0.971346 20.9725ZM9.64376 18.3266L4.16389 10.7843L13.3214 6.38226L9.64376 18.3266ZM18.6155 26.6409L22.8049 15.5769L9.94944 18.6606L18.6155 26.6409ZM17.7158 10.389L13.6023 6.34699L9.87424 18.4339L22.7439 15.3454L17.7158 10.389ZM9.81375 18.8664L9.17782 30.4007L18.428 26.8108L9.81375 18.8664ZM9.31154 30.8029L11.8183 35.4307L20.605 34.3671L9.31154 30.8029ZM8.94149 30.2817L1.00379 21.19L9.55516 18.7278L8.94149 30.2817ZM3.81524 10.8858L0.902834 20.4243L0.497884 11.8156L3.81524 10.8858ZM1.08376 21.6401L8.77331 30.4547L3.67873 29.9939L1.08376 21.6401Z" fill="#010D07"/>
<path fill-rule="evenodd" clip-rule="evenodd" d="M55.6111 24.8452H60.6252L54.6265 11.155H48.3543L42.3557 24.8452H47.3697L48.3088 22.5452H54.6721L55.6111 24.8452ZM49.8312 18.8033L51.4904 14.7145L53.1496 18.8033H49.8312Z" fill="#010D07"/>
<path d="M72.1384 20.081L75.3759 11.155H82.6535V24.8452H78.1848V15.2347L74.4457 24.8452H69.7946L66.0555 15.2803V24.8452H61.5868V11.155H68.8644L72.1384 20.081Z" fill="#010D07"/>
<path fill-rule="evenodd" clip-rule="evenodd" d="M97.7239 17.3247C96.8732 16.5581 95.5546 16.1747 93.7681 16.1747H89.7485L89.5024 14.6049H97.9974V11.155H84.4892L85.5283 17.8176L84.4892 24.8452H93.7681C94.8619 24.8452 95.8007 24.6687 96.5846 24.3158C97.3745 23.9629 97.973 23.4609 98.3802 22.8099C98.7934 22.1589 99 21.3953 99 20.5191C99 19.1501 98.5746 18.0853 97.7239 17.3247ZM94.0051 21.2401C93.7924 21.4409 93.4886 21.5413 93.0936 21.5413H89.4021L89.7576 19.2413H93.0936C93.4886 19.2413 93.7924 19.3417 94.0051 19.5425C94.2238 19.7433 94.3332 20.0262 94.3332 20.3913C94.3332 20.7564 94.2238 21.0393 94.0051 21.2401Z" fill="#010D07"/>
</svg>
