<svg width="117" height="40" viewBox="0 0 117 40" fill="none" xmlns="http://www.w3.org/2000/svg">
<path d="M1.14398 13V3.835H4.87498C5.82832 3.835 6.56498 4.069 7.08498 4.537C7.61365 4.99634 7.87798 5.63767 7.87798 6.461C7.87798 7.27567 7.61365 7.917 7.08498 8.385C6.56498 8.853 5.82832 9.087 4.87498 9.087H2.22298V13H1.14398ZM2.22298 8.19H4.77098C5.43832 8.19 5.94098 8.04267 6.27898 7.748C6.62565 7.44467 6.79898 7.01567 6.79898 6.461C6.79898 5.90634 6.62565 5.47734 6.27898 5.174C5.94098 4.87067 5.43832 4.719 4.77098 4.719H2.22298V8.19Z" fill="white"/>
<path d="M11.2401 13.091C10.9541 13.091 10.6594 13.0433 10.3561 12.948C10.0528 12.844 9.78844 12.688 9.56311 12.48C9.16444 12.116 8.96511 11.6653 8.96511 11.128C8.96511 10.6427 9.09944 10.2657 9.36811 9.997C9.63677 9.71967 10.0354 9.52467 10.5641 9.412C11.0754 9.29934 11.9594 9.243 13.2161 9.243V8.801C13.2161 8.281 13.1034 7.89534 12.8781 7.644C12.6614 7.39267 12.3061 7.267 11.8121 7.267C11.0668 7.267 10.3214 7.49667 9.57611 7.956L9.22511 7.163C9.52844 6.93767 9.90111 6.75134 10.3431 6.604C10.7851 6.448 11.2748 6.37 11.8121 6.37C13.4414 6.37 14.2561 7.21934 14.2561 8.918V13H13.2161V11.895C13.0168 12.311 12.7394 12.6143 12.3841 12.805C12.0374 12.9957 11.6561 13.091 11.2401 13.091ZM11.3961 12.246C11.6994 12.246 11.9898 12.1767 12.2671 12.038C12.5444 11.8993 12.7698 11.687 12.9431 11.401C13.1251 11.115 13.2161 10.751 13.2161 10.309V9.932C12.3408 9.932 11.6734 9.96667 11.2141 10.036C10.7548 10.0967 10.4601 10.2007 10.3301 10.348C10.1481 10.5127 10.0571 10.7467 10.0571 11.05C10.0571 11.388 10.1828 11.674 10.4341 11.908C10.6854 12.1333 11.0061 12.246 11.3961 12.246Z" fill="white"/>
<path d="M18.9214 13.117C18.358 13.117 17.8337 13.0433 17.3484 12.896C16.863 12.74 16.4644 12.5277 16.1524 12.259L16.5164 11.518C17.149 12.0467 17.9507 12.311 18.9214 12.311C19.5627 12.311 20.0264 12.2157 20.3124 12.025C20.5984 11.8257 20.7414 11.5397 20.7414 11.167C20.7414 10.439 20.2647 10.075 19.3114 10.075H17.7774V9.295H19.1814C19.5974 9.295 19.9224 9.204 20.1564 9.022C20.399 8.84 20.5204 8.58 20.5204 8.242C20.5204 7.904 20.3904 7.63967 20.1304 7.449C19.8704 7.24967 19.463 7.15 18.9084 7.15C18.033 7.15 17.266 7.39267 16.6074 7.878L16.2564 7.163C16.6117 6.88567 17.0234 6.682 17.4914 6.552C17.9594 6.422 18.4664 6.357 19.0124 6.357C19.827 6.357 20.4467 6.51734 20.8714 6.838C21.296 7.15 21.5084 7.59634 21.5084 8.177C21.5084 8.515 21.4087 8.814 21.2094 9.074C21.0187 9.334 20.7587 9.52034 20.4294 9.633C20.828 9.71967 21.1444 9.90167 21.3784 10.179C21.6124 10.4563 21.7294 10.7987 21.7294 11.206C21.7294 11.7867 21.491 12.2503 21.0144 12.597C20.5464 12.9437 19.8487 13.117 18.9214 13.117Z" fill="white"/>
<path d="M23.2869 15.808V7.982C23.2869 7.73934 23.2739 7.49234 23.2479 7.241C23.2306 6.981 23.2089 6.72534 23.1829 6.474H24.1969L24.3009 7.683C24.4916 7.267 24.7819 6.942 25.1719 6.708C25.5706 6.474 26.0299 6.357 26.5499 6.357C27.1393 6.357 27.6506 6.49134 28.0839 6.76C28.5173 7.02867 28.8509 7.41867 29.0849 7.93C29.3276 8.43267 29.4489 9.035 29.4489 9.737C29.4489 10.7857 29.1846 11.6133 28.6559 12.22C28.1359 12.818 27.4339 13.117 26.5499 13.117C26.0473 13.117 25.6009 13.0043 25.2109 12.779C24.8209 12.5537 24.5306 12.2417 24.3399 11.843V15.808H23.2869ZM26.3419 12.259C26.9659 12.259 27.4599 12.0467 27.8239 11.622C28.1966 11.1887 28.3829 10.5603 28.3829 9.737C28.3829 8.905 28.1966 8.27667 27.8239 7.852C27.4599 7.41867 26.9659 7.202 26.3419 7.202C25.7266 7.202 25.2326 7.41867 24.8599 7.852C24.4959 8.27667 24.3139 8.905 24.3139 9.737C24.3139 10.5603 24.4959 11.1887 24.8599 11.622C25.2326 12.0467 25.7266 12.259 26.3419 12.259Z" fill="white"/>
<path d="M33.0415 13.091C32.7555 13.091 32.4608 13.0433 32.1575 12.948C31.8542 12.844 31.5898 12.688 31.3645 12.48C30.9658 12.116 30.7665 11.6653 30.7665 11.128C30.7665 10.6427 30.9008 10.2657 31.1695 9.997C31.4382 9.71967 31.8368 9.52467 32.3655 9.412C32.8768 9.29934 33.7608 9.243 35.0175 9.243V8.801C35.0175 8.281 34.9048 7.89534 34.6795 7.644C34.4628 7.39267 34.1075 7.267 33.6135 7.267C32.8682 7.267 32.1228 7.49667 31.3775 7.956L31.0265 7.163C31.3298 6.93767 31.7025 6.75134 32.1445 6.604C32.5865 6.448 33.0762 6.37 33.6135 6.37C35.2428 6.37 36.0575 7.21934 36.0575 8.918V13H35.0175V11.895C34.8182 12.311 34.5408 12.6143 34.1855 12.805C33.8388 12.9957 33.4575 13.091 33.0415 13.091ZM33.1975 12.246C33.5008 12.246 33.7912 12.1767 34.0685 12.038C34.3458 11.8993 34.5712 11.687 34.7445 11.401C34.9265 11.115 35.0175 10.751 35.0175 10.309V9.932C34.1422 9.932 33.4748 9.96667 33.0155 10.036C32.5562 10.0967 32.2615 10.2007 32.1315 10.348C31.9495 10.5127 31.8585 10.7467 31.8585 11.05C31.8585 11.388 31.9842 11.674 32.2355 11.908C32.4868 12.1333 32.8075 12.246 33.1975 12.246Z" fill="white"/>
<path d="M41.3338 13.117C40.3805 13.117 39.6221 12.8093 39.0588 12.194C38.4955 11.5787 38.2138 10.6817 38.2138 9.503V8.359C38.2138 7.15434 38.4608 6.18367 38.9548 5.447C39.4488 4.70167 40.2288 4.19467 41.2948 3.926L43.6738 3.328L43.9988 4.186L41.3598 4.836C40.8745 4.95734 40.4715 5.16967 40.1508 5.473C39.8388 5.76767 39.6048 6.123 39.4488 6.539C39.2928 6.94634 39.2148 7.37967 39.2148 7.839V7.891C39.4228 7.44034 39.7305 7.09367 40.1378 6.851C40.5538 6.59967 41.0304 6.474 41.5678 6.474C42.1311 6.474 42.6251 6.60834 43.0498 6.877C43.4745 7.137 43.8038 7.514 44.0378 8.008C44.2805 8.49334 44.4018 9.07834 44.4018 9.763C44.4018 10.4563 44.2761 11.0543 44.0248 11.557C43.7735 12.051 43.4181 12.4367 42.9588 12.714C42.4995 12.9827 41.9578 13.117 41.3338 13.117ZM41.3078 12.272C41.9405 12.272 42.4388 12.064 42.8028 11.648C43.1668 11.2233 43.3488 10.6037 43.3488 9.789C43.3488 8.99167 43.1625 8.38067 42.7898 7.956C42.4258 7.53134 41.9318 7.319 41.3078 7.319C40.6751 7.319 40.1768 7.527 39.8128 7.943C39.4488 8.359 39.2668 8.94834 39.2668 9.711C39.2668 10.5603 39.4488 11.2017 39.8128 11.635C40.1768 12.0597 40.6751 12.272 41.3078 12.272Z" fill="white"/>
<path d="M48.7312 13.117C47.7865 13.117 47.0369 12.818 46.4822 12.22C45.9275 11.6133 45.6502 10.7857 45.6502 9.737C45.6502 8.68834 45.9275 7.865 46.4822 7.267C47.0369 6.66034 47.7865 6.357 48.7312 6.357C49.3639 6.357 49.9099 6.49567 50.3692 6.773C50.8372 7.04167 51.1969 7.42734 51.4482 7.93C51.7082 8.43267 51.8382 9.035 51.8382 9.737C51.8382 10.4303 51.7082 11.0327 51.4482 11.544C51.1969 12.0467 50.8372 12.4367 50.3692 12.714C49.9099 12.9827 49.3639 13.117 48.7312 13.117ZM48.7312 12.259C49.3552 12.259 49.8492 12.0467 50.2132 11.622C50.5772 11.1887 50.7592 10.5603 50.7592 9.737C50.7592 8.905 50.5772 8.27667 50.2132 7.852C49.8492 7.41867 49.3552 7.202 48.7312 7.202C48.1159 7.202 47.6262 7.41867 47.2622 7.852C46.8982 8.27667 46.7162 8.905 46.7162 9.737C46.7162 10.5603 46.8982 11.1887 47.2622 11.622C47.6262 12.0467 48.1159 12.259 48.7312 12.259Z" fill="white"/>
<path d="M54.8159 13V7.319H52.4499V6.474H58.2479V7.319H55.8689V13H54.8159Z" fill="white"/>
<path d="M59.2109 13V6.474H60.2639V9.217H61.4989L63.6569 6.474H64.8139L62.5129 9.412C62.7469 9.49867 62.9593 9.64167 63.1499 9.841C63.3406 10.0317 63.5529 10.322 63.7869 10.712L65.1389 13H64.0079L62.8119 10.972C62.5866 10.5993 62.3743 10.3523 62.1749 10.231C61.9756 10.1097 61.6853 10.049 61.3039 10.049H60.2639V13H59.2109Z" fill="white"/>
<path d="M68.078 13.091C67.792 13.091 67.4974 13.0433 67.194 12.948C66.8907 12.844 66.6264 12.688 66.401 12.48C66.0024 12.116 65.803 11.6653 65.803 11.128C65.803 10.6427 65.9374 10.2657 66.206 9.997C66.4747 9.71967 66.8734 9.52467 67.402 9.412C67.9134 9.29934 68.7974 9.243 70.054 9.243V8.801C70.054 8.281 69.9414 7.89534 69.716 7.644C69.4994 7.39267 69.144 7.267 68.65 7.267C67.9047 7.267 67.1594 7.49667 66.414 7.956L66.063 7.163C66.3664 6.93767 66.739 6.75134 67.181 6.604C67.623 6.448 68.1127 6.37 68.65 6.37C70.2794 6.37 71.094 7.21934 71.094 8.918V13H70.054V11.895C69.8547 12.311 69.5774 12.6143 69.222 12.805C68.8754 12.9957 68.494 13.091 68.078 13.091ZM68.234 12.246C68.5374 12.246 68.8277 12.1767 69.105 12.038C69.3824 11.8993 69.6077 11.687 69.781 11.401C69.963 11.115 70.054 10.751 70.054 10.309V9.932C69.1787 9.932 68.5114 9.96667 68.052 10.036C67.5927 10.0967 67.298 10.2007 67.168 10.348C66.986 10.5127 66.895 10.7467 66.895 11.05C66.895 11.388 67.0207 11.674 67.272 11.908C67.5234 12.1333 67.844 12.246 68.234 12.246Z" fill="white"/>
<path d="M79.656 13.117C79.0146 13.117 78.4556 12.9783 77.979 12.701C77.511 12.4237 77.147 12.0293 76.887 11.518C76.6356 11.0067 76.51 10.4 76.51 9.698C76.51 8.632 76.796 7.80867 77.368 7.228C77.94 6.64734 78.7026 6.357 79.656 6.357C80.0806 6.357 80.488 6.43067 80.878 6.578C81.268 6.72534 81.593 6.93334 81.853 7.202L81.476 7.956C81.216 7.70467 80.93 7.51834 80.618 7.397C80.3146 7.27567 80.0156 7.215 79.721 7.215C79.045 7.215 78.5206 7.42734 78.148 7.852C77.7753 8.27667 77.589 8.89634 77.589 9.711C77.589 10.5257 77.7753 11.154 78.148 11.596C78.5206 12.0293 79.045 12.246 79.721 12.246C80.007 12.246 80.3016 12.1897 80.605 12.077C80.917 11.9557 81.2073 11.7693 81.476 11.518L81.853 12.259C81.5843 12.5363 81.2506 12.7487 80.852 12.896C80.4533 13.0433 80.0546 13.117 79.656 13.117Z" fill="white"/>
<path d="M85.2964 13.091C85.0104 13.091 84.7158 13.0433 84.4124 12.948C84.1091 12.844 83.8448 12.688 83.6194 12.48C83.2208 12.116 83.0214 11.6653 83.0214 11.128C83.0214 10.6427 83.1558 10.2657 83.4244 9.997C83.6931 9.71967 84.0918 9.52467 84.6204 9.412C85.1318 9.29934 86.0158 9.243 87.2724 9.243V8.801C87.2724 8.281 87.1598 7.89534 86.9344 7.644C86.7178 7.39267 86.3624 7.267 85.8684 7.267C85.1231 7.267 84.3778 7.49667 83.6324 7.956L83.2814 7.163C83.5848 6.93767 83.9574 6.75134 84.3994 6.604C84.8414 6.448 85.3311 6.37 85.8684 6.37C87.4978 6.37 88.3124 7.21934 88.3124 8.918V13H87.2724V11.895C87.0731 12.311 86.7958 12.6143 86.4404 12.805C86.0938 12.9957 85.7124 13.091 85.2964 13.091ZM85.4524 12.246C85.7558 12.246 86.0461 12.1767 86.3234 12.038C86.6008 11.8993 86.8261 11.687 86.9994 11.401C87.1814 11.115 87.2724 10.751 87.2724 10.309V9.932C86.3971 9.932 85.7298 9.96667 85.2704 10.036C84.8111 10.0967 84.5164 10.2007 84.3864 10.348C84.2044 10.5127 84.1134 10.7467 84.1134 11.05C84.1134 11.388 84.2391 11.674 84.4904 11.908C84.7418 12.1333 85.0624 12.246 85.4524 12.246Z" fill="white"/>
<path d="M90.8197 13V6.474H91.7817V11.57L95.5907 6.474H96.4747V13H95.5257V7.904L91.7167 13H90.8197ZM93.6407 5.863C93.112 5.863 92.6397 5.72867 92.2237 5.46C91.8164 5.18267 91.526 4.76667 91.3527 4.212L91.9767 3.978C92.28 4.79267 92.839 5.2 93.6537 5.2C94.0697 5.2 94.412 5.109 94.6807 4.927C94.9494 4.73634 95.1834 4.42434 95.3827 3.991L95.9807 4.212C95.7554 4.80134 95.439 5.226 95.0317 5.486C94.6244 5.73734 94.1607 5.863 93.6407 5.863Z" fill="white"/>
<path d="M99.8122 13V7.319H97.4462V6.474H103.244V7.319H100.865V13H99.8122Z" fill="white"/>
<path d="M106.209 13.091C105.923 13.091 105.629 13.0433 105.325 12.948C105.022 12.844 104.758 12.688 104.532 12.48C104.134 12.116 103.934 11.6653 103.934 11.128C103.934 10.6427 104.069 10.2657 104.337 9.997C104.606 9.71967 105.005 9.52467 105.533 9.412C106.045 9.29934 106.929 9.243 108.185 9.243V8.801C108.185 8.281 108.073 7.89534 107.847 7.644C107.631 7.39267 107.275 7.267 106.781 7.267C106.036 7.267 105.291 7.49667 104.545 7.956L104.194 7.163C104.498 6.93767 104.87 6.75134 105.312 6.604C105.754 6.448 106.244 6.37 106.781 6.37C108.411 6.37 109.225 7.21934 109.225 8.918V13H108.185V11.895C107.986 12.311 107.709 12.6143 107.353 12.805C107.007 12.9957 106.625 13.091 106.209 13.091ZM106.365 12.246C106.669 12.246 106.959 12.1767 107.236 12.038C107.514 11.8993 107.739 11.687 107.912 11.401C108.094 11.115 108.185 10.751 108.185 10.309V9.932C107.31 9.932 106.643 9.96667 106.183 10.036C105.724 10.0967 105.429 10.2007 105.299 10.348C105.117 10.5127 105.026 10.7467 105.026 11.05C105.026 11.388 105.152 11.674 105.403 11.908C105.655 12.1333 105.975 12.246 106.365 12.246Z" fill="white"/>
<path d="M113.698 39.6937C115.522 39.6937 117 38.2556 117 36.4816C117 34.7076 115.522 33.2695 113.698 33.2695C111.875 33.2695 110.396 34.7076 110.396 36.4816C110.396 38.2556 111.875 39.6937 113.698 39.6937Z" fill="#FF0000"/>
<path d="M1.29691 27.3938V32.0375H10.68V33.1764H1.29691V39.7346H0.0136719V26.2451H11.183V27.3938H1.29691Z" fill="white"/>
<path d="M29.5253 33C29.5253 34.2108 29.2961 35.2581 28.8375 36.1417C28.379 37.0187 27.7493 37.7452 26.9486 38.3212C26.1479 38.8906 25.2034 39.3128 24.1152 39.5877C23.027 39.8626 21.8533 40 20.594 40C19.3279 40 18.1473 39.8626 17.0522 39.5877C15.9572 39.3128 15.0059 38.8906 14.1983 38.3212C13.3907 37.7452 12.7577 37.0187 12.2991 36.1417C11.8406 35.2581 11.6113 34.2108 11.6113 33C11.6113 32.195 11.7174 31.4652 11.9295 30.8107C12.1417 30.1496 12.4394 29.5605 12.8227 29.0435C13.2059 28.5199 13.6679 28.0683 14.2086 27.6886C14.7561 27.309 15.3618 26.9949 16.0256 26.7461C16.6964 26.4909 17.415 26.3043 18.1815 26.1865C18.948 26.0622 19.7522 26 20.594 26C21.8533 26 23.027 26.1374 24.1152 26.4123C25.2034 26.6872 26.1479 27.1127 26.9486 27.6886C27.7493 28.2581 28.379 28.9846 28.8375 29.8682C29.2961 30.7452 29.5253 31.7892 29.5253 33ZM28.201 33C28.201 32.0444 28.0368 31.2001 27.7083 30.467C27.3866 29.734 26.9075 29.1188 26.271 28.6213C25.6346 28.1173 24.8407 27.7377 23.8893 27.4825C22.9449 27.2207 21.8464 27.0898 20.594 27.0898C19.3415 27.0898 18.2362 27.2207 17.2781 27.4825C16.3268 27.7443 15.5295 28.1272 14.8861 28.6311C14.2428 29.1286 13.7569 29.7471 13.4284 30.4867C13.0999 31.2197 12.9356 32.0575 12.9356 33C12.9356 33.9556 13.0999 34.7999 13.4284 35.533C13.7569 36.266 14.2428 36.8845 14.8861 37.3885C15.5295 37.8859 16.3268 38.2655 17.2781 38.5273C18.2362 38.7826 19.3415 38.9102 20.594 38.9102C21.8464 38.9102 22.9449 38.7826 23.8893 38.5273C24.8407 38.2655 25.6346 37.8859 26.271 37.3885C26.9075 36.8845 27.3866 36.266 27.7083 35.533C28.0368 34.7999 28.201 33.9556 28.201 33Z" fill="white"/>
<path d="M32.6837 33.9618V39.7346H31.4004V26.2451H38.4223C39.4968 26.2451 40.4173 26.3269 41.1839 26.4906C41.9504 26.6476 42.5766 26.8898 43.0625 27.2171C43.5553 27.5378 43.9146 27.9403 44.1405 28.4246C44.3663 28.909 44.4792 29.4751 44.4792 30.1231C44.4792 31.131 44.202 31.9394 43.6477 32.5481C43.0933 33.1502 42.2002 33.5626 40.9683 33.7851L45.783 39.7346H44.1712L39.6234 33.9225C39.4318 33.9356 39.2368 33.9454 39.0383 33.952C38.8398 33.9585 38.6345 33.9618 38.4223 33.9618H32.6837ZM43.1549 30.1231C43.1549 29.5471 43.0488 29.0824 42.8367 28.729C42.6245 28.369 42.2789 28.0908 41.7998 27.8945C41.3207 27.6981 40.6911 27.5672 39.9109 27.5018C39.1375 27.4298 38.1862 27.3938 37.057 27.3938H32.6837V32.8131H37.0159C38.1451 32.8131 39.0999 32.7837 39.8801 32.7248C40.6603 32.6593 41.2934 32.5317 41.7793 32.3419C42.2652 32.1455 42.6142 31.8739 42.8264 31.527C43.0454 31.1736 43.1549 30.7056 43.1549 30.1231Z" fill="white"/>
<path fill-rule="evenodd" clip-rule="evenodd" d="M64.1894 26.2695L67.7946 35.6162L71.6976 26.2695H75.652L69.9824 39.7311H65.7507L62.0633 30.6783L58.3863 39.7311H54.1545L48.4746 26.2695H52.4393L56.2601 35.4202L59.9475 26.2695H64.1894ZM76.1931 39.7311V26.2695H90.4803V29.2311H79.9746V34.3463H82.3977V31.3849H87.2438V34.3464L79.9746 34.3463V36.7695H90.6241V39.7311H76.1931ZM108.297 37.3797C108.441 36.9943 108.513 36.5404 108.513 36.0179C108.513 35.5084 108.441 35.0643 108.297 34.6854C108.154 34.3001 107.928 33.9768 107.619 33.7155C107.311 33.4477 106.911 33.2387 106.418 33.0885C105.932 32.9317 105.346 32.8305 104.661 32.7848C105.634 32.6149 106.346 32.2753 106.798 31.7658C107.25 31.2498 107.476 30.5542 107.476 29.679C107.476 29.1891 107.407 28.7646 107.27 28.4054C107.14 28.0461 106.955 27.7391 106.716 27.4844C106.483 27.2297 106.205 27.0239 105.884 26.8672C105.569 26.7104 105.226 26.5896 104.857 26.5047C104.487 26.4132 104.096 26.3512 103.686 26.3185C103.282 26.2859 102.878 26.2695 102.474 26.2695H92.4182V39.7311H102.659C103.186 39.7311 103.696 39.7115 104.189 39.6723C104.682 39.6331 105.144 39.5645 105.576 39.4665C106.014 39.362 106.411 39.2249 106.767 39.0551C107.13 38.8787 107.438 38.6534 107.691 38.379C107.952 38.0982 108.154 37.7651 108.297 37.3797ZM103.675 29.777C103.73 29.9272 103.758 30.0872 103.758 30.2571C103.758 30.4269 103.73 30.5902 103.675 30.7469C103.621 30.8971 103.521 31.0278 103.378 31.1388C103.234 31.2498 103.039 31.338 102.792 31.4033C102.546 31.4687 102.231 31.5013 101.847 31.5013H96.2288V28.9736H101.847C102.231 28.9736 102.546 29.0095 102.792 29.0814C103.039 29.1532 103.234 29.2479 103.378 29.3655C103.521 29.4831 103.621 29.6202 103.675 29.777ZM104.477 34.8618C104.586 35.0447 104.641 35.2896 104.641 35.5966C104.641 35.9036 104.586 36.1518 104.477 36.3412C104.367 36.5241 104.196 36.6678 103.963 36.7723C103.73 36.8768 103.429 36.9454 103.059 36.978C102.689 37.0107 102.248 37.027 101.734 37.027H96.2288V34.176H101.734C102.248 34.176 102.689 34.1923 103.059 34.225C103.429 34.2576 103.73 34.3262 103.963 34.4307C104.196 34.5287 104.367 34.6724 104.477 34.8618Z" fill="white"/>
</svg>
