<svg width="120" height="83" viewBox="0 0 120 83" fill="none" xmlns="http://www.w3.org/2000/svg">
<path fill-rule="evenodd" clip-rule="evenodd" d="M60.5626 0.034314C71.9145 0.592731 80.9019 9.98464 80.8057 21.4044C80.7226 31.2661 73.8887 39.4963 64.7081 41.7921L64.4071 41.9588L64.4064 41.9588C64.3949 41.9671 64.3809 41.9738 64.3684 41.9775C64.3642 41.9833 64.3608 41.9868 64.3608 41.9868L64.3545 41.9866L64.3539 41.9872L64.3003 41.9882C64.2969 41.9883 64.2934 41.9879 64.29 41.9871C64.2873 41.9865 64.2845 41.9855 64.2818 41.9843L52.7626 41.6217C52.7602 41.6235 52.7572 41.6253 52.7545 41.6268L52.7008 41.6278C52.6801 41.6283 52.6594 41.6287 52.6385 41.6165C52.6278 41.6141 52.617 41.6096 52.6062 41.6012C52.5902 41.5942 52.5764 41.5841 52.5651 41.5715L43.214 35.2271L43.1593 35.1736L40.7368 28.9175L39.1957 24.9649L39.1935 24.8557L39.2015 24.8472L39.4903 13.7464L39.4885 13.7065C39.4884 13.7036 39.4885 13.7007 39.4886 13.6978C39.4886 13.6965 39.4887 13.6951 39.4887 13.6938C39.4889 13.692 39.489 13.6903 39.4892 13.6885C39.4892 13.6877 39.4893 13.6868 39.4894 13.6859C39.4895 13.685 39.4896 13.6841 39.4898 13.6832C39.4904 13.6786 39.4912 13.6739 39.4923 13.6694C39.4927 13.6629 39.4935 13.6565 39.4949 13.6504C39.4962 13.6313 39.5015 13.6121 39.5199 13.5927L47.5307 3.46179L47.5586 3.39749L47.5611 3.39479C47.5719 3.37362 47.5894 3.35512 47.6097 3.34335L47.6375 3.314L47.7032 3.31269L54.2987 0.628081L54.3255 0.627545L60.382 0.0193809C60.4156 -0.00244032 60.4533 -0.00581249 60.5005 0.0091507L60.5626 0.034314ZM47.0926 4.47179L39.9734 13.4599L43.6463 12.4171L47.0926 4.47179ZM39.59 20.3277L39.4746 24.7061L39.5618 24.6775L39.9711 24.537L39.7812 20.0261L39.6683 17.5888L39.59 20.3277ZM39.5197 24.9896L42.1326 31.694L42.0454 31.4081L40.0253 24.8391L39.6322 24.9527L39.5197 24.9896ZM54.3789 0.902726L54.1041 1.01328L49.7779 2.76977L56.8604 0.940972L58.703 0.462781L54.3789 0.902726ZM43.8731 35.3103L52.2932 41.0496L49.5021 35.8482L43.8731 35.3103ZM61.1545 0.958627L60.5779 0.459285L60.458 0.355937L56.7221 4.92816L55.025 7.01151L63.1564 6.57991C62.7725 3.92175 61.8104 2.0074 61.1545 0.958627ZM63.1919 6.84107C63.2073 6.96174 63.2215 7.08388 63.2344 7.20748C63.782 7.20719 64.1404 7.01734 64.3742 6.78441L64.3807 6.77794L64.3812 6.77791C64.4554 6.70733 64.5526 6.56687 64.593 6.50366C64.7698 6.20984 64.8022 5.93557 64.8022 5.93557C64.8624 6.13057 64.8866 6.31501 64.8835 6.48824C64.8835 6.53578 64.8658 6.68431 64.8569 6.75264C64.6804 7.71254 63.6922 8.26241 63.6922 8.26241C64.1623 8.86019 65.0937 9.82964 66.797 10.9164L65.5182 17.7069L55.0756 7.27212L63.1919 6.84107ZM67.0485 11.0742L65.7935 17.7802L69.5368 16.9051C68.4955 15.9106 69.6059 15.0711 69.6059 15.0711C71.9231 13.3888 69.2631 12.2757 69.2631 12.2757C68.4157 11.8695 67.6821 11.4652 67.0485 11.0742ZM69.8004 17.1369L68.2978 17.4879L65.833 18.0751L71.829 27.1894C72.1174 26.6768 72.0726 26.0523 71.4959 25.2628C69.8664 23.032 70.1751 22.2357 70.4801 21.4489C70.5803 21.1906 70.68 20.9332 70.7106 20.6265C70.8389 19.3855 68.6651 19.5752 68.6651 19.5752C70.1328 18.8352 70.8724 18.1212 69.8004 17.1369ZM71.6649 27.4283L65.6416 18.2847L65.3424 19.0873L60.8454 31.1859L64.8522 30.6588C65.1777 30.4557 65.5199 30.2629 65.8725 30.0737C66.4371 29.7728 67.2211 29.5097 68.0399 29.2349C69.4674 28.7559 71.0014 28.241 71.6649 27.4283ZM64.3685 30.9782L61.4987 31.351L60.84 31.4383L62.0353 35.0507C62.0992 33.0855 63.048 31.9051 64.3685 30.9782ZM62.0826 36.1298L60.5538 31.5137L55.415 33.5329L50.0384 35.6584L63.1005 39.8425C62.5219 38.385 62.1993 37.1647 62.0826 36.1298ZM63.288 40.3018L60.4391 40.6518L54.5525 41.3886L63.9059 41.6776C63.6771 41.1977 63.4715 40.7395 63.288 40.3018ZM48.1161 3.50582L54.7206 6.95545L58.3838 2.47209L60.0676 0.392108L48.1161 3.50582ZM54.4408 7.13204L51.2385 5.45941L47.7785 3.66617L44.059 12.2185L54.4408 7.13204ZM43.8167 12.8129L40.3092 24.461L50.1005 21.6241L43.8167 12.8129ZM43.9758 12.5782L50.2695 21.3751L54.4934 7.44389L43.9758 12.5782ZM65.3853 18.1679L60.5737 31.0724L50.6206 21.7646L65.3853 18.1679ZM54.816 7.40275L59.5404 12.1171L65.3152 17.8979L50.5342 21.5002L54.816 7.40275ZM49.7344 35.4575L50.4648 22.0047L60.3584 31.2705L49.7344 35.4575ZM52.767 41.3243L49.888 35.9267L62.8587 40.0838L52.767 41.3243ZM40.3464 24.7148L49.463 35.3188L50.1678 21.843L40.3464 24.7148ZM40.2305 23.8217L43.5754 12.6966L39.7654 13.781L40.2305 23.8217ZM49.2698 35.5205L40.4383 25.2397L43.4186 34.983L49.2698 35.5205Z" fill="white"/>
<path fill-rule="evenodd" clip-rule="evenodd" d="M93.7335 57.5699V50.7765H89.6406C89.1372 50.7765 88.6918 50.8671 88.3046 51.0482C87.9173 51.2294 87.6165 51.486 87.402 51.8181C87.1905 52.1472 87.0848 52.5261 87.0848 52.9549C87.0848 53.2991 87.1548 53.6101 87.2948 53.8879C87.4348 54.1656 87.6358 54.3996 87.898 54.5898C88.1601 54.777 88.4684 54.9114 88.8229 54.9929L86.9105 57.5699H89.0552L90.8202 55.1242H91.8792V57.5699H93.7335ZM91.8792 52.117V53.7973H89.9087C89.6078 53.7973 89.3725 53.7233 89.2027 53.5754C89.0359 53.4274 88.9525 53.2206 88.9525 52.9549C88.9525 52.6922 89.0359 52.4869 89.2027 52.339C89.3725 52.191 89.6078 52.117 89.9087 52.117H91.8792Z" fill="white"/>
<path fill-rule="evenodd" clip-rule="evenodd" d="M113.937 69.9145C114.538 70.2104 115.232 70.3583 116.019 70.3583C116.805 70.3583 117.499 70.2104 118.101 69.9145C118.703 69.6186 119.169 69.2034 119.5 68.669C119.833 68.1316 120 67.5126 120 66.8122C120 66.1117 119.833 65.4942 119.5 64.9598C119.169 64.4224 118.703 64.0057 118.101 63.7098C117.499 63.4139 116.805 63.266 116.019 63.266C115.232 63.266 114.538 63.4139 113.937 63.7098C113.335 64.0057 112.867 64.4224 112.534 64.9598C112.203 65.4942 112.038 66.1117 112.038 66.8122C112.038 67.5126 112.203 68.1316 112.534 68.669C112.867 69.2034 113.335 69.6186 113.937 69.9145ZM117.136 68.4516C116.82 68.6026 116.448 68.6781 116.019 68.6781C115.59 68.6781 115.216 68.6026 114.897 68.4516C114.582 68.3007 114.337 68.0848 114.164 67.804C113.995 67.5232 113.91 67.1926 113.91 66.8122C113.91 66.4317 113.995 66.1011 114.164 65.8203C114.337 65.5395 114.582 65.3236 114.897 65.1727C115.216 65.0217 115.59 64.9462 116.019 64.9462C116.448 64.9462 116.82 65.0217 117.136 65.1727C117.455 65.3236 117.699 65.5395 117.869 65.8203C118.041 66.1011 118.128 66.4317 118.128 66.8122C118.128 67.1926 118.041 67.5232 117.869 67.804C117.699 68.0848 117.455 68.3007 117.136 68.4516Z" fill="white"/>
<path d="M55.0662 79.8796C54.7922 79.6259 54.3975 79.4569 53.8822 79.3723C54.3647 79.2516 54.7237 79.0538 54.959 78.779C55.1973 78.5043 55.3165 78.1857 55.3165 77.8234C55.3165 77.446 55.1839 77.1124 54.9188 76.8225C54.6566 76.5327 54.2843 76.3077 53.8017 76.1477C53.3192 75.9877 52.7621 75.9077 52.1306 75.9077C51.4157 75.9077 50.7961 76.0149 50.2718 76.2292C49.7475 76.4406 49.3439 76.7289 49.0609 77.0943C48.7779 77.4566 48.6215 77.8627 48.5918 78.3126H50.4327C50.4803 78.0046 50.6412 77.7676 50.9152 77.6015C51.1893 77.4354 51.5661 77.3524 52.0457 77.3524C52.4806 77.3524 52.8187 77.4188 53.06 77.5517C53.3043 77.6815 53.4264 77.8672 53.4264 78.1088C53.4264 78.3322 53.3132 78.5073 53.0868 78.6341C52.8634 78.7609 52.5298 78.8243 52.0859 78.8243H50.884V80.0607H52.1127C52.631 80.0607 53.0049 80.1151 53.2343 80.2238C53.4666 80.3325 53.5828 80.5046 53.5828 80.7401C53.5828 81.0088 53.4502 81.2126 53.1851 81.3515C52.92 81.4873 52.5387 81.5553 52.0412 81.5553C51.517 81.5553 51.1089 81.4692 50.8169 81.2971C50.525 81.125 50.3567 80.8759 50.312 80.5498H48.4532C48.4741 81.045 48.6335 81.4783 48.9313 81.8497C49.2292 82.218 49.6448 82.5018 50.178 82.7011C50.7112 82.9004 51.3323 83 52.0412 83C52.7621 83 53.3802 82.9109 53.8956 82.7328C54.4139 82.5547 54.8071 82.3071 55.0752 81.9901C55.3462 81.67 55.4818 81.3017 55.4818 80.885C55.4818 80.4683 55.3433 80.1332 55.0662 79.8796Z" fill="white"/>
<path d="M78.6694 81.5779C79.009 81.125 79.2115 80.6012 79.2771 80.0064H77.4138C77.3274 80.4502 77.1129 80.7899 76.7704 81.0254C76.4308 81.2579 75.984 81.3741 75.4299 81.3741C75.0158 81.3741 74.6569 81.2971 74.353 81.1431C74.0522 80.9861 73.8198 80.7642 73.656 80.4774C73.4952 80.1875 73.4147 79.8464 73.4147 79.4538C73.4147 79.0613 73.4952 78.7217 73.656 78.4348C73.8198 78.145 74.0522 77.9231 74.353 77.7691C74.6569 77.6121 75.0158 77.5336 75.4299 77.5336C75.978 77.5336 76.4233 77.6543 76.7659 77.8959C77.1085 78.1374 77.3244 78.4726 77.4138 78.9013H79.2771C79.2115 78.3065 79.009 77.7842 78.6694 77.3343C78.3298 76.8814 77.8815 76.5312 77.3244 76.2836C76.7674 76.033 76.1374 75.9077 75.4344 75.9077C74.6628 75.9077 73.9822 76.0556 73.3924 76.3515C72.8026 76.6474 72.3453 77.0641 72.0206 77.6015C71.6989 78.1359 71.5381 78.7534 71.5381 79.4538C71.5381 80.1543 71.6989 80.7733 72.0206 81.3107C72.3453 81.8451 72.8026 82.2603 73.3924 82.5562C73.9822 82.8521 74.6628 83 75.4344 83C76.1374 83 76.7674 82.8762 77.3244 82.6286C77.8815 82.378 78.3298 82.0278 78.6694 81.5779Z" fill="white"/>
<path fill-rule="evenodd" clip-rule="evenodd" d="M87.7381 82.8491H85.7632L85.2046 81.5402H81.7417L81.1832 82.8491H79.2038L82.2556 76.0557H84.6908L87.7381 82.8491ZM83.4709 77.4868L82.3852 80.0321H84.5612L83.4709 77.4868Z" fill="white"/>
<path d="M66.8049 80.1362L66.6172 81.3273H70.862V82.8491H64.6288L65.1382 79.4524L64.6288 76.0557H70.8173V77.5774H66.6172L66.8049 78.7685H70.5582V80.1362H66.8049Z" fill="white"/>
<path d="M61.7332 78.5692V76.0557H63.5875V82.8491H61.7332V80.2268H58.306V82.8491H56.4517V76.0557H58.306V78.5692H61.7332Z" fill="white"/>
<path d="M45.2141 76.0557L41.9299 80.9786V76.0557H40.098V82.8491H42.4527L45.8039 77.8265V82.8491H47.6359V76.0557H45.2141Z" fill="white"/>
<path fill-rule="evenodd" clip-rule="evenodd" d="M38.1143 78.8998C37.745 78.7247 37.2862 78.6372 36.7381 78.6372H34.5576L34.3699 77.4823H38.6952V76.0557H32.3771L32.8954 79.321L32.3771 82.8491H36.7381C37.2505 82.8491 37.6928 82.763 38.0652 82.5909C38.4375 82.4158 38.722 82.1712 38.9186 81.8572C39.1152 81.5402 39.2135 81.1704 39.2135 80.7476C39.2135 80.3189 39.1227 79.9475 38.941 79.6335C38.7592 79.3165 38.4837 79.0719 38.1143 78.8998ZM37.1358 81.2775C36.9809 81.4134 36.7679 81.4813 36.4968 81.4813H34.3297L34.5665 79.9189H36.4924C36.7634 79.9189 36.9764 79.9883 37.1313 80.1272C37.2892 80.2661 37.3681 80.4578 37.3681 80.7024C37.3681 80.9469 37.2907 81.1386 37.1358 81.2775Z" fill="white"/>
<path d="M106.732 63.4181H111.826V65.0938H108.587V70.2115H106.732V63.4181Z" fill="white"/>
<path fill-rule="evenodd" clip-rule="evenodd" d="M101.802 70.3583C101.016 70.3583 100.322 70.2104 99.7199 69.9145C99.1181 69.6186 98.6505 69.2034 98.3168 68.669C97.9862 68.1316 97.8208 67.5126 97.8208 66.8122C97.8208 66.1117 97.9862 65.4942 98.3168 64.9598C98.6505 64.4224 99.1181 64.0057 99.7199 63.7098C100.322 63.4139 101.016 63.266 101.802 63.266C102.588 63.266 103.283 63.4139 103.884 63.7098C104.486 64.0057 104.952 64.4224 105.283 64.9598C105.616 65.4942 105.783 66.1117 105.783 66.8122C105.783 67.5126 105.616 68.1316 105.283 68.669C104.952 69.2034 104.486 69.6186 103.884 69.9145C103.283 70.2104 102.588 70.3583 101.802 70.3583ZM101.802 68.6781C102.231 68.6781 102.603 68.6026 102.919 68.4516C103.238 68.3007 103.482 68.0848 103.652 67.804C103.825 67.5232 103.911 67.1926 103.911 66.8122C103.911 66.4317 103.825 66.1011 103.652 65.8203C103.482 65.5395 103.238 65.3236 102.919 65.1727C102.603 65.0217 102.231 64.9462 101.802 64.9462C101.373 64.9462 100.999 65.0217 100.681 65.1727C100.365 65.3236 100.121 65.5395 99.9477 65.8203C99.7779 66.1011 99.693 66.4317 99.693 66.8122C99.693 67.1926 99.7779 67.5232 99.9477 67.804C100.121 68.0848 100.365 68.3007 100.681 68.4516C100.999 68.6026 101.373 68.6781 101.802 68.6781Z" fill="white"/>
<path d="M95.0105 65.9317V63.4181H96.8648V70.2115H95.0105V67.5892H91.5834V70.2115H89.7291V63.4181H91.5834V65.9317H95.0105Z" fill="white"/>
<path fill-rule="evenodd" clip-rule="evenodd" d="M87.6896 68.5539H88.8469V71.5792H87.1132V70.2115H81.4832V71.5792H79.7496V68.5539H80.603C80.8324 68.2701 81.0022 67.8851 81.1124 67.399C81.2226 66.9099 81.2777 66.3076 81.2777 65.592C81.2777 65.0093 81.233 64.2846 81.1437 63.4181H87.6896V68.5539ZM85.8353 65.0576H82.9667C82.9846 65.3172 82.9935 65.6237 82.9935 65.9769C82.9935 67.1665 82.8252 68.0316 82.4886 68.572H85.8353V65.0576Z" fill="white"/>
<path fill-rule="evenodd" clip-rule="evenodd" d="M75.4947 70.3583C74.7083 70.3583 74.0143 70.2104 73.4125 69.9145C72.8108 69.6186 72.3432 69.2034 72.0095 68.669C71.6789 68.1316 71.5135 67.5126 71.5135 66.8122C71.5135 66.1117 71.6789 65.4942 72.0095 64.9598C72.3432 64.4224 72.8108 64.0057 73.4125 63.7098C74.0143 63.4139 74.7083 63.266 75.4947 63.266C76.2812 63.266 76.9752 63.4139 77.577 63.7098C78.1787 64.0057 78.6449 64.4224 78.9755 64.9598C79.3091 65.4942 79.476 66.1117 79.476 66.8122C79.476 67.5126 79.3091 68.1316 78.9755 68.669C78.6449 69.2034 78.1787 69.6186 77.577 69.9145C76.9752 70.2104 76.2812 70.3583 75.4947 70.3583ZM75.4947 68.6781C75.9237 68.6781 76.2961 68.6026 76.6118 68.4516C76.9305 68.3007 77.1748 68.0848 77.3446 67.804C77.5174 67.5232 77.6038 67.1926 77.6038 66.8122C77.6038 66.4317 77.5174 66.1011 77.3446 65.8203C77.1748 65.5395 76.9305 65.3236 76.6118 65.1727C76.2961 65.0217 75.9237 64.9462 75.4947 64.9462C75.0658 64.9462 74.692 65.0217 74.3732 65.1727C74.0575 65.3236 73.8132 65.5395 73.6404 65.8203C73.4706 66.1011 73.3857 66.4317 73.3857 66.8122C73.3857 67.1926 73.4706 67.5232 73.6404 67.804C73.8132 68.0848 74.0575 68.3007 74.3732 68.4516C74.692 68.6026 75.0658 68.6781 75.4947 68.6781Z" fill="white"/>
<path fill-rule="evenodd" clip-rule="evenodd" d="M68.2935 63.4181C68.8506 63.4181 69.3331 63.5147 69.7412 63.708C70.1493 63.9012 70.4621 64.1744 70.6796 64.5277C70.897 64.8809 71.0057 65.2916 71.0057 65.7596C71.0057 66.2276 70.897 66.6382 70.6796 66.9914C70.4621 67.3447 70.1493 67.6179 69.7412 67.8112C69.3331 68.0044 68.8506 68.101 68.2935 68.101H66.3856V70.2115H64.5313V63.4181H68.2935ZM68.1863 66.5974C68.4842 66.5974 68.7165 66.5234 68.8833 66.3755C69.0501 66.2276 69.1336 66.0222 69.1336 65.7596C69.1336 65.4969 69.0501 65.2916 68.8833 65.1436C68.7165 64.9957 68.4842 64.9217 68.1863 64.9217H66.3856V66.5974H68.1863Z" fill="white"/>
<path fill-rule="evenodd" clip-rule="evenodd" d="M63.8992 70.2115H61.9242L61.3657 68.9026H57.9028L57.3443 70.2115H55.3648L58.4166 63.4181H60.8518L63.8992 70.2115ZM59.632 64.8492L58.5462 67.3945H60.7222L59.632 64.8492Z" fill="white"/>
<path d="M52.8807 65.9317V63.4181H54.735V70.2115H52.8807V67.5892H49.4535V70.2115H47.5992V63.4181H49.4535V65.9317H52.8807Z" fill="white"/>
<path d="M42.9794 66.9507L44.9633 63.4181H46.9696L43.1135 70.2115H41.1072L41.9562 68.717L38.9357 63.4181H40.9821L42.9794 66.9507Z" fill="white"/>
<path fill-rule="evenodd" clip-rule="evenodd" d="M38.1208 68.5539H39.278V71.5792H37.5444V70.2115H31.9144V71.5792H30.1807V68.5539H31.0341C31.2635 68.2701 31.4333 67.8851 31.5435 67.399C31.6537 66.9099 31.7088 66.3076 31.7088 65.592C31.7088 65.0093 31.6642 64.2846 31.5748 63.4181H38.1208V68.5539ZM36.2664 68.572V65.0576H33.3978C33.4157 65.3172 33.4246 65.6237 33.4246 65.9769C33.4246 67.1665 33.2563 68.0316 32.9197 68.572H36.2664Z" fill="white"/>
<path d="M27.6324 66.2577L30.0184 70.2115H27.9139L26.4617 67.7115L24.4465 70.2115H23.0882L21.0685 67.7115L19.6164 70.2115H17.5118L19.8979 66.2577L17.6056 63.4181H19.5627L22.8514 67.6572V63.4181H24.6789V67.6527L27.9675 63.4181H29.9246L27.6324 66.2577Z" fill="white"/>
<path d="M13.0279 67.4987L12.8403 68.6898H17.0851V70.2115H10.8519L11.3613 66.8148L10.8519 63.4181H17.0404V64.9398H12.8403L13.0279 66.1309H16.7813V67.4987H13.0279Z" fill="white"/>
<path d="M4.90613 68.3863L6.93918 63.4181H9.79886V70.2115H8.03837V65.0576L5.83553 70.2115H3.96333L1.76496 65.0802V70.2115H0V63.4181H2.86414L4.90613 68.3863Z" fill="white"/>
<path d="M83.6365 50.7765L80.3523 55.6994V50.7765H78.5203V57.5699H80.8751L84.2263 52.5473V57.5699H86.0583V50.7765H83.6365Z" fill="white"/>
<path d="M74.4172 50.7765L72.3841 55.7447L70.3422 50.7765H67.478V57.5699H69.243V52.4386L71.4413 57.5699H73.3135L75.5164 52.4159V57.5699H77.2769V50.7765H74.4172Z" fill="white"/>
<path d="M62.1636 56.0481L62.3513 54.857H66.1046V53.4893H62.3513L62.1636 52.2982H66.3637V50.7765H60.1752L60.6846 54.1732L60.1752 57.5699H66.4084V56.0481H62.1636Z" fill="white"/>
<path fill-rule="evenodd" clip-rule="evenodd" d="M59.4953 55.9123H58.338V50.7765H51.792C51.8814 51.643 51.9261 52.3676 51.9261 52.9504C51.9261 53.6659 51.871 54.2683 51.7608 54.7574C51.6505 55.2435 51.4808 55.6285 51.2514 55.9123H50.3979V58.9376H52.1316V57.5699H57.7616V58.9376H59.4953V55.9123ZM56.4837 52.4159V55.9304H53.137C53.4736 55.3899 53.6419 54.5249 53.6419 53.3353C53.6419 52.9821 53.633 52.6756 53.6151 52.4159H56.4837Z" fill="white"/>
<path fill-rule="evenodd" clip-rule="evenodd" d="M48.2453 57.5699H50.2202L47.1729 50.7765H44.7377L41.7 57.5383L39.3464 53.6342L41.6297 50.7765H39.6681L36.3661 55.0518V50.7765H34.5207V57.5699H36.1963L38.1757 55.0971L39.6145 57.5699H43.6653L44.2238 56.261H47.6867L48.2453 57.5699ZM44.8673 54.7529L45.953 52.2076L47.0433 54.7529H44.8673Z" fill="white"/>
<path fill-rule="evenodd" clip-rule="evenodd" d="M33.8886 57.5699H31.9137L31.3551 56.261H27.8922L27.3337 57.5699H25.3543L28.4061 50.7765H30.8413L33.8886 57.5699ZM29.6214 52.2076L28.5357 54.7529H30.7117L29.6214 52.2076Z" fill="white"/>
</svg>
