<svg width="204" height="48" viewBox="0 0 204 48" fill="none" xmlns="http://www.w3.org/2000/svg">
<path fill-rule="evenodd" clip-rule="evenodd" d="M66.2187 12.7227H63.7907L63.1041 11.1385H58.8469L58.1603 12.7227H55.7268L59.4786 4.5H62.4724L66.2187 12.7227ZM60.9728 6.23225L59.6379 9.31302H62.3131L60.9728 6.23225Z" fill="#010D07"/>
<path fill-rule="evenodd" clip-rule="evenodd" d="M139.787 4.5H134.756C134.137 4.5 133.589 4.60964 133.113 4.82891C132.637 5.04818 132.267 5.35882 132.004 5.76081C131.744 6.15916 131.614 6.6178 131.614 7.13675C131.614 7.55336 131.7 7.92978 131.872 8.266C132.044 8.60222 132.291 8.88544 132.613 9.11568C132.936 9.34226 133.315 9.50488 133.751 9.60356L131.399 12.7227H134.036L136.206 9.76253H137.508V12.7227H139.787V4.5ZM137.508 6.12261V8.15636H135.085C134.715 8.15636 134.426 8.06683 134.217 7.88775C134.012 7.70868 133.91 7.45835 133.91 7.13675C133.91 6.8188 134.012 6.57029 134.217 6.39122C134.426 6.21215 134.715 6.12261 135.085 6.12261H137.508Z" fill="#010D07"/>
<path fill-rule="evenodd" clip-rule="evenodd" d="M199.106 28.2005C198.139 28.2005 197.286 28.0214 196.546 27.6632C195.806 27.3051 195.231 26.8026 194.821 26.1557C194.415 25.5052 194.211 24.7561 194.211 23.9082C194.211 23.0604 194.415 22.313 194.821 21.6662C195.231 21.0156 195.806 20.5113 196.546 20.1532C197.286 19.795 198.139 19.616 199.106 19.616C200.072 19.616 200.926 19.795 201.665 20.1532C202.405 20.5113 202.978 21.0156 203.385 21.6662C203.795 22.313 204 23.0604 204 23.9082C204 24.7561 203.795 25.5052 203.385 26.1557C202.978 26.8026 202.405 27.3051 201.665 27.6632C200.926 28.0214 200.072 28.2005 199.106 28.2005ZM199.106 26.1667C199.633 26.1667 200.091 26.0753 200.479 25.8926C200.871 25.7099 201.171 25.4486 201.38 25.1087C201.592 24.7689 201.698 24.3687 201.698 23.9082C201.698 23.4477 201.592 23.0476 201.38 22.7077C201.171 22.3678 200.871 22.1065 200.479 21.9238C200.091 21.7411 199.633 21.6497 199.106 21.6497C198.578 21.6497 198.119 21.7411 197.727 21.9238C197.339 22.1065 197.038 22.3678 196.826 22.7077C196.617 23.0476 196.513 23.4477 196.513 23.9082C196.513 24.3687 196.617 24.7689 196.826 25.1087C197.038 25.4486 197.339 25.7099 197.727 25.8926C198.119 26.0753 198.578 26.1667 199.106 26.1667Z" fill="#010D07"/>
<path d="M82.6738 39.1091C83.3073 39.2114 83.7925 39.4161 84.1295 39.723C84.47 40.03 84.6403 40.4357 84.6403 40.94C84.6403 41.4443 84.4737 41.8902 84.1404 42.2776C83.8109 42.6613 83.3275 42.961 82.6903 43.1766C82.0567 43.3922 81.2968 43.5 80.4106 43.5C79.539 43.5 78.7755 43.3794 78.12 43.1382C77.4645 42.897 76.9536 42.5535 76.5874 42.1076C76.2212 41.6581 76.0253 41.1337 75.9996 40.5343H78.2848C78.3397 40.929 78.5466 41.2305 78.9055 41.4388C79.2644 41.6472 79.7661 41.7513 80.4106 41.7513C81.0222 41.7513 81.4909 41.6691 81.8169 41.5046C82.1428 41.3365 82.3057 41.0898 82.3057 40.7646C82.3057 40.4795 82.1629 40.2712 81.8773 40.1397C81.5953 40.0081 81.1357 39.9423 80.4985 39.9423H78.9879V38.4458H80.4655C81.0112 38.4458 81.4213 38.369 81.696 38.2155C81.9743 38.0621 82.1135 37.8501 82.1135 37.5797C82.1135 37.2873 81.9633 37.0625 81.663 36.9054C81.3664 36.7446 80.9508 36.6642 80.4161 36.6642C79.8265 36.6642 79.3633 36.7647 79.0263 36.9657C78.6894 37.1667 78.4917 37.4536 78.4331 37.8263H76.1699C76.2065 37.2818 76.3988 36.7903 76.7467 36.3517C77.0946 35.9095 77.5908 35.5605 78.2353 35.3047C78.8799 35.0452 79.6416 34.9155 80.5205 34.9155C81.2968 34.9155 81.9817 35.0123 82.5749 35.206C83.1682 35.3997 83.6259 35.672 83.9482 36.0228C84.2741 36.3737 84.4371 36.7775 84.4371 37.2343C84.4371 37.6728 84.2906 38.0584 83.9976 38.391C83.7083 38.7235 83.267 38.9629 82.6738 39.1091Z" fill="#010D07"/>
<path d="M113.889 39.8765C113.808 40.5965 113.559 41.2305 113.142 41.7787C112.724 42.3232 112.173 42.7472 111.488 43.0505C110.803 43.3502 110.029 43.5 109.165 43.5C108.216 43.5 107.379 43.3209 106.654 42.9628C105.929 42.6046 105.367 42.1021 104.968 41.4553C104.572 40.8048 104.375 40.0556 104.375 39.2077C104.375 38.3599 104.572 37.6125 104.968 36.9657C105.367 36.3152 105.929 35.8109 106.654 35.4527C107.379 35.0946 108.216 34.9155 109.165 34.9155C110.029 34.9155 110.803 35.0672 111.488 35.3705C112.173 35.6702 112.724 36.0941 113.142 36.6423C113.559 37.1868 113.808 37.819 113.889 38.539H111.598C111.488 38.02 111.223 37.6144 110.802 37.322C110.38 37.0296 109.833 36.8835 109.159 36.8835C108.65 36.8835 108.209 36.9785 107.835 37.1685C107.465 37.3549 107.18 37.6235 106.978 37.9743C106.781 38.3215 106.682 38.7327 106.682 39.2077C106.682 39.6828 106.781 40.0958 106.978 40.4466C107.18 40.7938 107.465 41.0624 107.835 41.2525C108.209 41.4388 108.65 41.532 109.159 41.532C109.84 41.532 110.39 41.3913 110.807 41.1099C111.228 40.8249 111.492 40.4137 111.598 39.8765H113.889Z" fill="#010D07"/>
<path fill-rule="evenodd" clip-rule="evenodd" d="M121.859 43.314H124.287L120.541 35.0913H117.547L113.796 43.314H116.229L116.916 41.7298H121.173L121.859 43.314ZM117.707 39.9043L119.041 36.8236L120.382 39.9043H117.707Z" fill="#010D07"/>
<path d="M98.3344 41.4721L98.5651 40.0304H103.179V38.3749H98.5651L98.3344 36.9332H103.498V35.0913H95.8899L96.5161 39.2027L95.8899 43.314H103.553V41.4721H98.3344Z" fill="#010D07"/>
<path d="M92.3213 35.0913V38.1337H88.1081V35.0913H85.8285V43.314H88.1081V40.14H92.3213V43.314H94.601V35.0913H92.3213Z" fill="#010D07"/>
<path d="M67.983 41.05L72.0205 35.0913H74.9978V43.314H72.7456V37.2347L68.6257 43.314H65.7309V35.0913H67.983V41.05Z" fill="#010D07"/>
<path fill-rule="evenodd" clip-rule="evenodd" d="M61.5962 38.2159C62.27 38.2159 62.834 38.3219 63.2881 38.5339C63.7422 38.7422 64.0809 39.0382 64.3043 39.4219C64.5277 39.802 64.6394 40.2515 64.6394 40.7705C64.6394 41.2821 64.5185 41.7298 64.2769 42.1135C64.0351 42.4936 63.6854 42.7896 63.2277 43.0015C62.7699 43.2099 62.2261 43.314 61.5962 43.314H56.2349L56.8721 39.0437L56.2349 35.0913H64.0022V36.8181H58.6848L58.9156 38.2159H61.5962ZM61.2996 41.6585C61.6328 41.6585 61.8947 41.5763 62.0851 41.4118C62.2755 41.2437 62.3707 41.0117 62.3707 40.7156C62.3707 40.4196 62.2737 40.1876 62.0796 40.0195C61.8892 39.8513 61.6273 39.7673 61.2941 39.7673H58.9265L58.6354 41.6585H61.2996Z" fill="#010D07"/>
<path d="M193.954 19.7918H187.692V28.0145H189.971V21.82H193.954V19.7918Z" fill="#010D07"/>
<path fill-rule="evenodd" clip-rule="evenodd" d="M179.067 27.6632C179.806 28.0214 180.66 28.2005 181.626 28.2005C182.593 28.2005 183.446 28.0214 184.186 27.6632C184.926 27.3051 185.499 26.8026 185.905 26.1557C186.316 25.5052 186.521 24.7561 186.521 23.9082C186.521 23.0604 186.316 22.313 185.905 21.6662C185.499 21.0156 184.926 20.5113 184.186 20.1532C183.446 19.795 182.593 19.616 181.626 19.616C180.66 19.616 179.806 19.795 179.067 20.1532C178.327 20.5113 177.752 21.0156 177.342 21.6662C176.935 22.313 176.732 23.0604 176.732 23.9082C176.732 24.7561 176.935 25.5052 177.342 26.1557C177.752 26.8026 178.327 27.3051 179.067 27.6632ZM183 25.8926C182.611 26.0753 182.154 26.1667 181.626 26.1667C181.099 26.1667 180.639 26.0753 180.248 25.8926C179.859 25.7099 179.559 25.4486 179.347 25.1087C179.138 24.7689 179.034 24.3687 179.034 23.9082C179.034 23.4477 179.138 23.0476 179.347 22.7077C179.559 22.3678 179.859 22.1065 180.248 21.9238C180.639 21.7411 181.099 21.6497 181.626 21.6497C182.154 21.6497 182.611 21.7411 183 21.9238C183.391 22.1065 183.692 22.3678 183.9 22.7077C184.113 23.0476 184.219 23.4477 184.219 23.9082C184.219 24.3687 184.113 24.7689 183.9 25.1087C183.692 25.4486 183.391 25.7099 183 25.8926Z" fill="#010D07"/>
<path d="M173.282 19.7918V22.8342H169.069V19.7918H166.789V28.0145H169.069V24.8405H173.282V28.0145H175.562V19.7918H173.282Z" fill="#010D07"/>
<path fill-rule="evenodd" clip-rule="evenodd" d="M165.708 26.0081H164.285V19.7918H156.238C156.348 20.8406 156.403 21.7177 156.403 22.423C156.403 23.2892 156.335 24.0182 156.2 24.6103C156.064 25.1987 155.855 25.6646 155.573 26.0081H154.524V29.67H156.655V28.0145H163.577V29.67H165.708V26.0081ZM162.006 21.7762V26.0301H157.891C158.305 25.3759 158.512 24.3289 158.512 22.889C158.512 22.4614 158.501 22.0905 158.479 21.7762H162.006Z" fill="#010D07"/>
<path fill-rule="evenodd" clip-rule="evenodd" d="M146.729 27.6632C147.469 28.0214 148.322 28.2005 149.289 28.2005C150.256 28.2005 151.109 28.0214 151.849 27.6632C152.588 27.3051 153.162 26.8026 153.568 26.1557C153.978 25.5052 154.183 24.7561 154.183 23.9082C154.183 23.0604 153.978 22.313 153.568 21.6662C153.162 21.0156 152.588 20.5113 151.849 20.1532C151.109 19.795 150.256 19.616 149.289 19.616C148.322 19.616 147.469 19.795 146.729 20.1532C145.989 20.5113 145.414 21.0156 145.004 21.6662C144.598 22.313 144.395 23.0604 144.395 23.9082C144.395 24.7561 144.598 25.5052 145.004 26.1557C145.414 26.8026 145.989 27.3051 146.729 27.6632ZM150.662 25.8926C150.274 26.0753 149.816 26.1667 149.289 26.1667C148.762 26.1667 148.302 26.0753 147.91 25.8926C147.522 25.7099 147.222 25.4486 147.009 25.1087C146.801 24.7689 146.696 24.3687 146.696 23.9082C146.696 23.4477 146.801 23.0476 147.009 22.7077C147.222 22.3678 147.522 22.1065 147.91 21.9238C148.302 21.7411 148.762 21.6497 149.289 21.6497C149.816 21.6497 150.274 21.7411 150.662 21.9238C151.054 22.1065 151.354 22.3678 151.563 22.7077C151.775 23.0476 151.882 23.4477 151.882 23.9082C151.882 24.3687 151.775 24.7689 151.563 25.1087C151.354 25.4486 151.054 25.7099 150.662 25.8926Z" fill="#010D07"/>
<path fill-rule="evenodd" clip-rule="evenodd" d="M142.214 20.1426C141.712 19.9087 141.119 19.7918 140.434 19.7918H135.809V28.0145H138.088V25.46H140.434C141.119 25.46 141.712 25.343 142.214 25.1091C142.715 24.8752 143.1 24.5445 143.367 24.1169C143.635 23.6893 143.768 23.1923 143.768 22.6259C143.768 22.0594 143.635 21.5624 143.367 21.1348C143.1 20.7072 142.715 20.3765 142.214 20.1426ZM141.159 23.3714C140.954 23.5505 140.668 23.64 140.302 23.64H138.088V21.6117H140.302C140.668 21.6117 140.954 21.7013 141.159 21.8803C141.364 22.0594 141.467 22.3079 141.467 22.6259C141.467 22.9438 141.364 23.1923 141.159 23.3714Z" fill="#010D07"/>
<path fill-rule="evenodd" clip-rule="evenodd" d="M132.599 28.0145H135.027L131.281 19.7918H128.287L124.535 28.0145H126.969L127.656 26.4302H131.913L132.599 28.0145ZM128.447 24.6048L129.781 21.524L131.122 24.6048H128.447Z" fill="#010D07"/>
<path d="M121.489 19.7918V22.8342H117.275V19.7918H114.996V28.0145H117.275V24.8405H121.489V28.0145H123.768V19.7918H121.489Z" fill="#010D07"/>
<path d="M111.76 19.7918L109.322 24.0676L106.866 19.7918H104.35L108.064 26.2055L107.02 28.0145H109.486L114.227 19.7918H111.76Z" fill="#010D07"/>
<path fill-rule="evenodd" clip-rule="evenodd" d="M104.77 26.0081H103.347V19.7918H95.2999C95.4097 20.8406 95.4647 21.7177 95.4647 22.423C95.4647 23.2892 95.3969 24.0182 95.2614 24.6103C95.1259 25.1987 94.9172 25.6646 94.6352 26.0081H93.586V29.67H95.7173V28.0145H102.639V29.67H104.77V26.0081ZM101.068 21.7762V26.0301H96.9533C97.3671 25.3759 97.574 24.3289 97.574 22.889C97.574 22.4614 97.563 22.0905 97.5411 21.7762H101.068Z" fill="#010D07"/>
<path d="M93.379 28.0145L90.4457 23.2289L93.2636 19.7918H90.8577L86.8147 24.9173V19.7918H84.568V24.9227L80.5251 19.7918H78.1191L80.9371 23.2289L78.0038 28.0145H80.591L82.3763 24.9885L84.8592 28.0145H86.5291L89.0065 24.9885L90.7917 28.0145H93.379Z" fill="#010D07"/>
<path d="M72.2585 26.1726L72.4892 24.7309H77.1034V23.0754H72.4892L72.2585 21.6337H77.422V19.7918H69.814L70.4403 23.9031L69.814 28.0145H77.4769V26.1726H72.2585Z" fill="#010D07"/>
<path d="M65.011 19.7918L62.5116 25.8053L60.0013 19.7918H56.4802V28.0145H58.65V21.8036L61.3526 28.0145H63.6542L66.3623 21.7762V28.0145H68.5266V19.7918H65.011Z" fill="#010D07"/>
<path d="M123.339 10.4587L127.376 4.5H130.354V12.7227H128.102V6.64338L123.982 12.7227H121.087V4.5H123.339V10.4587Z" fill="#010D07"/>
<path d="M113.534 10.5135L116.034 4.5H119.549V12.7227H117.385V6.48441L114.677 12.7227H112.375L109.673 6.51182V12.7227H107.503V4.5H111.024L113.534 10.5135Z" fill="#010D07"/>
<path d="M101.21 9.4391L100.979 10.8808H106.197V12.7227H98.5345L99.1607 8.61135L98.5345 4.5H106.142V6.34189H100.979L101.21 7.7836H105.824V9.4391H101.21Z" fill="#010D07"/>
<path fill-rule="evenodd" clip-rule="evenodd" d="M96.275 10.7164H97.6977V14.3782H95.5664V12.7227H88.645V14.3782H86.5137V10.7164H87.5629C87.8449 10.3728 88.0536 9.90688 88.1891 9.3185C88.3246 8.72647 88.3923 7.99739 88.3923 7.13126C88.3923 6.42594 88.3374 5.54885 88.2275 4.5H96.275V10.7164ZM93.9953 10.7383V6.48441H90.4687C90.4907 6.7987 90.5017 7.16964 90.5017 7.59722C90.5017 9.0371 90.2948 10.0841 89.881 10.7383H93.9953Z" fill="#010D07"/>
<path fill-rule="evenodd" clip-rule="evenodd" d="M86.29 12.7227H83.8621L83.1754 11.1385H78.9182L78.2316 12.7227H73.2554L71.4867 9.72964L69.0532 12.7227H66.9933V4.5H69.2619V9.67482L73.3214 4.5H75.7328L72.9259 7.95902L75.8172 12.681L79.55 4.5H82.5437L86.29 12.7227ZM81.0441 6.23225L79.7093 9.31302H82.3844L81.0441 6.23225Z" fill="#010D07"/>
<path fill-rule="evenodd" clip-rule="evenodd" d="M47.765 24.4691C47.8754 11.4142 37.5591 0.677597 24.5288 0.039227L24.4574 0.0104609C24.4032 -0.0066447 24.3599 -0.00278971 24.3214 0.0221558L17.3694 0.717395L17.3386 0.718009L9.76788 3.78699L9.69244 3.78849L9.66061 3.82204C9.63724 3.8355 9.61716 3.85665 9.60481 3.88084L9.60188 3.88393L9.56987 3.95744L0.37456 15.5388C0.353475 15.5611 0.347419 15.583 0.345885 15.6048C0.344352 15.6118 0.343335 15.6191 0.342902 15.6265C0.341665 15.6317 0.340709 15.637 0.340003 15.6423C0.339737 15.6444 0.339509 15.6464 0.339312 15.6484C0.338971 15.652 0.338743 15.6555 0.338622 15.6591C0.338515 15.6624 0.338493 15.6656 0.338561 15.6689L0.340679 15.7145L0.00917657 28.4048L0 28.4144L0.00243661 28.5393L1.77139 33.0579L4.55214 40.2096L4.61495 40.2708L15.3487 47.5236C15.3616 47.538 15.3775 47.5495 15.3959 47.5575C15.4083 47.5671 15.4206 47.5723 15.4329 47.5751C15.4569 47.589 15.4807 47.5885 15.5045 47.588L15.5661 47.5868C15.5692 47.5851 15.5722 47.5833 15.575 47.5813L15.5754 47.581L28.7979 47.9955C28.805 47.9986 28.812 48.0001 28.819 48L28.8807 47.9988L28.8813 47.9981L28.8885 47.9984C28.8885 47.9984 28.8924 47.9943 28.8973 47.9877C28.9116 47.9835 28.9276 47.9758 28.9408 47.9664L28.9416 47.9663L29.2872 47.7758C39.8253 45.1512 47.6696 35.7427 47.765 24.4691ZM0.895206 15.387L9.067 5.11205L5.1111 14.1949L0.895206 15.387ZM0.322606 28.2434L0.455037 23.2382L0.544987 20.1072L0.674571 22.8934L0.892572 28.0501L0.422719 28.2108L0.322606 28.2434ZM3.37368 36.2318L0.374318 28.5675L0.50353 28.5254L0.954696 28.3955L3.27351 35.905L3.37368 36.2318ZM17.1152 1.15836L17.4307 1.03198L22.3942 0.529041L20.2791 1.0757L12.1493 3.16634L17.1152 1.15836ZM15.0366 46.927L5.37147 40.3659L11.8328 40.9808L15.0366 46.927ZM24.5463 0.525044L25.2081 1.09588C25.961 2.29481 27.0654 4.48326 27.506 7.52201L18.1724 8.0154L20.1204 5.63376L24.4086 0.406899L24.5463 0.525044ZM27.5956 8.23943C27.5807 8.09813 27.5644 7.9585 27.5468 7.82056L18.2304 8.31332L30.2171 20.2422L31.6849 12.4794C29.7298 11.237 28.6607 10.1288 28.1211 9.4454C28.1211 9.4454 29.2554 8.8168 29.458 7.71947C29.4682 7.64136 29.4885 7.47155 29.4885 7.41721C29.4921 7.21918 29.4643 7.00833 29.3952 6.78541C29.3952 6.78541 29.358 7.09895 29.155 7.43483C29.1087 7.50709 28.9971 7.66767 28.9119 7.74835L28.9113 7.74838L28.9039 7.75579C28.6356 8.02206 28.2241 8.23909 27.5956 8.23943ZM30.5331 20.326L31.9736 12.6598C32.701 13.1067 33.5429 13.569 34.5157 14.0333C34.5157 14.0333 37.569 15.3057 34.9092 17.2289C34.9092 17.2289 33.6346 18.1887 34.8299 19.3255L30.5331 20.326ZM33.4077 19.9918L35.1325 19.5905C36.363 20.7158 35.514 21.532 33.8293 22.3779C33.8293 22.3779 36.3244 22.1611 36.1773 23.5797C36.1421 23.9304 36.0276 24.2246 35.9126 24.5199C35.5625 25.4194 35.2082 26.3297 37.0787 28.8798C37.7406 29.7824 37.792 30.4963 37.461 31.0823L30.5784 20.6631L33.4077 19.9918ZM30.3588 20.9027L37.2726 31.3555C36.511 32.2845 34.7505 32.8729 33.112 33.4206L33.1117 33.4207C32.1717 33.7348 31.2719 34.0356 30.6237 34.3796C30.219 34.5959 29.8262 34.8163 29.4526 35.0485L24.8534 35.651L30.0153 21.8201L30.3588 20.9027ZM25.6032 35.8398L28.8974 35.4136C27.3816 36.4732 26.2925 37.8225 26.2191 40.0692L24.8471 35.9396L25.6032 35.8398ZM24.5187 36.0258L26.2735 41.3027C26.4074 42.4858 26.7777 43.8809 27.4418 45.5471L12.4484 40.7638L18.62 38.3341L24.5187 36.0258ZM24.3869 46.4722L27.6571 46.0721C27.8678 46.5725 28.1038 47.0963 28.3664 47.6449L17.63 47.3146L24.3869 46.4722ZM17.8229 7.95131L10.2419 4.00777L23.9605 0.448249L22.0278 2.82604L17.8229 7.95131ZM13.8259 6.24108L17.5017 8.15319L5.5849 13.9679L9.85433 4.19108L13.8259 6.24108ZM1.28056 27.9633L5.30669 14.6474L12.5197 24.7202L1.28056 27.9633ZM12.7137 24.4355L5.4894 14.3791L17.5621 8.50968L12.7137 24.4355ZM24.5414 35.5213L30.0645 20.7692L13.1167 24.8808L24.5414 35.5213ZM23.3554 13.852L17.9324 8.46266L13.0176 24.5785L29.9841 20.4605L23.3554 13.852ZM12.9378 25.1552L12.0994 40.5342L24.2943 35.7477L12.9378 25.1552ZM12.2757 41.0706L15.5805 47.241L27.1643 45.8229L12.2757 41.0706ZM11.7879 40.3756L1.32333 28.2534L12.5969 24.9704L11.7879 40.3756ZM5.02977 14.5144L1.19024 27.2324L0.656378 15.7541L5.02977 14.5144ZM1.42875 28.8535L11.5662 40.6063L4.8498 39.9918L1.42875 28.8535Z" fill="#010D07"/>
</svg>
