<svg width="90" height="91" viewBox="0 0 90 91" fill="none" xmlns="http://www.w3.org/2000/svg">
<g clip-path="url(#clip0_2442_90)">
<path d="M89.1738 37.2043C89.1285 36.9705 89.0375 36.7479 88.9061 36.5493C88.7748 36.3506 88.6055 36.1798 88.4081 36.0466C88.2107 35.9134 87.989 35.8203 87.7556 35.7728C87.5222 35.7253 87.2818 35.7243 87.048 35.7697C86.065 35.9607 85.4227 36.9123 85.6134 37.8955C86.1193 40.5098 86.3737 43.1665 86.3731 45.8293C86.3731 46.409 86.3585 46.9866 86.335 47.5625L76.595 43.0116C76.2616 42.8561 75.8889 42.8054 75.5261 42.8664L64.1019 44.7906C63.7315 44.8529 63.3897 45.0288 63.1235 45.2938L58.3933 50.0037L53.3153 47.6769L53.1949 42.3378L59.6223 41.2713C60.065 41.1979 60.4647 40.963 60.7442 40.6119C61.0237 40.2608 61.163 39.8186 61.1354 39.3707L60.7328 32.8478L66.2776 27.3571L73.481 25.041C73.8815 24.9123 74.2247 24.6483 74.452 24.2943C74.6792 23.9403 74.7763 23.5183 74.7266 23.1005L73.8878 16.0487C76.1842 18.2829 78.173 20.77 79.7881 23.4609C80.3037 24.3197 81.4178 24.598 82.2763 24.0825C83.1349 23.5669 83.4133 22.4532 82.8979 21.5943C79.1683 15.381 73.6591 10.1525 66.9659 6.47403C60.247 2.78109 52.6513 0.829346 44.9999 0.829346C32.9801 0.829346 21.6795 5.51022 13.1802 14.0095C4.68088 22.5088 0 33.8095 0 45.8293C0 57.8491 4.68088 69.1497 13.1802 77.649C21.6795 86.1485 32.9801 90.8292 44.9999 90.8292C57.0197 90.8292 68.3203 86.1483 76.8196 77.649C85.3191 69.1497 89.9998 57.8491 89.9998 45.8293C90.0005 42.9345 89.7239 40.0463 89.1738 37.2043ZM4.01645 40.1316L4.84952 42.4524C4.97665 42.8065 5.21074 43.1123 5.51938 43.3275L10.7425 46.9679L10.904 56.8192L8.39268 65.1465C5.27929 59.264 3.62676 52.6739 3.62676 45.8293C3.62676 43.9065 3.76004 42.0045 4.01645 40.1316ZM10.9086 69.286C10.9494 69.2014 10.9845 69.1129 11.0127 69.0202L14.4581 57.5959C14.5121 57.4166 14.538 57.23 14.535 57.0426L14.3536 45.981C14.3489 45.6939 14.2761 45.412 14.1411 45.1585C14.0061 44.9051 13.8129 44.6873 13.5773 44.5231L8.06772 40.6829L5.72448 34.1551C5.65834 33.9714 5.56286 33.7997 5.44177 33.6466C7.39732 27.2688 10.8939 21.425 15.7448 16.574C17.8682 14.4486 20.2149 12.5588 22.7441 10.9373L32.2 23.0075L24.5062 33.3206C24.361 33.5151 24.2563 33.7368 24.1984 33.9726C24.1405 34.2083 24.1305 34.4533 24.1691 34.693C24.2077 34.9327 24.294 35.1622 24.4229 35.3679C24.5518 35.5736 24.7207 35.7513 24.9196 35.8905L29.6341 39.1907L29.8847 44.0783L20.303 47.8713C19.9989 47.9916 19.7331 48.1919 19.5336 48.451C19.3341 48.7101 19.2084 49.0183 19.1698 49.343L18.2631 56.9592C18.213 57.3801 18.3119 57.8052 18.5426 58.1607C18.7733 58.5163 19.1213 58.7797 19.5261 58.9054L35.9214 63.9946L29.0839 72.4323C28.9189 72.6359 28.8 72.8729 28.7353 73.1269C28.6707 73.3809 28.6619 73.6459 28.7096 73.9036L30.7003 84.6733C25.1463 82.6321 20.0534 79.3934 15.7447 75.0847C13.9612 73.3015 12.3426 71.3607 10.9086 69.286ZM34.6141 85.8928L32.4281 74.0663L40.4248 64.1981C41.2194 63.2172 40.7557 61.6978 39.5534 61.3246L22.0429 55.889L22.6435 50.8454L32.4299 46.9713C32.7827 46.8317 33.0827 46.585 33.2879 46.2658C33.493 45.9467 33.5929 45.5713 33.5734 45.1924L33.2108 38.1202C33.1966 37.8447 33.1198 37.5761 32.9862 37.3347C32.8526 37.0934 32.6657 36.8857 32.4397 36.7275L28.5308 33.9913L35.9359 24.0651C36.174 23.746 36.3004 23.3575 36.2957 22.9594C36.291 22.5614 36.1555 22.1759 35.91 21.8625L25.9135 9.10234C31.7374 6.06693 38.2445 4.4561 44.9999 4.4561C52.0422 4.4561 59.034 6.2528 65.2191 9.65216C66.8257 10.5356 68.3712 11.5258 69.8452 12.6163C69.8441 12.6963 69.8461 12.777 69.8559 12.8588L70.9488 22.0455L64.7547 24.0372C64.4833 24.1245 64.2363 24.2745 64.0337 24.4751L57.5962 30.85C57.4125 31.0319 57.2699 31.2509 57.1778 31.4924C57.0857 31.7339 57.0464 31.9923 57.0623 32.2503L57.4148 37.9617L51.0499 39.0178C50.6193 39.0893 50.2289 39.3136 49.9503 39.6497C49.6718 39.9859 49.5239 40.4111 49.5337 40.8475L49.7151 48.8939C49.7227 49.2341 49.826 49.5653 50.013 49.8496C50.2 50.1339 50.4632 50.3599 50.7726 50.5016L58.0261 53.8252C58.7065 54.1369 59.5307 53.9895 60.0609 53.4616L65.2735 48.2715L75.5715 46.537L85.9993 51.4092C85.2315 57.1388 83.2845 62.5883 80.2767 67.4708L74.0281 58.9054C73.8641 58.6806 73.6507 58.4965 73.4042 58.3675C73.1577 58.2384 72.8848 58.1678 72.6066 58.1611L59.9733 57.8588C59.5203 57.847 59.0795 58.0062 58.7384 58.3046L52.1499 64.047C51.964 64.209 51.8131 64.4073 51.7064 64.6296C51.5998 64.852 51.5396 65.0937 51.5295 65.3401L51.1668 74.2257C51.1518 74.5936 51.2492 74.9575 51.446 75.2687C51.6429 75.58 51.9298 75.824 52.2687 75.9682L60.0734 79.2894L61.712 83.7008C56.516 85.9958 50.8508 87.2026 44.9999 87.2026C41.4482 87.2026 37.9656 86.7556 34.6141 85.8928ZM74.2551 75.0845C71.4629 77.8767 68.3405 80.218 64.9781 82.0774L63.2015 77.2946C63.1157 77.0636 62.9836 76.8525 62.8134 76.6741C62.6433 76.4958 62.4386 76.354 62.2118 76.2574L54.8418 73.1213L55.1215 66.2678L60.5908 61.501L71.6256 61.765L78.1073 70.6504C76.9284 72.2166 75.6412 73.6983 74.2551 75.0845Z" fill="#386B5B"/>
<path d="M54.6545 26.6698C55.3101 27.9675 57.223 27.9742 57.8867 26.6792L64.2558 14.2534C64.3671 14.0364 64.4334 13.7991 64.4508 13.5559C64.4683 13.3126 64.4364 13.0683 64.3573 12.8377C64.2781 12.607 64.1532 12.3946 63.9901 12.2133C63.827 12.032 63.629 11.8855 63.4079 11.7825L54.454 7.61211C54.2079 7.49742 53.9393 7.43945 53.6678 7.44248C53.3964 7.44551 53.1291 7.50946 52.8857 7.62961C52.6422 7.74976 52.4289 7.92305 52.2614 8.13668C52.0939 8.35031 51.9766 8.59883 51.918 8.86389L50.1508 16.8466C50.0603 17.2552 50.114 17.6827 50.3028 18.0563L54.6545 26.6698ZM54.9704 11.8534L60.1694 14.2748L56.2848 21.8538L53.8314 16.9983L54.9704 11.8534Z" fill="#386B5B"/>
<path d="M85.0002 31.5792C86.0017 31.5792 86.8135 30.7673 86.8135 29.7658C86.8135 28.7643 86.0017 27.9524 85.0002 27.9524C83.9987 27.9524 83.1868 28.7643 83.1868 29.7658C83.1868 30.7673 83.9987 31.5792 85.0002 31.5792Z" fill="#386B5B"/>
</g>
<defs>
<clipPath id="clip0_2442_90">
<rect width="90" height="90" fill="white" transform="translate(0 0.829346)"/>
</clipPath>
</defs>
</svg>
