<svg width="90" height="91" viewBox="0 0 90 91" fill="none" xmlns="http://www.w3.org/2000/svg">
<g clip-path="url(#clip0_2377_307)">
<path d="M2.69234 59.6585L13.1541 67.217C13.4296 67.4098 13.7415 67.5443 14.0708 67.6123C14.4001 67.6803 14.7398 67.6804 15.0691 67.6126C15.4 67.5441 15.7137 67.4099 15.9917 67.2177C16.2696 67.0255 16.506 66.7794 16.6869 66.494L17.4249 65.3275L18.1688 68.3781C18.6857 67.668 19.3431 67.0718 20.1002 66.6265L20.5687 66.3489L19.5935 62.3487C19.5671 62.2481 19.5298 62.1522 19.495 62.0552L26.8569 50.4187C27.2818 50.6745 27.7561 50.8374 28.2485 50.8969C28.7409 50.9563 29.2403 50.9109 29.7139 50.7636L36.9525 48.4435C37.4875 48.2781 38.0523 48.232 38.6071 48.3085C39.1618 48.385 39.693 48.5823 40.1633 48.8864L52.9383 56.9324C53.2197 57.1023 53.4259 57.3729 53.5151 57.6893C53.6042 58.0057 53.5696 58.3442 53.4183 58.636L48.0041 67.7457C47.6481 68.3514 47.0702 68.7945 46.3929 68.9811C45.7156 69.1676 44.9923 69.0828 44.3765 68.7448C44.0175 68.5516 43.7015 68.2874 43.4478 67.9682C43.1941 67.649 43.008 67.2815 42.9009 66.8881C42.7994 66.5365 42.7703 66.1679 42.8155 65.8047C42.8607 65.4415 42.9792 65.0913 43.1639 64.7753L45.7759 60.3808C45.9633 60.0656 46.0202 59.6897 45.9344 59.3332C45.8486 58.9767 45.6269 58.6679 45.3165 58.4726L41.2742 55.9265C41.1154 55.8265 40.9381 55.7593 40.7528 55.7289C40.5676 55.6985 40.3781 55.7055 40.1956 55.7495C40.0131 55.7935 39.8413 55.8735 39.6902 55.9849C39.5391 56.0963 39.4118 56.2369 39.3159 56.3982L37.3137 59.7683C37.2092 59.9446 37.0702 60.098 36.905 60.2193C36.7398 60.3406 36.5519 60.4273 36.3524 60.4742C36.124 60.5272 35.8874 60.5334 35.6565 60.4926C35.4257 60.4518 35.2056 60.3647 35.0093 60.2366L31.8658 58.2563C31.5502 58.0578 31.1687 57.9928 30.8052 58.0754C30.4417 58.1581 30.1258 58.3817 29.927 58.6971C29.7283 59.0125 29.6629 59.3939 29.7452 59.7576C29.8276 60.1212 30.0509 60.4372 30.3662 60.6362L33.5104 62.6165C34.024 62.9456 34.5988 63.1677 35.2003 63.2694C35.8018 63.3711 36.4176 63.3504 37.0109 63.2084C37.5758 63.0748 38.108 62.8286 38.5754 62.4844C39.0429 62.1402 39.4361 61.7052 39.7314 61.2055L40.9969 59.0755L42.6585 60.1219L40.7462 63.3389C40.3673 63.9791 40.1224 64.6896 40.0265 65.4273C39.9305 66.165 39.9855 66.9146 40.188 67.6304C40.3979 68.3869 40.7573 69.0937 41.245 69.7089C41.7327 70.3242 42.3387 70.8355 43.0273 71.2126C44.2818 71.9031 45.756 72.0772 47.1369 71.6981C48.5177 71.319 49.6964 70.4164 50.4224 69.1822L55.8366 60.0725C56.3621 59.1499 56.5099 58.0596 56.2488 57.0304C55.9878 56.0012 55.3383 55.1132 54.4366 54.5525L41.6622 46.5068C40.8449 45.983 39.9225 45.6451 38.9603 45.517C37.9981 45.3889 37.0194 45.4736 36.0935 45.7652L28.8556 48.0857C28.6913 48.133 28.5151 48.116 28.3629 48.0381L29.2985 46.5593C29.6544 46.0012 29.7797 45.3268 29.648 44.6781C29.5163 44.0294 29.1379 43.4572 28.5926 43.0821L10.3361 30.6058C10.0281 30.3959 9.64944 30.3167 9.2832 30.3858C8.91696 30.4549 8.59311 30.6665 8.38277 30.9742C8.17244 31.2819 8.09282 31.6605 8.16141 32.0268C8.22999 32.3931 8.44117 32.7173 8.74856 32.928L26.7929 45.2592L14.4868 64.7108L4.33892 57.3788C4.18924 57.2707 4.01972 57.1931 3.84005 57.1505C3.66039 57.1079 3.47409 57.1011 3.2918 57.1305C3.1095 57.1599 2.93478 57.2249 2.77761 57.3218C2.62045 57.4187 2.48391 57.5456 2.37579 57.6953C2.26767 57.845 2.1901 58.0145 2.1475 58.1942C2.10489 58.3739 2.09809 58.5602 2.12749 58.7424C2.15688 58.9247 2.2219 59.0995 2.31881 59.2566C2.41573 59.4138 2.54266 59.5503 2.69234 59.6585Z" fill="#386B5B"/>
<path d="M13.1463 61.7679C13.7523 61.6912 14.1797 61.1243 14.1008 60.5017C14.022 59.8792 13.4669 59.4367 12.8609 59.5134C12.2549 59.5901 11.8275 60.157 11.9063 60.7796C11.9852 61.4022 12.5403 61.8446 13.1463 61.7679Z" fill="#386B5B"/>
<path d="M73.9769 63.1186C73.8957 63.4052 73.931 63.7123 74.0751 63.9731C74.2191 64.2339 74.4603 64.4272 74.7461 64.5112C74.8881 64.5489 75.0362 64.5581 75.1818 64.5382C75.3274 64.5183 75.4676 64.4698 75.5943 64.3955C75.721 64.3211 75.8317 64.2224 75.9201 64.105C76.0084 63.9876 76.0726 63.8538 76.109 63.7115C76.1901 63.4248 76.1548 63.1177 76.0107 62.857C75.8667 62.5962 75.6255 62.4028 75.3397 62.3188C75.1977 62.2811 75.0496 62.272 74.904 62.2918C74.7585 62.3117 74.6183 62.3602 74.4916 62.4346C74.3648 62.5089 74.2541 62.6077 74.1658 62.7251C74.0774 62.8425 74.0132 62.9762 73.9769 63.1186ZM69.1472 75.7754L69.6409 75.0928C70.3179 74.152 70.6042 72.9857 70.4398 71.8384C70.2754 70.691 69.6731 69.652 68.7593 68.9391L62.4882 64.1388C62.036 63.7895 61.5181 63.5352 60.9653 63.3909C60.4125 63.2466 59.8363 63.2153 59.2712 63.299C58.6996 63.3824 58.1507 63.5804 57.6574 63.881C57.1641 64.1817 56.7365 64.5788 56.4004 65.0486L55.9067 65.7311C55.2775 66.6045 54.9858 67.676 55.0853 68.7478C55.0407 68.7529 54.9962 68.7541 54.9515 68.7606C54.3646 68.8462 53.8009 69.0494 53.2944 69.358C52.7879 69.6667 52.3489 70.0745 52.0038 70.5569L51.5636 71.1639C51.1163 71.7829 50.8321 72.5046 50.7372 73.2624C49.9529 73.1574 49.1548 73.2685 48.429 73.5837C47.7031 73.8988 47.0771 74.4062 46.6184 75.051L46.2243 75.5941C45.604 76.4548 45.3044 77.5054 45.3774 78.5638C45.3259 78.5692 45.2753 78.5633 45.2238 78.5707C44.7185 78.6441 44.2332 78.8188 43.797 79.0843C43.3608 79.3497 42.9827 79.7005 42.6853 80.1157L42.5892 80.2482C41.9922 81.0793 41.7401 82.1092 41.8856 83.1221C42.0312 84.135 42.5631 85.0522 43.3699 85.6816L49.0718 90.0459C49.7291 90.5536 50.536 90.8293 51.3666 90.83C51.5518 90.8298 51.7367 90.8163 51.92 90.7895C52.4262 90.7159 52.9123 90.5407 53.3491 90.2745C53.7859 90.0083 54.1644 89.6566 54.4619 89.2405L54.5546 89.1121C54.8523 88.7002 55.0665 88.234 55.1852 87.7399C55.6247 87.8874 56.0851 87.9629 56.5487 87.9633C56.7619 87.9633 56.9748 87.9479 57.1859 87.9173C57.7689 87.8323 58.3288 87.6304 58.8319 87.3237C59.335 87.0171 59.771 86.612 60.1137 86.1327L60.5051 85.5909C60.9508 84.9748 61.2335 84.2561 61.327 83.5015C61.5045 83.5272 61.6834 83.5419 61.8626 83.5454C62.5644 83.5458 63.2562 83.3788 63.8805 83.0583C64.5048 82.7378 65.0437 82.273 65.4524 81.7025L65.8905 81.0968C66.2651 80.5758 66.5265 79.9822 66.6579 79.354C66.7892 78.7259 66.7875 78.0772 66.653 77.4497C67.6589 77.2101 68.5445 76.6156 69.1472 75.7754ZM52.275 87.4648L52.183 87.5925C52.1049 87.7031 52.0052 87.7967 51.8901 87.8678C51.7749 87.939 51.6466 87.9862 51.5128 88.0066C51.3842 88.0253 51.2531 88.0177 51.1274 87.9845C51.0017 87.9512 50.8841 87.8928 50.7816 87.8129L45.0797 83.4486C44.8539 83.2659 44.7062 83.0041 44.6666 82.7163C44.6269 82.4286 44.6982 82.1366 44.8661 81.8996L44.9616 81.7677C45.0397 81.6572 45.1393 81.5636 45.2544 81.4924C45.3696 81.4213 45.4979 81.3741 45.6317 81.3537C45.7602 81.3351 45.8911 81.3425 46.0167 81.3757C46.1422 81.4088 46.2598 81.467 46.3623 81.5466L52.0649 85.9123C52.291 86.0957 52.4386 86.3584 52.4776 86.6469C52.5167 86.9354 52.4442 87.2279 52.275 87.4648ZM58.2268 83.9416L57.8347 84.4841C57.7115 84.6579 57.5545 84.8051 57.373 84.9169C57.1915 85.0286 56.9894 85.1026 56.7787 85.1343C56.5741 85.1642 56.3656 85.1524 56.1657 85.0996C55.9659 85.0469 55.7787 84.9543 55.6155 84.8274L48.8342 79.637C48.4806 79.3582 48.2485 78.9535 48.1865 78.5074C48.1246 78.0614 48.2376 77.6087 48.5019 77.2441L48.896 76.7009C49.0193 76.5271 49.1763 76.3799 49.3578 76.2682C49.5392 76.1564 49.7414 76.0825 49.9521 76.0507C50.1565 76.0204 50.3649 76.0319 50.5648 76.0846C50.7646 76.1372 50.9516 76.2299 51.1146 76.3569L51.903 76.9605C52.0765 77.1512 52.2662 77.3265 52.47 77.4844L58.213 81.8799C58.4334 82.1778 58.5536 82.538 58.5561 82.9085C58.5586 83.2791 58.4433 83.6409 58.2268 83.9416ZM63.6129 79.4469L63.1741 80.0532C63.0485 80.2303 62.8883 80.3803 62.7033 80.4942C62.5183 80.6081 62.3123 80.6834 62.0975 80.7158C61.8888 80.7463 61.6762 80.7343 61.4723 80.6806C61.2684 80.6269 61.0775 80.5326 60.9109 80.4033L60.1697 79.836C59.9972 79.6463 59.8084 79.4719 59.6056 79.315L53.8583 74.9154C53.6332 74.6121 53.5102 74.2451 53.5072 73.8674C53.5041 73.4897 53.6211 73.1207 53.8412 72.8138L54.2814 72.2068C54.4071 72.0294 54.5673 71.8792 54.7524 71.7652C54.9375 71.6513 55.1438 71.5758 55.3588 71.5435C55.5672 71.5133 55.7795 71.5253 55.9831 71.579C56.1868 71.6327 56.3775 71.7269 56.5439 71.8559L63.2751 77.0085C63.6356 77.2925 63.8721 77.7051 63.9351 78.1597C63.9981 78.6142 63.8826 79.0756 63.6129 79.4469ZM67.3634 73.4428L66.869 74.126C66.7522 74.2907 66.6034 74.4302 66.4315 74.536C66.2596 74.6418 66.0681 74.7119 65.8685 74.742C65.6752 74.77 65.4782 74.7587 65.2893 74.7088C65.1004 74.6589 64.9235 74.5714 64.7692 74.4515L58.4981 69.6519C58.1625 69.3873 57.9424 69.003 57.8839 68.5797C57.8254 68.1564 57.933 67.7268 58.1843 67.3811L58.6787 66.6979C58.7954 66.5332 58.9442 66.3938 59.1161 66.288C59.288 66.1821 59.4795 66.1121 59.6791 66.082C59.8724 66.0539 60.0694 66.065 60.2583 66.1148C60.4472 66.1646 60.6241 66.252 60.7784 66.3718L67.0496 71.1721C67.3851 71.4367 67.6053 71.8209 67.6638 72.2443C67.7223 72.6676 67.6146 73.0971 67.3634 73.4428ZM13.877 29.6193C14.8303 24.3965 17.0866 19.4989 20.437 15.3804C22.9326 16.7423 25.5664 17.8341 28.2937 18.6373C26.8622 23.5933 26.0985 28.7182 26.0229 33.8763H20.1062L24.2217 36.6888H26.0372C26.0482 37.109 26.0493 37.5306 26.0671 37.9499L29.0048 39.9575C28.9207 38.8757 28.8735 37.7838 28.8459 36.6888H43.5937V44.2076L46.4062 45.9713V36.6888H61.1586C61.1064 38.9538 60.9252 41.2141 60.6159 43.4586C61.1513 42.6413 61.9008 41.9866 62.7827 41.566L63.7179 41.1124C63.853 39.6539 63.9257 38.1753 63.9613 36.6888H72.8387L78.4818 33.9519L79.4074 33.5029C78.9768 25.168 75.5352 17.2729 69.722 11.2844C63.9088 5.29589 56.1193 1.62126 47.8009 0.943267C39.4825 0.26527 31.2008 2.63001 24.4946 7.5981C17.7884 12.5662 13.1137 19.7998 11.339 27.9549C11.542 28.049 11.7372 28.159 11.9229 28.2839L13.877 29.6193ZM28.8354 33.8763C28.9296 28.9705 29.6865 24.0999 31.0854 19.3969C35.1873 20.3638 39.3802 20.8929 43.5937 20.9753V33.8763H28.8354ZM58.0056 16.7244C54.1988 17.601 50.3119 18.0831 46.4062 18.1631V3.77466C51.1034 4.60911 55.2966 9.56308 58.0056 16.7244ZM43.5937 3.77466V18.1631C39.6881 18.0832 35.8011 17.6011 31.9943 16.7245C34.7033 9.56313 38.8966 4.60911 43.5937 3.77466ZM46.4062 20.9753C50.6198 20.8929 54.8127 20.3639 58.9146 19.3969C60.3135 24.1 61.0703 28.9705 61.1646 33.8763H46.4062V20.9753ZM63.9771 33.8763C63.9014 28.7182 63.1378 23.5934 61.7064 18.6374C64.434 17.834 67.0681 16.742 69.564 15.3797C73.8334 20.6299 76.2977 27.1157 76.5919 33.8763H63.9771ZM67.646 13.2239C65.4658 14.3588 63.1805 15.2791 60.8223 15.9716C59.1458 11.4063 56.8792 7.64369 54.2048 5.01037C59.3056 6.57221 63.9291 9.3975 67.646 13.2239ZM35.7883 5.01736C33.1169 7.6504 30.8528 11.4103 29.1777 15.9718C26.8191 15.2792 24.5335 14.3589 22.3531 13.2237C26.0691 9.40062 30.6904 6.57789 35.7883 5.01736Z" fill="#386B5B"/>
<path d="M20.0308 81.697L20.6227 82.7681C20.6419 82.8031 20.6625 82.8368 20.6845 82.8697C22.0331 84.8851 23.7208 85.3458 25.846 84.2801C25.9354 84.641 26.0721 84.9885 26.2525 85.3135L26.8451 86.3854C27.0996 86.8557 27.4452 87.2707 27.8617 87.6062C28.2782 87.9417 28.7572 88.191 29.271 88.3396C29.711 88.4645 30.1718 88.4993 30.6255 88.4418C31.0793 88.3843 31.5168 88.2358 31.9118 88.0052L33.3634 87.153C33.4282 87.347 33.5107 87.5345 33.6099 87.7134L34.1119 88.6218C34.3327 89.0226 34.6322 89.3747 34.9924 89.6569C35.3527 89.9392 35.7662 90.1457 36.2082 90.2642C36.5141 90.3476 36.8298 90.3896 37.1469 90.3892C37.8128 90.3881 38.4665 90.2097 39.0406 89.8722L41.9699 88.1517L41.6609 87.9152H41.6601C40.9936 87.4032 40.4311 86.7686 40.0027 86.0455L37.6165 87.4469C37.5182 87.508 37.4087 87.5488 37.2944 87.5669C37.1802 87.5849 37.0634 87.5799 36.9511 87.552C36.8718 87.5317 36.7974 87.4955 36.7324 87.4456C36.6675 87.3956 36.6134 87.333 36.5735 87.2615L36.0715 86.3531C35.9977 86.1522 36.0037 85.9307 36.0881 85.7341C36.1725 85.5374 36.329 85.3805 36.5254 85.2956L39.1528 83.7525C38.9466 82.6123 39.0342 81.4383 39.4073 80.3413L30.4877 85.5799C30.4163 85.6198 30.3375 85.6446 30.2561 85.6527C30.1747 85.6609 30.0925 85.6522 30.0146 85.6273C29.8628 85.5784 29.7222 85.5 29.6007 85.3967C29.4792 85.2934 29.3793 85.1671 29.3067 85.0251L28.7134 83.9526C28.5619 83.7347 28.4953 83.469 28.526 83.2055C28.5567 82.942 28.6827 82.6987 28.8803 82.5216L30.4088 81.6235C33.5955 79.7579 37.7353 77.3264 40.3548 75.7822L42.9339 74.2674C43.0028 74.2259 43.0681 74.1784 43.1289 74.1257C42.7006 73.9798 42.2847 73.7997 41.8854 73.587C41.3375 73.2866 40.8238 72.9276 40.3534 72.5163C39.7084 72.8975 38.8007 73.4323 37.7298 74.0621L30.4802 78.32C27.3965 80.1287 24.8071 81.6441 24.5949 81.7608C23.7607 82.1845 23.589 82.1453 23.0555 81.355L22.4924 80.3367C22.3412 80.125 22.2718 79.8656 22.2972 79.6067C22.3226 79.3477 22.441 79.1067 22.6305 78.9284L38.2368 69.7613C38.0033 69.2888 37.814 68.7956 37.6714 68.2882C37.5542 67.8591 37.4702 67.4217 37.4201 66.9798L24.5565 74.5352C24.4607 74.5906 24.3547 74.626 24.2448 74.6395C24.135 74.6529 24.0236 74.6441 23.9172 74.6135C23.7736 74.5701 23.64 74.4987 23.5241 74.4033C23.4083 74.308 23.3125 74.1906 23.2422 74.0581L22.649 72.9855C22.4989 72.7419 22.4468 72.4504 22.5033 72.1699C22.5597 71.8894 22.7205 71.6408 22.9531 71.4742L33.162 65.4255C32.8303 65.2808 32.5093 65.1127 32.2016 64.9222L30.4005 63.7925L21.5243 69.0517C20.6605 69.5906 20.0389 70.4429 19.7898 71.43C19.5407 72.4171 19.6834 73.4623 20.188 74.3465L20.7813 75.419C20.969 75.7586 21.2047 76.0694 21.481 76.3418L21.2063 76.5032C20.3787 77.0505 19.7945 77.8963 19.5754 78.864C19.3564 79.8317 19.5195 80.8466 20.0308 81.697ZM62.7358 47.3572C62.1298 47.1466 61.5094 46.9799 60.8794 46.8586C57.8219 46.3003 54.668 46.6441 51.8026 47.8481L50.2487 48.3807L53.3025 50.2957C55.5458 49.432 57.9827 49.1984 60.3493 49.6203C61.6048 49.8377 62.8003 50.3178 63.8573 51.0293C64.1066 51.2116 64.3429 51.411 64.5645 51.6261L69.008 61.9585C69.0048 62.1069 69.0254 62.2549 69.069 62.3967C69.4416 63.5231 69.5583 64.7183 69.4107 65.8954L70.469 66.7054C70.938 67.0692 71.359 67.4909 71.722 67.9605C72.2427 68.6169 72.6452 69.3589 72.9114 70.1533C73.3322 70.4844 73.853 70.6627 74.3884 70.6591C74.7673 70.6577 75.1411 70.5714 75.4822 70.4064L87.1064 64.6764C87.2721 64.5947 87.42 64.4812 87.5418 64.3423C87.6636 64.2034 87.7568 64.042 87.8161 63.8671C87.8755 63.6922 87.8998 63.5073 87.8878 63.323C87.8757 63.1387 87.8274 62.9586 87.7457 62.7929C87.664 62.6273 87.5505 62.4793 87.4116 62.3576C87.2728 62.2358 87.1113 62.1426 86.9364 62.0832C86.7615 62.0238 86.5766 61.9995 86.3923 62.0116C86.208 62.0237 86.0279 62.072 85.8622 62.1537L74.5511 67.7299L65.4346 46.5314L82.9433 38.0394C83.1099 37.959 83.2589 37.8466 83.382 37.7085C83.505 37.5705 83.5996 37.4095 83.6603 37.2348C83.7211 37.0602 83.7468 36.8753 83.736 36.6907C83.7251 36.5061 83.678 36.3254 83.5973 36.159C83.5166 35.9927 83.4038 35.8439 83.2655 35.7211C83.1272 35.5984 82.9661 35.5041 82.7913 35.4438C82.6165 35.3834 82.4315 35.3581 82.2469 35.3693C82.0624 35.3805 81.8818 35.428 81.7156 35.5091L63.9947 44.1041C63.41 44.384 62.9541 44.8765 62.7202 45.4811C62.4862 46.0856 62.4918 46.7567 62.7358 47.3572Z" fill="#386B5B"/>
</g>
<defs>
<clipPath id="clip0_2377_307">
<rect width="90" height="90" fill="white" transform="translate(0 0.829346)"/>
</clipPath>
</defs>
</svg>
