<svg width="40" height="40" viewBox="0 0 40 40" fill="none" xmlns="http://www.w3.org/2000/svg">
<path d="M31.3835 14.2058C31.1099 13.1885 30.3078 12.3866 29.2906 12.1127C27.4324 11.6042 19.9995 11.6042 19.9995 11.6042C19.9995 11.6042 12.5669 11.6042 10.7087 12.0934C9.71115 12.367 8.88954 13.1887 8.61591 14.2058C8.12689 16.0638 8.12689 19.9172 8.12689 19.9172C8.12689 19.9172 8.12689 23.79 8.61591 25.6286C8.8898 26.6457 9.6916 27.4477 10.7089 27.7216C12.5865 28.2301 19.9998 28.2301 19.9998 28.2301C19.9998 28.2301 27.4324 28.2301 29.2906 27.741C30.3079 27.4672 31.1099 26.6653 31.3837 25.6481C31.8726 23.79 31.8726 19.9367 31.8726 19.9367C31.8726 19.9367 31.8922 16.0638 31.3835 14.2058ZM17.633 23.4771V16.3573L23.8139 19.9172L17.633 23.4771Z" fill="#010D07"/>
</svg>
