<svg width="90" height="91" viewBox="0 0 90 91" fill="none" xmlns="http://www.w3.org/2000/svg">
<path d="M81.6335 63.9185L56.25 54.6882V49.4213C58.3221 48.0777 60.0411 46.2561 61.2624 44.1096C62.4837 41.9632 63.1714 39.5547 63.2677 37.0871L64.2521 36.841C65.6634 36.4882 66.9037 35.6461 67.7523 34.4646C68.6009 33.283 69.0027 31.8387 68.8862 30.3887C68.7696 28.9387 68.1424 27.577 67.116 26.5461C66.0896 25.5153 64.7308 24.882 63.2812 24.7592V18.2948L71.7188 16.6073V26.1419H74.5312V13.4856H74.5297C74.5298 13.474 74.5312 13.4628 74.5312 13.4513C74.5321 12.7456 74.2965 12.0599 73.8622 11.5037C73.4279 10.9474 72.8199 10.5526 72.135 10.3822L45.7673 3.79039C45.2635 3.66492 44.7365 3.66492 44.2327 3.79039L17.865 10.3822C17.168 10.5564 16.5512 10.9627 16.1158 11.5342C15.6805 12.1057 15.4526 12.8083 15.4697 13.5265C15.4867 14.2447 15.7478 14.9357 16.2098 15.4858C16.6718 16.0359 17.3073 16.4124 18.0118 16.5533L26.7188 18.295V24.7593C25.2692 24.8822 23.9104 25.5154 22.884 26.5463C21.8576 27.5772 21.2304 28.9388 21.1138 30.3889C20.9973 31.8389 21.3991 33.2832 22.2477 34.4648C23.0963 35.6463 24.3366 36.4884 25.7479 36.8411L26.7323 37.0872C26.8286 39.5549 27.5164 41.9633 28.7376 44.1097C29.9589 46.2561 31.6779 48.0778 33.75 49.4213V54.688L8.36666 63.9183C6.74096 64.5134 5.33685 65.5926 4.34369 67.0106C3.35054 68.4286 2.81611 70.117 2.8125 71.8482V88.0169H87.1875V71.848C87.1838 70.1169 86.6494 68.4286 85.6563 67.0107C84.6632 65.5928 83.2591 64.5135 81.6335 63.9185ZM26.7188 34.1846L26.4299 34.1125C25.6844 33.9268 25.0261 33.489 24.5665 32.8734C24.107 32.2577 23.8745 31.502 23.9085 30.7345C23.9425 29.967 24.2409 29.2349 24.7531 28.6622C25.2653 28.0896 25.9598 27.7118 26.7188 27.5928V34.1846ZM60.4688 24.7356H29.5312V18.8573L44.3795 21.827C44.7891 21.9093 45.2109 21.9093 45.6205 21.827L60.4688 18.8573V24.7356ZM66.0938 30.88C66.0945 31.6233 65.8465 32.3454 65.3891 32.9312C64.9317 33.517 64.2913 33.9328 63.5701 34.1123L63.2812 34.1844V27.5928C64.0643 27.7168 64.7775 28.1158 65.293 28.7183C65.8084 29.3207 66.0923 30.087 66.0938 30.8799V30.88ZM18.5634 13.7955C18.4851 13.78 18.4145 13.7382 18.3632 13.6772C18.3118 13.6161 18.2828 13.5394 18.281 13.4597C18.2791 13.3799 18.3044 13.3019 18.3528 13.2385C18.4012 13.1751 18.4698 13.1301 18.5472 13.1108L44.9149 6.51905C44.9708 6.50516 45.0292 6.50516 45.0851 6.51905L71.4528 13.1108C71.5302 13.1301 71.5988 13.1751 71.6472 13.2385C71.6956 13.3019 71.7209 13.3799 71.719 13.4597C71.7172 13.5394 71.6882 13.6161 71.6368 13.6772C71.5855 13.7382 71.5149 13.78 71.4366 13.7955L45.0687 19.0689C45.0234 19.0781 44.9766 19.0781 44.9313 19.0689L18.5634 13.7955ZM29.5312 36.4544V27.5481H60.4688V36.4542C60.4732 38.9539 59.7353 41.3986 58.3488 43.4785C56.9622 45.5583 54.9893 47.1797 52.6802 48.137L47.1635 50.4357C45.7781 51.0087 44.2219 51.0087 42.8365 50.4357L37.3198 48.137C35.0107 47.1797 33.0379 45.5584 31.6513 43.4786C30.2647 41.3987 29.5269 38.9541 29.5312 36.4544ZM45 62.7044C45.3633 62.7 45.7213 62.7921 46.0375 62.9711C46.3537 63.1501 46.6168 63.4098 46.8 63.7235C46.9911 64.0421 47.0943 64.4056 47.099 64.7771C47.1037 65.1485 47.0097 65.5146 46.8267 65.8379C46.6437 66.1611 46.3782 66.43 46.0572 66.6171C45.7363 66.8042 45.3715 66.9028 45 66.9028C44.6285 66.9028 44.2637 66.8042 43.9428 66.6171C43.6218 66.43 43.3563 66.1611 43.1733 65.8379C42.9903 65.5146 42.8963 65.1485 42.901 64.7771C42.9057 64.4056 43.0089 64.0421 43.2 63.7235C43.3832 63.4097 43.6463 63.1501 43.9625 62.9711C44.2787 62.792 44.6367 62.7 45 62.7044ZM45.865 59.9689C45.2929 59.8662 44.7071 59.8662 44.135 59.9689L36.5625 54.9204V50.8685L41.7547 53.032C43.8329 53.8912 46.1671 53.8912 48.2453 53.032L53.4375 50.8685V54.9206L45.865 59.9689ZM38.1553 85.2044H5.625V71.848C5.62743 70.6939 5.98371 69.5684 6.64579 68.6231C7.30787 67.6779 8.24391 66.9584 9.32766 66.5617L11.4817 65.7784L39.0547 78.9084L38.1553 85.2044ZM39.4713 75.9918L15.1907 64.4297L27.7107 59.8769L40.6633 67.6486L39.4713 75.9918ZM40.7881 62.2765C40.4603 62.8228 40.2416 63.4275 40.1442 64.0572L31.1143 58.6392L34.9682 57.2379L41.3619 61.5003C41.146 61.7399 40.9539 61.9999 40.7881 62.2765ZM40.9964 85.2044L43.2545 69.3981C44.3797 69.8213 45.6203 69.8213 46.7455 69.3981L49.0036 85.2044H40.9964ZM48.6381 61.5003L55.0318 57.2379L58.8857 58.6392L49.8558 64.0572C49.7584 63.4275 49.5397 62.8228 49.2119 62.2765C49.0461 61.9999 48.854 61.7399 48.6381 61.5003ZM49.3367 67.6486L62.2893 59.8769L74.8093 64.4297L50.5287 75.9918L49.3367 67.6486ZM84.375 85.2044H51.8447L50.9453 78.9084L78.5183 65.7784L80.6725 66.5617C81.7562 66.9584 82.6922 67.6779 83.3543 68.6232C84.0163 69.5684 84.3726 70.6939 84.375 71.848V85.2044Z" fill="#386B5B"/>
</svg>
