<svg width="40" height="40" viewBox="0 0 40 40" fill="none" xmlns="http://www.w3.org/2000/svg">
<path d="M28.4052 20.6014C27.9686 20.0764 28.0935 19.8429 28.4052 19.3736C28.4108 19.3682 32.0143 14.6261 32.3855 13.0179L32.3878 13.0168C32.5723 12.4307 32.3878 12 31.4956 12H28.5435C27.792 12 27.4455 12.3696 27.2599 12.7832C27.2599 12.7832 25.7568 16.2096 23.6305 18.4307C22.9442 19.0725 22.627 19.2782 22.2523 19.2782C22.0678 19.2782 21.7809 19.0725 21.7809 18.4864V13.0168C21.7809 12.3139 21.5705 12 20.9484 12H16.3065C15.8351 12 15.555 12.3279 15.555 12.6332C15.555 13.2996 16.6181 13.4529 16.7284 15.3279V19.3961C16.7284 20.2875 16.5585 20.4514 16.1816 20.4514C15.1781 20.4514 12.7424 17.0111 11.2989 13.0736C11.0075 12.3096 10.7229 12.0011 9.96576 12.0011H7.01254C6.16988 12.0011 6 12.3707 6 12.7843C6 13.515 7.00353 17.1482 10.6667 21.9482C13.108 25.2246 16.5461 27 19.6737 27C21.5537 27 21.7832 26.6057 21.7832 25.9275C21.7832 22.7968 21.6133 22.5011 22.5549 22.5011C22.9915 22.5011 23.743 22.7068 25.498 24.2871C27.504 26.1611 27.8336 27 28.9564 27H31.9085C32.7501 27 33.1764 26.6057 32.9312 25.8279C32.3698 24.1918 28.5762 20.8264 28.4052 20.6014Z" fill="#010D07"/>
</svg>
