<svg width="60" height="60" viewBox="0 0 60 60" fill="none" xmlns="http://www.w3.org/2000/svg">
<g clip-path="url(#clip0_2300_1786)">
<path d="M15.7913 48.53H2.80627C2.10877 48.53 1.87502 48.53 1.87502 47.2663V44.26C1.87502 44.0114 1.77625 43.7729 1.60043 43.5971C1.42462 43.4213 1.18616 43.3225 0.937522 43.3225C0.688881 43.3225 0.450424 43.4213 0.274609 43.5971C0.0987937 43.7729 2.16655e-05 44.0114 2.16655e-05 44.26V47.2663C-0.0706407 47.6655 -0.049708 48.0756 0.0612404 48.4656C0.172189 48.8555 0.370255 49.2152 0.640497 49.5175C0.910738 49.8197 1.2461 50.0567 1.62127 50.2104C1.99644 50.3642 2.40163 50.4307 2.80627 50.405H15.7913C16.0399 50.405 16.2784 50.3062 16.4542 50.1304C16.63 49.9546 16.7288 49.7161 16.7288 49.4675C16.7288 49.2189 16.63 48.9804 16.4542 48.8046C16.2784 48.6288 16.0399 48.53 15.7913 48.53ZM0.937522 41.3088C1.18616 41.3088 1.42462 41.21 1.60043 41.0342C1.77625 40.8583 1.87502 40.6199 1.87502 40.3713V9.38125L30.25 9.43V25.0612C30.25 25.3099 30.3488 25.5483 30.5246 25.7242C30.7004 25.9 30.9389 25.9987 31.1875 25.9987C31.4362 25.9987 31.6746 25.9 31.8504 25.7242C32.0263 25.5483 32.125 25.3099 32.125 25.0612V9.43C32.1297 8.92298 31.9328 8.43486 31.5777 8.07295C31.2226 7.71103 30.7383 7.50495 30.2313 7.5H2.67002L6.95752 3.875H34.2075C34.6053 3.875 34.9869 4.03304 35.2682 4.31434C35.5495 4.59564 35.7075 4.97718 35.7075 5.375V24.4C35.7075 24.6486 35.8063 24.8871 35.9821 25.0629C36.1579 25.2387 36.3964 25.3375 36.645 25.3375C36.8937 25.3375 37.1321 25.2387 37.3079 25.0629C37.4838 24.8871 37.5825 24.6486 37.5825 24.4V5.375C37.5825 4.47989 37.2269 3.62145 36.594 2.98851C35.9611 2.35558 35.1026 2 34.2075 2H6.61502C6.39353 1.99987 6.17917 2.07826 6.01002 2.22125L0.441272 6.93875C0.309622 7.07377 0.206716 7.23409 0.138772 7.41C0.0517407 7.54979 0.00382377 7.71038 2.16655e-05 7.875V40.375C0.00101363 40.623 0.100223 40.8605 0.275931 41.0355C0.451639 41.2105 0.68953 41.3088 0.937522 41.3088Z" fill="#BACEC7"/>
<path d="M33.9275 24.7262C34.1761 24.7262 34.4146 24.6275 34.5904 24.4517C34.7662 24.2758 34.865 24.0374 34.865 23.7887V7.54999C34.864 6.81154 34.5706 6.10354 34.0489 5.58091C33.5272 5.05827 32.8197 4.76356 32.0812 4.76124L8.64874 4.71249C8.4001 4.71249 8.16165 4.81127 7.98583 4.98708C7.81001 5.1629 7.71124 5.40135 7.71124 5.64999C7.71124 5.89863 7.81001 6.13709 7.98583 6.31291C8.16165 6.48872 8.4001 6.58749 8.64874 6.58749L32.0825 6.63624C32.3245 6.6369 32.5564 6.73343 32.7274 6.90468C32.8985 7.07593 32.9947 7.30797 32.995 7.54999V23.7887C32.995 24.0365 33.0931 24.2742 33.2678 24.4499C33.4425 24.6256 33.6797 24.7249 33.9275 24.7262ZM46.84 42.5737C46.5914 42.5737 46.3529 42.6725 46.1771 42.8483C46.0013 43.0241 45.9025 43.2626 45.9025 43.5112V51.3062C45.9042 51.4892 45.8613 51.6698 45.7775 51.8325C45.25 52.8387 42.75 56.125 32.75 56.125C22.75 56.125 20.25 52.8425 19.7162 51.835C19.6326 51.6727 19.5897 51.4925 19.5912 51.31V43.9087C19.5912 43.6601 19.4925 43.4216 19.3167 43.2458C19.1408 43.07 18.9024 42.9712 18.6537 42.9712C18.4051 42.9712 18.1666 43.07 17.9908 43.2458C17.815 43.4216 17.7162 43.6601 17.7162 43.9087V51.3062C17.7136 51.7927 17.8286 52.2725 18.0512 52.705C18.8937 54.2962 22 58 32.75 58C43.5 58 46.605 54.3 47.4412 52.71C47.6657 52.2776 47.7816 51.7971 47.7787 51.31V43.5112C47.7787 43.388 47.7545 43.266 47.7073 43.1522C47.6601 43.0384 47.5909 42.935 47.5037 42.8479C47.4165 42.7608 47.313 42.6918 47.1991 42.6447C47.0853 42.5977 46.9632 42.5736 46.84 42.5737Z" fill="#BACEC7"/>
<path d="M59.3591 34.5489L34.5566 26.2639C34.3672 26.2001 34.1622 26.2001 33.9728 26.2639L6.03407 35.2214C5.84752 35.2828 5.68492 35.4011 5.56917 35.5598C5.45342 35.7184 5.39034 35.9094 5.38882 36.1058C5.3873 36.3022 5.44742 36.4941 5.5607 36.6545C5.67399 36.815 5.83474 36.9358 6.02032 37.0001L32.1453 45.8301C32.242 45.8628 32.3433 45.8797 32.4453 45.8801C32.5527 45.8799 32.6592 45.8613 32.7603 45.8251L51.9366 38.9776V43.4776C51.2902 43.6728 50.7235 44.0703 50.32 44.6118C49.9165 45.1532 49.6976 45.8099 49.6953 46.4851V48.3751C49.6953 49.2132 50.0282 50.0169 50.6209 50.6096C51.2135 51.2022 52.0172 51.5351 52.8553 51.5351C53.6934 51.5351 54.4972 51.2022 55.0898 50.6096C55.6824 50.0169 56.0153 49.2132 56.0153 48.3751V46.4826C56.0136 45.8135 55.7992 45.1622 55.403 44.623C55.0069 44.0837 54.4496 43.6843 53.8116 43.4826V38.3076L59.3753 36.3214C59.5591 36.2558 59.7178 36.1345 59.8294 35.9745C59.941 35.8144 59.9999 35.6235 59.9978 35.4284C59.9958 35.2333 59.9329 35.0437 59.8179 34.886C59.703 34.7284 59.5417 34.6105 59.3566 34.5489H59.3591ZM54.1353 48.3751C54.1353 48.7159 53.9999 49.0428 53.7589 49.2837C53.518 49.5247 53.1911 49.6601 52.8503 49.6601C52.5095 49.6601 52.1827 49.5247 51.9417 49.2837C51.7007 49.0428 51.5653 48.7159 51.5653 48.3751V46.4826C51.5653 46.3139 51.5986 46.1468 51.6631 45.9909C51.7277 45.835 51.8224 45.6933 51.9417 45.574C52.061 45.4546 52.2027 45.36 52.3586 45.2954C52.5145 45.2308 52.6816 45.1976 52.8503 45.1976C53.0191 45.1976 53.1862 45.2308 53.3421 45.2954C53.498 45.36 53.6396 45.4546 53.7589 45.574C53.8783 45.6933 53.9729 45.835 54.0375 45.9909C54.1021 46.1468 54.1353 46.3139 54.1353 46.4826V48.3751ZM52.7403 36.7001L32.8491 34.5539C32.7251 34.5375 32.5991 34.5461 32.4786 34.5792C32.358 34.6122 32.2453 34.6691 32.147 34.7464C32.0487 34.8237 31.9669 34.9198 31.9063 35.0292C31.8458 35.1386 31.8077 35.259 31.7943 35.3833C31.781 35.5076 31.7927 35.6333 31.8286 35.753C31.8646 35.8728 31.9242 35.9841 32.0038 36.0805C32.0835 36.1769 32.1816 36.2563 32.2924 36.3142C32.4032 36.3721 32.5245 36.4073 32.6491 36.4176L48.6853 38.1476L32.4353 43.9526L9.31782 36.1376L34.2528 28.1376L56.1916 35.4664L52.7403 36.7001Z" fill="#BACEC7"/>
</g>
<defs>
<clipPath id="clip0_2300_1786">
<rect width="60" height="60" fill="white"/>
</clipPath>
</defs>
</svg>
