<svg width="90" height="91" viewBox="0 0 90 91" fill="none" xmlns="http://www.w3.org/2000/svg">
<g clip-path="url(#clip0_2377_312)">
<path d="M23.6869 73.6244H4.20938C3.16313 73.6244 2.8125 73.6244 2.8125 71.7287V67.2194C2.8125 66.8464 2.66434 66.4887 2.40062 66.225C2.1369 65.9613 1.77921 65.8131 1.40625 65.8131C1.03329 65.8131 0.675606 65.9613 0.411883 66.225C0.14816 66.4887 1.97487e-06 66.8464 1.97487e-06 67.2194V71.7287C-0.105992 72.3276 -0.0745926 72.9427 0.0918301 73.5277C0.258253 74.1127 0.555353 74.6522 0.960715 75.1056C1.36608 75.559 1.86911 75.9144 2.43187 76.145C2.99463 76.3756 3.60242 76.4754 4.20938 76.4369H23.6869C24.0598 76.4369 24.4175 76.2887 24.6812 76.025C24.945 75.7613 25.0931 75.4036 25.0931 75.0306C25.0931 74.6576 24.945 74.3 24.6812 74.0362C24.4175 73.7725 24.0598 73.6244 23.6869 73.6244ZM1.40625 62.7925C1.77921 62.7925 2.1369 62.6443 2.40062 62.3806C2.66434 62.1169 2.8125 61.7592 2.8125 61.3862V14.9012L45.375 14.9743V38.4212C45.375 38.7942 45.5232 39.1519 45.7869 39.4156C46.0506 39.6793 46.4083 39.8275 46.7813 39.8275C47.1542 39.8275 47.5119 39.6793 47.7756 39.4156C48.0393 39.1519 48.1875 38.7942 48.1875 38.4212V14.9743C48.1945 14.2138 47.8992 13.4816 47.3665 12.9388C46.8339 12.3959 46.1074 12.0868 45.3469 12.0793H4.005L10.4363 6.64185H51.3113C51.908 6.64185 52.4803 6.8789 52.9022 7.30086C53.3242 7.72281 53.5613 8.29511 53.5613 8.89185V37.4293C53.5613 37.8023 53.7094 38.16 53.9731 38.4237C54.2369 38.6874 54.5945 38.8356 54.9675 38.8356C55.3405 38.8356 55.6982 38.6874 55.9619 38.4237C56.2256 38.16 56.3738 37.8023 56.3738 37.4293V8.89185C56.3738 7.54919 55.8404 6.26152 54.891 5.31212C53.9416 4.36271 52.6539 3.82935 51.3113 3.82935H9.9225C9.59027 3.82914 9.26872 3.94673 9.015 4.16122L0.661877 11.2375C0.464403 11.44 0.310043 11.6805 0.208127 11.9443C0.0775805 12.154 0.00570513 12.3949 1.97487e-06 12.6418V61.3918C0.00148993 61.7638 0.150305 62.1201 0.413866 62.3826C0.677428 62.6451 1.03426 62.7925 1.40625 62.7925Z" fill="#386B5B"/>
<path d="M50.8913 37.9187C51.2642 37.9187 51.6219 37.7705 51.8856 37.5068C52.1494 37.2431 52.2975 36.8854 52.2975 36.5124V12.1543C52.296 11.0466 51.8559 9.98464 51.0733 9.20069C50.2908 8.41674 49.2296 7.97467 48.1219 7.9712L12.9731 7.89807C12.6002 7.89807 12.2425 8.04623 11.9788 8.30995C11.7151 8.57368 11.5669 8.93136 11.5669 9.30432C11.5669 9.67728 11.7151 10.035 11.9788 10.2987C12.2425 10.5624 12.6002 10.7106 12.9731 10.7106L48.1238 10.7837C48.4868 10.7847 48.8347 10.9295 49.0912 11.1864C49.3477 11.4432 49.492 11.7913 49.4925 12.1543V36.5124C49.4925 36.8841 49.6396 37.2407 49.9017 37.5042C50.1638 37.7677 50.5196 37.9167 50.8913 37.9187ZM70.26 64.6899C69.8871 64.6899 69.5294 64.8381 69.2656 65.1018C69.0019 65.3656 68.8538 65.7232 68.8538 66.0962V77.7887C68.8564 78.0632 68.792 78.3341 68.6663 78.5781C67.875 80.0874 64.125 85.0168 49.125 85.0168C34.125 85.0168 30.375 80.0931 29.5744 78.5818C29.4489 78.3384 29.3846 78.0682 29.3869 77.7943V66.6924C29.3869 66.3195 29.2387 65.9618 28.975 65.6981C28.7113 65.4344 28.3536 65.2862 27.9806 65.2862C27.6077 65.2862 27.25 65.4344 26.9863 65.6981C26.7226 65.9618 26.5744 66.3195 26.5744 66.6924V77.7887C26.5705 78.5183 26.7429 79.2381 27.0769 79.8868C28.3406 82.2737 33 87.8293 49.125 87.8293C65.25 87.8293 69.9075 82.2793 71.1619 79.8943C71.4986 79.2458 71.6724 78.525 71.6681 77.7943V66.0962C71.6681 65.9114 71.6317 65.7284 71.5609 65.5576C71.4901 65.3869 71.3864 65.2318 71.2556 65.1012C71.1248 64.9706 70.9696 64.867 70.7987 64.7965C70.6279 64.7259 70.4448 64.6897 70.26 64.6899Z" fill="#386B5B"/>
<path d="M89.0385 52.6526L51.8348 40.2251C51.5507 40.1295 51.2432 40.1295 50.9592 40.2251L9.05104 53.6614C8.77121 53.7535 8.52732 53.931 8.35369 54.169C8.18006 54.407 8.08545 54.6935 8.08317 54.9881C8.08089 55.2826 8.17107 55.5705 8.34099 55.8112C8.51092 56.0518 8.75204 56.2331 9.03042 56.3295L48.2179 69.5745C48.3629 69.6235 48.5149 69.6488 48.6679 69.6495C48.829 69.6492 48.9888 69.6213 49.1404 69.567L77.9048 59.2958V66.0458C76.9352 66.3385 76.0852 66.9349 75.48 67.747C74.8747 68.5592 74.5463 69.5442 74.5429 70.557V73.392C74.5429 74.6491 75.0423 75.8548 75.9312 76.7437C76.8201 77.6326 78.0258 78.132 79.2829 78.132C80.54 78.132 81.7457 77.6326 82.6346 76.7437C83.5235 75.8548 84.0229 74.6491 84.0229 73.392V70.5533C84.0203 69.5496 83.6987 68.5727 83.1045 67.7638C82.5103 66.9549 81.6743 66.3559 80.7173 66.0533V58.2908L89.0629 55.3114C89.3386 55.2131 89.5767 55.0312 89.7441 54.7911C89.9115 54.551 89.9998 54.2647 89.9967 53.972C89.9936 53.6793 89.8992 53.3949 89.7268 53.1584C89.5544 52.9219 89.3125 52.7451 89.0348 52.6526H89.0385ZM81.2029 73.392C81.2029 73.9032 80.9998 74.3935 80.6384 74.755C80.2769 75.1164 79.7866 75.3195 79.2754 75.3195C78.7642 75.3195 78.2739 75.1164 77.9125 74.755C77.551 74.3935 77.3479 73.9032 77.3479 73.392V70.5533C77.3479 70.3001 77.3978 70.0495 77.4946 69.8157C77.5915 69.5818 77.7335 69.3693 77.9125 69.1903C78.0914 69.0113 78.3039 68.8694 78.5378 68.7725C78.7716 68.6756 79.0223 68.6258 79.2754 68.6258C79.5285 68.6258 79.7792 68.6756 80.013 68.7725C80.2469 68.8694 80.4594 69.0113 80.6384 69.1903C80.8173 69.3693 80.9593 69.5818 81.0562 69.8157C81.1531 70.0495 81.2029 70.3001 81.2029 70.5533V73.392ZM79.1104 55.8795L49.2735 52.6601C49.0876 52.6356 48.8987 52.6485 48.7178 52.6981C48.5369 52.7477 48.3678 52.833 48.2204 52.9489C48.073 53.0649 47.9503 53.2091 47.8594 53.3732C47.7686 53.5372 47.7115 53.7178 47.6915 53.9043C47.6715 54.0907 47.6889 54.2793 47.7429 54.4589C47.7969 54.6385 47.8862 54.8055 48.0057 54.9501C48.1251 55.0947 48.2723 55.2139 48.4385 55.3007C48.6047 55.3876 48.7866 55.4403 48.9735 55.4558L73.0279 58.0508L48.6529 66.7583L13.9767 55.0358L51.3792 43.0358L84.2873 54.0289L79.1104 55.8795Z" fill="#386B5B"/>
</g>
<defs>
<clipPath id="clip0_2377_312">
<rect width="90" height="90" fill="white" transform="translate(0 0.829346)"/>
</clipPath>
</defs>
</svg>
