<svg width="150" height="50" viewBox="0 0 150 50" fill="none" xmlns="http://www.w3.org/2000/svg">
<g clip-path="url(#clip0_2382_335)">
<path d="M43.5811 30.132H25.691V32.6822H43.5811C44.043 32.6822 44.486 32.8555 44.8125 33.1639C45.1392 33.4723 45.3226 33.8906 45.3226 34.3267C45.3226 34.7629 45.1392 35.1811 44.8125 35.4896C44.486 35.798 44.043 35.9712 43.5811 35.9712H25.691V38.5215H43.5811C44.7388 38.4918 45.8386 38.0367 46.6463 37.2529C47.454 36.4692 47.906 35.4188 47.906 34.3252C47.906 33.2316 47.454 32.1811 46.6463 31.3974C45.8386 30.6137 44.7388 30.1586 43.5811 30.1289V30.132Z" fill="#2D79BE"/>
<path d="M43.6859 49.9984H25.7991V47.4482H43.6859C47.3697 47.4482 50.9025 46.0663 53.5074 43.6067C56.1122 41.1469 57.5756 37.8109 57.5756 34.3323C57.5756 30.8537 56.1122 27.5177 53.5074 25.058C50.9025 22.5983 47.3697 21.2164 43.6859 21.2164H25.8187V18.6631H43.6859C48.0863 18.6631 52.3066 20.3138 55.4182 23.2521C58.5298 26.1903 60.278 30.1755 60.278 34.3307C60.278 38.4861 58.5298 42.4712 55.4182 45.4095C52.3066 48.3477 48.0863 49.9984 43.6859 49.9984Z" fill="#2D79BE"/>
<path d="M124.396 49.9999H114.902V47.4497H124.396C130.336 47.2599 135.965 44.8985 140.096 40.8635C144.227 36.8286 146.536 31.4359 146.536 25.8238C146.536 20.2115 144.227 14.8189 140.096 10.784C135.965 6.74907 130.336 4.38754 124.396 4.19785H114.902V1.64453H124.396C131.186 1.64453 137.699 4.19181 142.501 8.72597C147.302 13.2602 150 19.4099 150 25.8222C150 32.2346 147.302 38.3842 142.501 42.9184C137.699 47.4526 131.186 49.9999 124.396 49.9999Z" fill="#2D79BE"/>
<path d="M123.872 38.508H114.902V13.2686H123.872C127.416 13.2686 130.815 14.5979 133.321 16.9643C135.827 19.3307 137.235 22.5402 137.235 25.8867C137.235 29.2333 135.827 32.4428 133.321 34.8092C130.815 37.1755 127.416 38.5049 123.872 38.5049V38.508ZM117.597 35.9578H123.872C126.667 35.9115 129.331 34.8307 131.29 32.9478C133.249 31.0651 134.347 28.531 134.347 25.8913C134.347 23.2517 133.249 20.7177 131.29 18.8348C129.331 16.9521 126.667 15.8711 123.872 15.825H117.597V35.9578Z" fill="#2D79BE"/>
<path d="M136.181 0.670512C135.333 0.573135 134.472 0.681102 133.681 0.984253C132.889 1.28741 132.192 1.77577 131.656 2.40339C131.119 3.03102 130.761 3.77726 130.613 4.57187C130.467 5.36649 130.536 6.18336 130.815 6.94561C131.051 7.62393 131.451 8.24058 131.985 8.74581C132.52 9.25104 133.172 9.6308 133.889 9.85445C134.554 10.0757 135.262 10.1622 135.965 10.1084C136.668 10.0547 137.351 9.86175 137.969 9.54223C138.588 9.22271 139.129 8.78383 139.556 8.25399C139.984 7.7242 140.288 7.11538 140.45 6.46715C140.611 5.81892 140.627 5.1458 140.495 4.49157C140.363 3.83734 140.087 3.21666 139.684 2.6699C139.281 2.12314 138.762 1.66254 138.158 1.31806C137.554 0.973586 136.881 0.752954 136.181 0.670512Z" fill="#3CB772"/>
<path d="M80.4187 1.31299C74.0097 1.31145 67.8382 3.60341 63.1473 7.72719L65.2851 9.33773C68.4974 6.62637 72.4596 4.83295 76.7099 4.16645C80.9603 3.49995 85.324 3.98782 89.2919 5.57319C93.2598 7.15856 96.6687 9.77614 99.1215 13.1209C101.575 16.4657 102.97 20.3998 103.146 24.4649C103.322 28.53 102.272 32.5586 100.115 36.0813C97.9601 39.6039 94.7883 42.4756 90.9704 44.3614C87.1534 46.2473 82.8464 47.0699 78.5526 46.7332C74.2588 46.3965 70.1549 44.9144 66.7188 42.4597L64.8562 44.3144C68.0555 46.6527 71.7995 48.2364 75.7772 48.9339C79.7548 49.6314 83.8509 49.4228 87.7266 48.3252C91.6014 47.2276 95.1436 45.2728 98.0573 42.6231C100.972 39.9735 103.175 36.7054 104.483 33.0904C105.791 29.4754 106.167 25.6178 105.58 21.8381C104.992 18.0583 103.458 14.4655 101.105 11.358C98.752 8.2506 95.6472 5.71812 92.0497 3.97105C88.4514 2.22399 84.4643 1.31274 80.4187 1.31299Z" fill="#2D79BE"/>
<path d="M80.4186 15.0952C82.516 15.0972 84.5682 15.6727 86.3263 16.7523C88.0852 17.8319 89.4746 19.3692 90.3277 21.1787H80.4186V23.7628H93.8565C93.5716 21.5722 92.6908 19.4885 91.2998 17.7148C89.9079 15.9412 88.0542 14.5382 85.9182 13.6426C83.7815 12.747 81.4359 12.3892 79.1096 12.6043C76.7833 12.8193 74.5557 13.5997 72.6438 14.8695L74.8666 16.5419C76.544 15.5929 78.4632 15.0929 80.4186 15.0952Z" fill="#2D79BE"/>
<path d="M80.4187 26.939V29.4892H90.3243C89.7084 30.803 88.8058 31.9795 87.6754 32.9418C86.5458 33.9042 85.2134 34.6309 83.7663 35.0745C82.319 35.5181 80.7888 35.6687 79.2757 35.5164C77.7626 35.3642 76.3004 34.9125 74.9846 34.1909L73.0891 36.0858C75.0124 37.2584 77.2192 37.951 79.5032 38.0989C81.7872 38.2467 84.0737 37.8449 86.1486 36.931C88.2226 36.017 90.0184 34.6209 91.3659 32.8734C92.7134 31.1259 93.569 29.084 93.853 26.939H80.4187Z" fill="#2D79BE"/>
<path d="M101.972 39.6204C104.116 39.6204 105.854 37.979 105.854 35.9542C105.854 33.9295 104.116 32.2881 101.972 32.2881C99.8279 32.2881 98.0891 33.9295 98.0891 35.9542C98.0891 37.979 99.8279 39.6204 101.972 39.6204Z" fill="white"/>
<path d="M39.021 32.6869H25.691V30.1336H39.021C42.7048 30.1336 46.2377 28.7517 48.8425 26.292C51.4474 23.8323 52.9108 20.4962 52.9108 17.0177C52.9108 13.5391 51.4474 10.203 48.8425 7.74335C46.2377 5.28364 42.7048 3.90179 39.021 3.90179H25.7106V1.35156H39.021C43.4215 1.35157 47.6417 3.00226 50.7534 5.94052C53.865 8.87875 55.6131 12.8639 55.6131 17.0192C55.6131 21.1745 53.865 25.1597 50.7534 28.098C47.6417 31.0362 43.4215 32.6869 39.021 32.6869Z" fill="#3CB772"/>
<path d="M53.7946 16.4435C55.3313 16.4435 56.5772 15.2671 56.5772 13.816C56.5772 12.3648 55.3313 11.1885 53.7946 11.1885C52.2578 11.1885 51.0121 12.3648 51.0121 13.816C51.0121 15.2671 52.2578 16.4435 53.7946 16.4435Z" fill="white"/>
<path d="M38.6282 15.3727H38.8082C39.2701 15.3727 39.7131 15.546 40.0397 15.8544C40.3663 16.1628 40.5498 16.581 40.5498 17.0172C40.5498 17.4533 40.3663 17.8717 40.0397 18.1801C39.7131 18.4885 39.2701 18.6617 38.8082 18.6617H25.8187V21.2119H38.8017C39.9594 21.1822 41.0591 20.7271 41.8669 19.9434C42.6746 19.1597 43.1266 18.1093 43.1266 17.0156C43.1266 15.9221 42.6746 14.8716 41.8669 14.0879C41.0591 13.3042 39.9594 12.849 38.8017 12.8193H25.8187V15.3696H38.6282V15.3727Z" fill="#3CB772"/>
<path d="M17.566 1.31299H0V49.996H17.566V1.31299Z" fill="#3CB772"/>
<path d="M4.25574 40.5322V39.1689H12.2466V40.5322H11.6377C11.8809 40.7634 12.0773 41.0348 12.2171 41.3328C12.337 41.6093 12.3971 41.9057 12.3939 42.2045C12.3951 42.5486 12.3187 42.8889 12.1696 43.2029C12.0206 43.5168 11.8024 43.7971 11.5297 44.0252C10.9484 44.5397 10.1753 44.8164 9.37887 44.7949C8.57893 44.8229 7.79861 44.557 7.20196 44.053C6.93052 43.8273 6.71394 43.5488 6.56704 43.2368C6.42014 42.9246 6.34639 42.5862 6.35083 42.2447C6.34756 41.9261 6.41444 41.6103 6.54724 41.3173C6.68611 41.0192 6.88514 40.7493 7.13321 40.5229L4.25574 40.5322ZM7.66353 41.9664C7.65848 42.1635 7.69825 42.3593 7.78013 42.5406C7.86201 42.7219 7.98411 42.8845 8.1382 43.0175C8.46957 43.3014 8.90558 43.4512 9.35273 43.4348C9.80533 43.4502 10.2463 43.2971 10.5803 43.0082C10.735 42.876 10.8579 42.7141 10.9409 42.5334C11.0239 42.3526 11.065 42.1572 11.0615 41.9603C11.067 41.7609 11.0274 41.5627 10.9457 41.3788C10.8638 41.195 10.7415 41.0296 10.5868 40.8938C10.2486 40.6036 9.80264 40.4514 9.34611 40.4704C9.12354 40.4613 8.9013 40.4941 8.69231 40.5668C8.48323 40.6395 8.29156 40.7507 8.12838 40.8938C7.97725 41.0326 7.85865 41.1998 7.78028 41.3846C7.70189 41.5693 7.66546 41.7676 7.67335 41.9664H7.66353Z" fill="#12122B"/>
<path d="M6.48804 36.4013V35.0381H12.2463V36.4013H6.48804Z" fill="#12122B"/>
<path d="M6.48816 28.2449V26.894H11.4214C12.3948 26.894 13.1106 27.0785 13.5689 27.4474C14.1909 27.9399 14.5018 28.6828 14.5018 29.6762C14.5142 30.1326 14.4422 30.5876 14.2891 31.0208C14.1598 31.3709 13.947 31.6882 13.6671 31.9481C13.3887 32.2009 13.0528 32.3901 12.685 32.5014V30.9961C12.8518 30.8563 12.978 30.6786 13.0517 30.4798C13.1398 30.2405 13.1819 29.9882 13.1761 29.7349C13.1894 29.431 13.1278 29.1283 12.996 28.8508C12.8989 28.6501 12.736 28.4842 12.5312 28.3778C12.2177 28.2672 11.883 28.2208 11.5491 28.2418C11.7837 28.4555 11.9698 28.7121 12.0958 28.9961C12.2111 29.2811 12.2678 29.5843 12.2627 29.8894C12.2693 30.2365 12.1983 30.5811 12.0545 30.9007C11.9107 31.2203 11.6972 31.5076 11.428 31.7441C11.145 31.9955 10.8123 32.1915 10.4487 32.321C10.0852 32.4504 9.69825 32.5107 9.31 32.4983C8.90417 32.5156 8.49892 32.4533 8.11979 32.3156C7.74066 32.1778 7.3958 31.9674 7.10687 31.6978C6.86434 31.4753 6.67158 31.209 6.54 30.9149C6.40843 30.6207 6.3407 30.3046 6.34085 29.9853C6.33921 29.681 6.40152 29.3794 6.52417 29.0981C6.66958 28.7867 6.87367 28.5028 7.12651 28.2604L6.48816 28.2449ZM7.68956 29.6607C7.68349 29.8583 7.7211 30.0549 7.80001 30.238C7.87892 30.4211 7.9974 30.5866 8.14787 30.724C8.30044 30.8633 8.48098 30.9722 8.67892 31.0444C8.87685 31.1166 9.08811 31.1507 9.3002 31.1445C9.51657 31.1513 9.73227 31.1168 9.93422 31.0429C10.1362 30.9691 10.3202 30.8574 10.4754 30.7148C10.6267 30.5746 10.7458 30.4064 10.8253 30.2207C10.9047 30.0352 10.9427 29.8361 10.937 29.6359C10.9419 29.4405 10.9034 29.2462 10.8239 29.0658C10.7444 28.8852 10.6256 28.7225 10.4754 28.588C10.3169 28.4492 10.1309 28.3414 9.92802 28.2708C9.72523 28.2003 9.50961 28.1683 9.29358 28.1769C9.07939 28.1687 8.86562 28.2011 8.66484 28.2723C8.46414 28.3434 8.28054 28.4518 8.12495 28.5911C7.97827 28.7315 7.86388 28.8989 7.78896 29.083C7.71404 29.267 7.6802 29.4637 7.68956 29.6607Z" fill="#12122B"/>
<path d="M6.48804 24.1093V22.7554H12.2463V24.1093H6.48804Z" fill="#12122B"/>
<path d="M4.36694 19.8163V18.45H6.48822V17.6401H7.73217V18.45H12.2464V19.8132H7.73217V20.5118H6.48822V19.8163H4.36694Z" fill="#12122B"/>
<path d="M6.48827 11.3641V10.001H12.2465V11.3641H11.6376C11.8808 11.5954 12.0773 11.8667 12.217 12.1648C12.3369 12.4413 12.397 12.7377 12.3938 13.0365C12.395 13.3805 12.3186 13.7208 12.1696 14.0348C12.0206 14.3488 11.8024 14.6292 11.5296 14.8572C10.9483 15.3718 10.1752 15.6484 9.37886 15.6269C8.57891 15.6549 7.79857 15.389 7.20191 14.885C6.93047 14.6593 6.71389 14.3808 6.56699 14.0687C6.42009 13.7566 6.34634 13.4182 6.35077 13.0767C6.34751 12.758 6.41439 12.4422 6.54719 12.1493C6.68607 11.8511 6.88509 11.5813 7.13316 11.3548L6.48827 11.3641ZM7.67331 12.7985C7.66826 12.9955 7.70802 13.1913 7.7899 13.3726C7.87179 13.5539 7.99389 13.7165 8.14797 13.8495C8.47936 14.1333 8.91536 14.2831 9.36243 14.2668C9.81511 14.2823 10.2561 14.129 10.5901 13.8402C10.7448 13.708 10.8677 13.5461 10.9507 13.3654C11.0337 13.1847 11.0748 12.9893 11.0713 12.7923C11.0768 12.5929 11.0372 12.3947 10.9554 12.2109C10.8736 12.027 10.7513 11.8617 10.5966 11.7258C10.2584 11.4356 9.81243 11.2834 9.35589 11.3023C9.13332 11.2933 8.91109 11.326 8.7021 11.3987C8.49302 11.4714 8.30134 11.5826 8.13815 11.7258C7.98525 11.8638 7.86484 12.0306 7.78474 12.2154C7.70465 12.4002 7.66668 12.5989 7.67331 12.7985Z" fill="#12122B"/>
<path d="M4.25574 7.23626V5.87305H12.2466V7.23626H4.25574Z" fill="#12122B"/>
</g>
<defs>
<clipPath id="clip0_2382_335">
<rect width="150" height="50" fill="white"/>
</clipPath>
</defs>
</svg>
