<svg width="40" height="40" viewBox="0 0 40 40" fill="none" xmlns="http://www.w3.org/2000/svg">
<g clip-path="url(#clip0_2225_58)">
<mask id="mask0_2225_58" style="mask-type:luminance" maskUnits="userSpaceOnUse" x="8" y="8" width="24" height="24">
<path d="M25.89 8.38062H13.8305C10.6756 8.38062 8.1181 10.9381 8.1181 14.093V26.1525C8.1181 29.3074 10.6756 31.8649 13.8305 31.8649H25.89C29.0449 31.8649 31.6024 29.3074 31.6024 26.1525V14.093C31.6024 10.9381 29.0449 8.38062 25.89 8.38062Z" fill="white"/>
</mask>
<g mask="url(#mask0_2225_58)">
<path d="M22.6242 19.5866H15.6861V16.8412H22.6242C23.0295 16.8412 23.3113 16.9118 23.4527 17.0352C23.5941 17.1585 23.6817 17.3873 23.6817 17.7215V18.7073C23.6817 19.0595 23.5941 19.2882 23.4527 19.4116C23.3113 19.535 23.0295 19.5877 22.6242 19.5877V19.5866ZM23.1002 14.2528H12.7437V25.9938H15.6861V22.174H21.1087L23.6817 25.9938H26.9767L24.1398 22.1561C25.1856 22.0011 25.6553 21.6806 26.0426 21.1524C26.4299 20.6241 26.6241 19.7796 26.6241 18.6525V17.7721C26.6241 17.1037 26.5534 16.5755 26.4299 16.1706C26.3065 15.7657 26.0954 15.4136 25.7957 15.0973C25.4791 14.7979 25.1265 14.587 24.7033 14.4457C24.2801 14.3223 23.7513 14.2517 23.1002 14.2517V14.2528Z" fill="#010D07"/>
<path d="M43.3456 8.38081C43.3456 14.8658 38.0884 20.123 31.6034 20.123C30.2849 20.123 29.0172 19.9056 27.8341 19.5049C27.8594 19.2258 27.8705 18.9406 27.8705 18.6527V17.7723C27.8705 17.0248 27.7925 16.3659 27.6222 15.8075C27.4385 15.2053 27.1235 14.687 26.7007 14.2408L26.6773 14.2161L26.6524 14.1926C26.2019 13.7666 25.6913 13.4624 25.0987 13.2646L25.076 13.257L25.0529 13.2503C24.4889 13.0859 23.8377 13.0065 23.1013 13.0065H21.8559V13.0076H20.8079C20.1986 11.5878 19.8613 10.0237 19.8613 8.38081C19.8613 1.8958 25.1184 -3.36133 31.6034 -3.36133C38.0884 -3.36133 43.3456 1.8958 43.3456 8.38081Z" fill="#010D07"/>
</g>
<path d="M25.8899 8.55896H13.8305C10.7741 8.55896 8.29645 11.0366 8.29645 14.093V26.1525C8.29645 29.2088 10.7741 31.6865 13.8305 31.6865H25.8899C28.9463 31.6865 31.424 29.2088 31.424 26.1525V14.093C31.424 11.0366 28.9463 8.55896 25.8899 8.55896Z" stroke="#010D07" stroke-width="0.371567"/>
</g>
<defs>
<clipPath id="clip0_2225_58">
<rect width="24" height="24" fill="white" transform="translate(8 8)"/>
</clipPath>
</defs>
</svg>
