<svg width="90" height="91" viewBox="0 0 90 91" fill="none" xmlns="http://www.w3.org/2000/svg">
<path d="M85.6375 46.0359C82.6803 42.948 78.477 41.381 73.1434 41.3783H51.6933L30.5385 24.4351C28.8119 23.0521 26.2901 23.1481 24.6724 24.6577C23.0347 26.1865 22.761 28.6418 24.0215 30.4955L31.4198 41.3783H11.7705C11.1914 36.7697 10.0296 32.4933 6.62415 30.6736C4.85997 29.726 2.72106 30.0456 1.30205 31.4689C0.474497 32.2988 0 33.4713 0 34.6856V52.3591C0 56.3098 3.21418 59.524 7.16492 59.524H11.7614C12.7505 59.524 13.5526 58.7221 13.5526 57.7328C13.5526 56.7435 12.7505 55.9416 11.7614 55.9416H7.16492C5.18955 55.9416 3.58246 54.3345 3.58246 52.3591V34.6856C3.58246 34.4122 3.67596 34.1615 3.83914 33.9981C4.13201 33.7043 4.57032 33.6368 4.93251 33.8313C7.25466 35.0721 7.96506 39.1384 8.38654 43.348C8.43082 43.7899 8.6377 44.1996 8.96704 44.4976C9.29637 44.7956 9.72467 44.9606 10.1688 44.9606H73.1426C77.4471 44.9628 80.773 46.1505 83.028 48.4908C85.3369 50.8867 86.0759 54.0282 86.3101 55.9417H50.6528C50.3928 55.9418 50.136 55.9983 49.9001 56.1076C49.6642 56.2168 49.4549 56.376 49.2868 56.5742L31.741 77.2593C31.2294 77.8621 30.3304 77.9635 29.6936 77.491C29.1274 77.0707 28.9472 76.2659 29.2649 75.5776L37.1596 58.4839C37.2857 58.2109 37.3411 57.9107 37.3206 57.6107C37.3002 57.3108 37.2045 57.0208 37.0425 56.7676C36.8805 56.5143 36.6574 56.3059 36.3937 56.1615C36.13 56.0172 35.8342 55.9415 35.5335 55.9416H27.8524C26.8633 55.9416 26.0611 56.7435 26.0611 57.7328C26.0611 58.7221 26.8633 59.524 27.8524 59.524H32.7331L26.0124 74.0754C24.9873 76.2955 25.6373 78.9417 27.5583 80.3673C28.4343 81.0182 29.4971 81.3689 30.5885 81.3674C32.0374 81.3674 33.4736 80.754 34.4728 79.5763L51.4821 59.5238H88.205C88.6668 59.5238 89.1108 59.3455 89.4442 59.026C89.7777 58.7066 89.9749 58.2707 89.9946 57.8093C90.0068 57.5272 90.2377 50.8396 85.6375 46.0359ZM35.7517 41.3781L26.9842 28.4811C26.7278 28.1042 26.7852 27.5862 27.1171 27.2763C27.2752 27.1268 27.4821 27.0398 27.6996 27.0315C27.917 27.0231 28.13 27.094 28.2991 27.231L45.9626 41.3781H35.7517ZM7.45259 17.5867H11.2772C11.8796 18.3526 12.6481 18.9716 13.5247 19.397C14.4014 19.8223 15.3632 20.0429 16.3376 20.0421H23.6188C25.3373 20.0421 26.9544 19.3727 28.1753 18.1545C29.3909 16.9363 30.0602 15.3184 30.0602 13.5987C30.0602 10.0468 27.1705 7.15723 23.6186 7.15723H21.8856C20.7066 4.60473 18.1428 2.91882 15.2344 2.91882H7.45259C5.49209 2.91882 3.64999 3.68225 2.26734 5.06758C0.881822 6.45328 0.118759 8.29466 0.118759 10.2528C0.118759 14.2967 3.40871 17.5867 7.45259 17.5867ZM4.80175 7.59967C5.50875 6.89141 6.45022 6.50146 7.45277 6.50146H15.2348C16.9751 6.50146 18.4735 7.67973 18.8787 9.36689C18.9726 9.75811 19.1955 10.1063 19.5115 10.3554C19.8275 10.6044 20.2181 10.7399 20.6205 10.7399H23.619C25.1956 10.7399 26.4781 12.0224 26.4781 13.5989C26.4781 14.363 26.1804 15.0822 25.6424 15.6215C25.3771 15.8879 25.0618 16.0992 24.7145 16.243C24.3672 16.3869 23.9949 16.4606 23.619 16.4598H16.3376C15.82 16.4601 15.312 16.3197 14.868 16.0537C14.424 15.7877 14.0606 15.406 13.8167 14.9494C13.6636 14.6639 13.436 14.4251 13.158 14.2587C12.88 14.0923 12.562 14.0044 12.238 14.0044H7.45259C5.38408 14.0044 3.70122 12.3215 3.70122 10.253C3.70122 9.25154 4.09171 8.30971 4.80175 7.59967Z" fill="#386B5B"/>
<path d="M80.1375 74.9349H77.7639C77.4902 73.8802 76.9606 72.5858 75.968 71.517C74.7511 70.2067 73.0834 69.5141 71.1455 69.5141H59.648C57.8026 69.5141 56.0691 70.2329 54.769 71.5357C53.4636 72.8384 52.7446 74.5721 52.7446 76.4175C52.7446 80.224 55.8414 83.3209 59.648 83.3209H66.97C67.2154 84.468 67.6886 85.9289 68.5891 86.8985C69.7235 88.1203 71.4128 88.7397 73.6099 88.7397H80.1373C83.9439 88.7397 87.0407 85.6428 87.0407 81.8363C87.0407 79.9935 86.3222 78.2603 85.019 76.9572C83.7174 75.6531 81.9837 74.9349 80.1375 74.9349ZM80.1375 85.1574H73.6101C72.4821 85.1574 71.6315 84.91 71.2145 84.461C70.7375 83.9473 70.3739 82.345 70.2945 81.3858C70.2583 80.9371 70.0545 80.5185 69.7236 80.2133C69.3928 79.908 68.9591 79.7386 68.509 79.7386H59.648C57.8168 79.7386 56.327 78.2488 56.327 76.4176C56.3258 75.9811 56.4114 75.5487 56.5788 75.1455C56.7461 74.7424 56.992 74.3765 57.302 74.0692C57.6092 73.7598 57.9747 73.5145 58.3774 73.3476C58.7801 73.1807 59.212 73.0954 59.648 73.0967H71.1455C72.4038 73.0967 73.2597 73.5922 73.8384 74.6558C74.3565 75.6075 74.352 77.4265 74.8874 77.9852C75.2308 78.3434 75.7484 78.5175 76.2466 78.5175H80.1377C81.0258 78.5175 81.8589 78.8621 82.4849 79.4894C83.1127 80.1173 83.4586 80.9509 83.4586 81.8367C83.4584 83.6676 81.9685 85.1574 80.1375 85.1574Z" fill="#386B5B"/>
<path d="M28.5905 51.5677C29.6109 51.5677 30.438 50.7406 30.438 49.7203C30.438 48.6999 29.6109 47.8728 28.5905 47.8728C27.5702 47.8728 26.7431 48.6999 26.7431 49.7203C26.7431 50.7406 27.5702 51.5677 28.5905 51.5677Z" fill="#386B5B"/>
<path d="M35.9808 51.5677C37.0011 51.5677 37.8283 50.7406 37.8283 49.7203C37.8283 48.6999 37.0011 47.8728 35.9808 47.8728C34.9605 47.8728 34.1333 48.6999 34.1333 49.7203C34.1333 50.7406 34.9605 51.5677 35.9808 51.5677Z" fill="#386B5B"/>
<path d="M43.3711 51.5677C44.3914 51.5677 45.2185 50.7406 45.2185 49.7203C45.2185 48.6999 44.3914 47.8728 43.3711 47.8728C42.3507 47.8728 41.5236 48.6999 41.5236 49.7203C41.5236 50.7406 42.3507 51.5677 43.3711 51.5677Z" fill="#386B5B"/>
<path d="M50.7613 51.5679C51.7816 51.5679 52.6088 50.7407 52.6088 49.7204C52.6088 48.7002 51.7816 47.873 50.7613 47.873C49.7409 47.873 48.9137 48.7002 48.9137 49.7204C48.9137 50.7407 49.7409 51.5679 50.7613 51.5679Z" fill="#386B5B"/>
<path d="M58.1516 51.5677C59.1719 51.5677 59.999 50.7406 59.999 49.7203C59.999 48.6999 59.1719 47.8728 58.1516 47.8728C57.1312 47.8728 56.3041 48.6999 56.3041 49.7203C56.3041 50.7406 57.1312 51.5677 58.1516 51.5677Z" fill="#386B5B"/>
<path d="M65.5416 51.5677C66.562 51.5677 67.3891 50.7406 67.3891 49.7203C67.3891 48.6999 66.562 47.8728 65.5416 47.8728C64.5213 47.8728 63.6942 48.6999 63.6942 49.7203C63.6942 50.7406 64.5213 51.5677 65.5416 51.5677Z" fill="#386B5B"/>
<path d="M20.3609 59.5158C21.3375 59.2198 21.8892 58.1883 21.5933 57.2118C21.2974 56.2353 20.2658 55.6837 19.2892 55.9796C18.3127 56.2756 17.7609 57.3071 18.0568 58.2836C18.3528 59.26 19.3843 59.8117 20.3609 59.5158Z" fill="#386B5B"/>
</svg>
