<svg width="60" height="60" viewBox="0 0 60 60" fill="none" xmlns="http://www.w3.org/2000/svg">
<g clip-path="url(#clip0_2300_1795)">
<path d="M1.7949 39.2194L8.76938 44.2584C8.95305 44.3869 9.16101 44.4766 9.38054 44.5219C9.60006 44.5673 9.82653 44.5673 10.0461 44.5221C10.2667 44.4765 10.4758 44.387 10.6611 44.2589C10.8464 44.1308 11.004 43.9667 11.1246 43.7764L11.6166 42.9987L12.1125 45.0324C12.4571 44.559 12.8954 44.1616 13.4001 43.8647L13.7125 43.6797L13.0623 41.0129C13.0447 40.9458 13.0199 40.8819 12.9967 40.8172L17.9046 33.0595C18.1879 33.23 18.504 33.3387 18.8323 33.3783C19.1606 33.4179 19.4935 33.3877 19.8093 33.2895L24.635 31.7427C24.9917 31.6324 25.3682 31.6017 25.738 31.6527C26.1079 31.7038 26.462 31.8353 26.7755 32.038L35.2922 37.402C35.4798 37.5153 35.6173 37.6957 35.6767 37.9066C35.7361 38.1176 35.7131 38.3432 35.6122 38.5377L32.0027 44.6109C31.7654 45.0147 31.3801 45.3101 30.9286 45.4344C30.4771 45.5588 29.9949 45.5023 29.5843 45.2769C29.345 45.1481 29.1343 44.972 28.9652 44.7592C28.7961 44.5464 28.672 44.3014 28.6006 44.0391C28.5329 43.8047 28.5135 43.559 28.5437 43.3169C28.5738 43.0748 28.6528 42.8413 28.7759 42.6306L30.5172 39.7009C30.6422 39.4908 30.6802 39.2402 30.623 39.0026C30.5657 38.7649 30.4179 38.559 30.211 38.4288L27.5162 36.7314C27.4102 36.6647 27.2921 36.62 27.1686 36.5997C27.0451 36.5794 26.9188 36.5841 26.7971 36.6134C26.6754 36.6427 26.5608 36.6961 26.4601 36.7703C26.3594 36.8446 26.2746 36.9383 26.2106 37.0459L24.8758 39.2926C24.8061 39.4102 24.7135 39.5124 24.6034 39.5933C24.4932 39.6742 24.3679 39.7319 24.2349 39.7632C24.0827 39.7985 23.9249 39.8027 23.771 39.7755C23.6172 39.7482 23.4704 39.6902 23.3395 39.6048L21.2439 38.2846C21.0335 38.1523 20.7792 38.1089 20.5368 38.164C20.2944 38.2191 20.0839 38.3682 19.9514 38.5785C19.8189 38.7887 19.7753 39.043 19.8302 39.2854C19.8851 39.5279 20.0339 39.7385 20.2441 39.8712L22.3402 41.1914C22.6827 41.4108 23.0658 41.5589 23.4668 41.6267C23.8678 41.6945 24.2784 41.6807 24.6739 41.586C25.0505 41.497 25.4053 41.3328 25.717 41.1033C26.0286 40.8739 26.2907 40.5839 26.4876 40.2507L27.3312 38.8307L28.439 39.5283L27.1642 41.673C26.9115 42.0998 26.7483 42.5735 26.6843 43.0653C26.6203 43.5571 26.657 44.0568 26.792 44.534C26.9319 45.0383 27.1716 45.5095 27.4967 45.9197C27.8218 46.3299 28.2258 46.6707 28.6848 46.9222C29.5212 47.3825 30.504 47.4986 31.4246 47.2458C32.3452 46.9931 33.1309 46.3914 33.615 45.5685L37.2244 39.4954C37.5748 38.8803 37.6732 38.1535 37.4992 37.4674C37.3252 36.7812 36.8922 36.1892 36.2911 35.8154L27.7748 30.4516C27.2299 30.1024 26.615 29.8772 25.9735 29.7917C25.332 29.7063 24.6796 29.7628 24.0624 29.9572L19.2371 31.5042C19.1275 31.5357 19.0101 31.5244 18.9086 31.4725L19.5323 30.4866C19.7696 30.1146 19.8531 29.6649 19.7653 29.2325C19.6775 28.8 19.4253 28.4186 19.0617 28.1685L6.89072 19.8509C6.68542 19.711 6.43296 19.6582 6.1888 19.7043C5.94464 19.7503 5.72874 19.8914 5.58852 20.0965C5.44829 20.3017 5.39521 20.554 5.44094 20.7983C5.48666 21.0425 5.62745 21.2586 5.83238 21.3991L17.8619 29.6198L9.65788 42.5876L2.89261 37.6996C2.79282 37.6275 2.67981 37.5758 2.56004 37.5474C2.44026 37.519 2.31606 37.5145 2.19453 37.534C2.073 37.5536 1.95652 37.597 1.85174 37.6616C1.74696 37.7262 1.65594 37.8108 1.58386 37.9106C1.51178 38.0104 1.46007 38.1234 1.43166 38.2432C1.40326 38.363 1.39873 38.4872 1.41833 38.6087C1.43792 38.7302 1.48126 38.8467 1.54588 38.9515C1.61049 39.0563 1.69511 39.1473 1.7949 39.2194Z" fill="#BACEC7"/>
<path d="M8.76421 40.6257C9.16821 40.5746 9.45311 40.1966 9.40056 39.7816C9.34802 39.3666 8.97791 39.0716 8.57391 39.1227C8.16991 39.1739 7.88501 39.5518 7.93756 39.9668C7.99011 40.3819 8.36021 40.6769 8.76421 40.6257Z" fill="#BACEC7"/>
<path d="M49.3179 41.5261C49.2638 41.7172 49.2874 41.922 49.3834 42.0958C49.4794 42.2697 49.6402 42.3986 49.8307 42.4546C49.9254 42.4797 50.0241 42.4858 50.1212 42.4725C50.2182 42.4593 50.3117 42.427 50.3962 42.3774C50.4807 42.3278 50.5545 42.262 50.6134 42.1837C50.6723 42.1055 50.7151 42.0163 50.7393 41.9214C50.7934 41.7303 50.7699 41.5256 50.6738 41.3517C50.5778 41.1779 50.417 41.049 50.2265 40.993C50.1318 40.9678 50.0331 40.9617 49.936 40.975C49.839 40.9882 49.7455 41.0206 49.661 41.0701C49.5766 41.1197 49.5027 41.1855 49.4438 41.2638C49.3849 41.3421 49.3421 41.4312 49.3179 41.5261ZM46.0982 49.964L46.4273 49.509C46.8786 48.8818 47.0694 48.1042 46.9599 47.3393C46.8503 46.5745 46.4487 45.8817 45.8395 45.4065L41.6588 42.2063C41.3573 41.9735 41.012 41.8039 40.6435 41.7077C40.275 41.6115 39.8909 41.5906 39.5141 41.6464C39.1331 41.702 38.7671 41.834 38.4383 42.0344C38.1094 42.2349 37.8244 42.4996 37.6002 42.8128L37.2711 43.2678C36.8517 43.8501 36.6572 44.5645 36.7236 45.279C36.6938 45.2824 36.6641 45.2831 36.6344 45.2875C36.2431 45.3445 35.8673 45.48 35.5296 45.6858C35.1919 45.8916 34.8993 46.1634 34.6692 46.485L34.3757 46.8897C34.0775 47.3023 33.888 47.7835 33.8248 48.2887C33.3019 48.2187 32.7699 48.2927 32.286 48.5029C31.8021 48.713 31.3847 49.0512 31.0789 49.4811L30.8162 49.8432C30.4027 50.417 30.2029 51.1174 30.2516 51.823C30.2173 51.8265 30.1836 51.8226 30.1492 51.8276C29.8123 51.8765 29.4888 51.993 29.198 52.1699C28.9072 52.3469 28.6551 52.5808 28.4569 52.8575L28.3928 52.9459C27.9948 53.4999 27.8267 54.1865 27.9237 54.8618C28.0208 55.5371 28.3754 56.1485 28.9132 56.5682L32.7145 59.4777C33.1527 59.8162 33.6907 60 34.2444 60.0004C34.3678 60.0003 34.4911 59.9913 34.6133 59.9734C34.9508 59.9243 35.2749 59.8075 35.5661 59.6301C35.8573 59.4526 36.1096 59.2181 36.308 58.9407L36.3698 58.8551C36.5682 58.5805 36.711 58.2698 36.7901 57.9403C37.0831 58.0387 37.3901 58.089 37.6991 58.0893C37.8413 58.0893 37.9832 58.079 38.1239 58.0586C38.5126 58.0019 38.8858 57.8673 39.2213 57.6629C39.5567 57.4585 39.8473 57.1884 40.0758 56.8689L40.3367 56.5077C40.6338 56.097 40.8223 55.6178 40.8847 55.1147C41.003 55.1319 41.1222 55.1417 41.2417 55.144C41.7096 55.1443 42.1708 55.033 42.587 54.8193C43.0032 54.6056 43.3625 54.2957 43.6349 53.9154L43.927 53.5116C44.1767 53.1643 44.351 52.7685 44.4386 52.3498C44.5261 51.931 44.525 51.4986 44.4353 51.0802C45.1059 50.9205 45.6964 50.5241 46.0982 49.964ZM34.85 57.757L34.7887 57.8421C34.7366 57.9158 34.6702 57.9782 34.5934 58.0257C34.5166 58.0731 34.4311 58.1045 34.3419 58.1181C34.2561 58.1306 34.1687 58.1256 34.0849 58.1034C34.0012 58.0812 33.9227 58.0423 33.8544 57.9891L30.0531 55.0795C29.9026 54.9577 29.8041 54.7831 29.7777 54.5913C29.7513 54.3995 29.7988 54.2048 29.9107 54.0468L29.9744 53.9589C30.0265 53.8852 30.0929 53.8228 30.1696 53.7754C30.2464 53.7279 30.3319 53.6965 30.4212 53.6829C30.5068 53.6705 30.5941 53.6754 30.6778 53.6975C30.7615 53.7196 30.8398 53.7584 30.9082 53.8115L34.7099 56.722C34.8606 56.8442 34.9591 57.0194 34.9851 57.2117C35.0111 57.404 34.9628 57.599 34.85 57.757ZM38.8179 55.4082L38.5565 55.7698C38.4743 55.8857 38.3696 55.9838 38.2487 56.0583C38.1277 56.1328 37.9929 56.1821 37.8524 56.2033C37.7161 56.2232 37.5771 56.2153 37.4438 56.1802C37.3106 56.145 37.1858 56.0833 37.077 55.9987L32.5561 52.5384C32.3204 52.3526 32.1657 52.0827 32.1244 51.7854C32.0831 51.488 32.1584 51.1862 32.3346 50.9431L32.5973 50.581C32.6795 50.4651 32.7842 50.367 32.9052 50.2925C33.0262 50.218 33.1609 50.1687 33.3014 50.1475C33.4377 50.1274 33.5766 50.135 33.7098 50.1701C33.8431 50.2052 33.9678 50.267 34.0764 50.3517L34.602 50.7541C34.7176 50.8812 34.8441 50.9981 34.98 51.1034L38.8086 54.0337C38.9556 54.2323 39.0357 54.4724 39.0374 54.7194C39.0391 54.9665 38.9622 55.2077 38.8179 55.4082ZM42.4086 52.4117L42.1161 52.8159C42.0323 52.934 41.9256 53.034 41.8022 53.1099C41.6789 53.1858 41.5415 53.236 41.3983 53.2576C41.2592 53.2779 41.1175 53.27 40.9816 53.2342C40.8456 53.1984 40.7183 53.1355 40.6073 53.0493L40.1131 52.6711C39.9981 52.5446 39.8723 52.4284 39.7371 52.3237L35.9055 49.3907C35.7555 49.1885 35.6735 48.9438 35.6714 48.692C35.6694 48.4402 35.7474 48.1942 35.8942 47.9896L36.1876 47.585C36.2714 47.4667 36.3782 47.3666 36.5016 47.2906C36.625 47.2146 36.7625 47.1643 36.9058 47.1428C37.0448 47.1226 37.1863 47.1306 37.3221 47.1664C37.4579 47.2022 37.585 47.265 37.6959 47.351L42.1834 50.7861C42.4237 50.9754 42.5814 51.2505 42.6234 51.5535C42.6654 51.8566 42.5884 52.1641 42.4086 52.4117ZM44.9089 48.409L44.5793 48.8644C44.5015 48.9742 44.4023 49.0672 44.2877 49.1377C44.1731 49.2083 44.0454 49.255 43.9123 49.2751C43.7834 49.2937 43.6521 49.2862 43.5262 49.2529C43.4002 49.2197 43.2823 49.1613 43.1795 49.0814L38.9987 45.8817C38.775 45.7053 38.6282 45.4491 38.5892 45.1669C38.5502 44.8847 38.622 44.5983 38.7895 44.3678L39.1191 43.9124C39.1969 43.8026 39.2961 43.7096 39.4107 43.6391C39.5253 43.5685 39.653 43.5218 39.7861 43.5017C39.9149 43.483 40.0463 43.4904 40.1722 43.5236C40.2981 43.5568 40.4161 43.6151 40.5189 43.6949L44.6997 46.8951C44.9234 47.0715 45.0702 47.3277 45.1092 47.6099C45.1482 47.8922 45.0764 48.1785 44.9089 48.409ZM9.25134 19.1933C9.88685 15.7114 11.3911 12.4463 13.6246 9.70071C15.2884 10.6086 17.0443 11.3365 18.8624 11.872C17.9081 15.176 17.399 18.5926 17.3486 22.0313H13.4041L16.1478 23.9063H17.3582C17.3655 24.1864 17.3662 24.4675 17.378 24.747L19.3366 26.0854C19.2805 25.3642 19.249 24.6363 19.2306 23.9063H29.0625V28.9188L30.9375 30.0946V23.9063H40.7724C40.7376 25.4163 40.6168 26.9232 40.4106 28.4195C40.7675 27.8746 41.2672 27.4382 41.8551 27.1578L42.4786 26.8554C42.5687 25.8831 42.6171 24.8973 42.6409 23.9063H48.5592L52.3212 22.0817L52.9383 21.7823C52.6512 16.2258 50.3568 10.9623 46.4813 6.97001C42.6058 2.97768 37.4129 0.527929 31.8673 0.075932C26.3217 -0.376065 20.8006 1.20043 16.3297 4.51249C11.8589 7.82455 8.74244 12.647 7.55933 18.0837C7.69467 18.1464 7.82483 18.2197 7.94859 18.303L9.25134 19.1933ZM19.2236 22.0313C19.2864 18.7607 19.791 15.5137 20.7236 12.3783C23.4582 13.023 26.2535 13.3757 29.0625 13.4306V22.0313H19.2236ZM38.6704 10.5967C36.1326 11.1811 33.5412 11.5025 30.9375 11.5558V1.96353C34.0689 2.51982 36.8644 5.82247 38.6704 10.5967ZM29.0625 1.96353V11.5558C26.4587 11.5025 23.8674 11.1811 21.3295 10.5968C23.1355 5.82251 25.931 2.51982 29.0625 1.96353ZM30.9375 13.4306C33.7465 13.3757 36.5418 13.023 39.2764 12.3784C40.209 15.5137 40.7136 18.7607 40.7764 22.0313H30.9375V13.4306ZM42.6514 22.0313C42.601 18.5926 42.0919 15.176 41.1376 11.872C42.956 11.3364 44.7121 10.6084 46.376 9.70024C49.2222 13.2003 50.8651 17.5242 51.0613 22.0313H42.6514ZM45.0973 8.26304C43.6439 9.01965 42.1204 9.63313 40.5482 10.0948C39.4305 7.05129 37.9195 4.54288 36.1366 2.78734C39.5371 3.82856 42.6194 5.71209 45.0973 8.26304ZM23.8589 2.79199C22.0779 4.54735 20.5685 7.05394 19.4518 10.0949C17.8794 9.63325 16.3556 9.01969 14.9021 8.2629C17.3794 5.71417 20.4603 3.83235 23.8589 2.79199Z" fill="#BACEC7"/>
<path d="M13.3539 53.9117L13.7485 54.6258C13.7613 54.6492 13.775 54.6716 13.7897 54.6936C14.6888 56.0371 15.8139 56.3443 17.2307 55.6338C17.2903 55.8744 17.3814 56.1061 17.5017 56.3228L17.8967 57.0373C18.0664 57.3509 18.2968 57.6276 18.5745 57.8513C18.8521 58.0749 19.1715 58.2411 19.514 58.3401C19.8074 58.4234 20.1145 58.4466 20.4171 58.4083C20.7196 58.37 21.0113 58.271 21.2746 58.1172L22.2423 57.5491C22.2855 57.6784 22.3405 57.8035 22.4066 57.9227L22.7413 58.5283C22.8885 58.7955 23.0882 59.0302 23.3283 59.2184C23.5685 59.4065 23.8441 59.5443 24.1388 59.6233C24.3428 59.6788 24.5532 59.7068 24.7646 59.7066C25.2086 59.7059 25.6444 59.5869 26.0271 59.3619L27.9799 58.2149L27.7739 58.0573H27.7735C27.3291 57.7159 26.9541 57.2928 26.6685 56.8107L25.0777 57.745C25.0122 57.7858 24.9392 57.813 24.863 57.825C24.7868 57.8371 24.709 57.8337 24.6341 57.8151C24.5812 57.8016 24.5316 57.7774 24.4883 57.7441C24.445 57.7109 24.409 57.6691 24.3823 57.6214L24.0477 57.0158C23.9985 56.8819 24.0025 56.7342 24.0587 56.6031C24.115 56.472 24.2193 56.3675 24.3503 56.3109L26.1019 55.2821C25.9644 54.522 26.0228 53.7393 26.2715 53.008L20.3252 56.5004C20.2776 56.527 20.225 56.5435 20.1708 56.5489C20.1165 56.5544 20.0617 56.5486 20.0098 56.532C19.9086 56.4994 19.8148 56.4471 19.7338 56.3782C19.6528 56.3093 19.5862 56.2252 19.5378 56.1305L19.1423 55.4155C19.0413 55.2703 18.9969 55.0931 19.0174 54.9174C19.0378 54.7417 19.1218 54.5796 19.2535 54.4615L20.2725 53.8627C22.397 52.619 25.1569 50.9981 26.9032 49.9685L28.6226 48.9587C28.6686 48.931 28.7121 48.8994 28.7526 48.8642C28.4671 48.767 28.1899 48.6469 27.9236 48.5051C27.5583 48.3048 27.2159 48.0655 26.9023 47.7913C26.4723 48.0454 25.8672 48.4019 25.1532 48.8219L20.3201 51.6605C18.2643 52.8662 16.5381 53.8765 16.3967 53.9543C15.8405 54.2368 15.726 54.2107 15.3703 53.6838L14.995 53.0049C14.8941 52.8638 14.8479 52.6909 14.8648 52.5182C14.8817 52.3456 14.9607 52.1849 15.087 52.066L25.4912 45.9547C25.3355 45.6396 25.2093 45.3109 25.1143 44.9725C25.0362 44.6865 24.9801 44.3949 24.9467 44.1003L16.371 49.1373C16.3071 49.1742 16.2365 49.1978 16.1632 49.2067C16.09 49.2157 16.0157 49.2098 15.9448 49.1894C15.8491 49.1605 15.76 49.1129 15.6828 49.0493C15.6055 48.9858 15.5417 48.9075 15.4948 48.8191L15.0993 48.1041C14.9993 47.9417 14.9646 47.7474 15.0022 47.5604C15.0399 47.3734 15.147 47.2076 15.3021 47.0966L22.108 43.0641C21.8869 42.9677 21.6729 42.8555 21.4677 42.7286L20.267 41.9754L14.3495 45.4816C13.7737 45.8408 13.3593 46.409 13.1932 47.0671C13.0272 47.7251 13.1223 48.422 13.4587 49.0114L13.8542 49.7264C13.9794 49.9528 14.1365 50.16 14.3207 50.3417L14.1376 50.4492C13.5859 50.8141 13.1963 51.3779 13.0503 52.0231C12.9043 52.6682 13.013 53.3448 13.3539 53.9117ZM41.8239 31.0186C41.4199 30.8781 41.0063 30.7671 40.5863 30.6862C38.5479 30.314 36.4453 30.5432 34.5351 31.3458L33.4991 31.7009L35.535 32.9775C37.0306 32.4018 38.6552 32.2461 40.2329 32.5273C41.0699 32.6722 41.8669 32.9923 42.5716 33.4666C42.7378 33.5882 42.8953 33.7211 43.043 33.8645L46.0054 40.7528C46.0032 40.8517 46.0169 40.9503 46.046 41.0449C46.2944 41.7958 46.3722 42.5926 46.2738 43.3774L46.9794 43.9174C47.292 44.1599 47.5727 44.441 47.8147 44.7541C48.1618 45.1917 48.4301 45.6864 48.6076 46.216C48.8882 46.4367 49.2353 46.5556 49.5923 46.5532C49.8449 46.5522 50.0941 46.4947 50.3215 46.3847L58.071 42.5647C58.1814 42.5102 58.28 42.4346 58.3612 42.342C58.4424 42.2494 58.5046 42.1417 58.5441 42.0251C58.5837 41.9085 58.5999 41.7853 58.5919 41.6624C58.5838 41.5396 58.5516 41.4195 58.4972 41.309C58.4427 41.1986 58.367 41.1 58.2744 41.0188C58.1819 40.9376 58.0742 40.8755 57.9576 40.8359C57.841 40.7963 57.7178 40.7801 57.5949 40.7882C57.472 40.7962 57.3519 40.8284 57.2415 40.8829L49.7008 44.6004L43.6231 30.4681L55.2956 24.8067C55.4066 24.7531 55.506 24.6781 55.588 24.5861C55.67 24.4941 55.7331 24.3868 55.7736 24.2703C55.8141 24.1539 55.8312 24.0306 55.824 23.9075C55.8168 23.7845 55.7854 23.664 55.7316 23.5531C55.6777 23.4422 55.6026 23.343 55.5104 23.2612C55.4182 23.1794 55.3107 23.1165 55.1942 23.0763C55.0777 23.036 54.9544 23.0192 54.8313 23.0266C54.7083 23.0341 54.5879 23.0658 54.4771 23.1198L42.6631 28.8499C42.2733 29.0365 41.9694 29.3648 41.8135 29.7678C41.6575 30.1708 41.6612 30.6182 41.8239 31.0186Z" fill="#BACEC7"/>
</g>
<defs>
<clipPath id="clip0_2300_1795">
<rect width="60" height="60" fill="white"/>
</clipPath>
</defs>
</svg>
