<svg width="60" height="60" viewBox="0 0 60 60" fill="none" xmlns="http://www.w3.org/2000/svg">
<path d="M54.4223 42.0594L37.5 35.9059V32.3946C38.8814 31.4989 40.0274 30.2844 40.8416 28.8535C41.6558 27.4225 42.1143 25.8169 42.1785 24.1718L42.8347 24.0077C43.7756 23.7725 44.6025 23.2111 45.1682 22.4234C45.7339 21.6358 46.0018 20.6729 45.9241 19.7062C45.8464 18.7395 45.4282 17.8317 44.744 17.1445C44.0598 16.4572 43.1538 16.0351 42.1875 15.9532V11.6436L47.8125 10.5186V16.875H49.6875V8.43747H49.6864C49.6866 8.42973 49.6875 8.42223 49.6875 8.41462C49.688 7.94413 49.531 7.48701 49.2415 7.11617C48.9519 6.74533 48.5466 6.48212 48.09 6.36852L30.5115 1.97399C30.1756 1.89034 29.8244 1.89034 29.4885 1.97399L11.91 6.36852C11.4454 6.48469 11.0341 6.75554 10.7439 7.13652C10.4536 7.5175 10.3017 7.98592 10.3131 8.46472C10.3245 8.94352 10.4985 9.40419 10.8065 9.77094C11.1145 10.1377 11.5382 10.3887 12.0079 10.4826L17.8125 11.6437V15.9533C16.8462 16.0352 15.9402 16.4574 15.256 17.1446C14.5718 17.8319 14.1536 18.7396 14.0759 19.7063C13.9982 20.673 14.2661 21.6359 14.8318 22.4236C15.3975 23.2113 16.2244 23.7727 17.1653 24.0078L17.8215 24.1719C17.8858 25.817 18.3443 27.4226 19.1584 28.8535C19.9726 30.2845 21.1186 31.4989 22.5 32.3946V35.9058L5.57777 42.0593C4.49398 42.456 3.5579 43.1755 2.8958 44.1208C2.23369 45.0661 1.87741 46.1917 1.875 47.3458V58.125H58.125V47.3457C58.1226 46.1917 57.7663 45.0661 57.1042 44.1208C56.4421 43.1756 55.5061 42.4561 54.4223 42.0594ZM17.8125 22.2368L17.62 22.1887C17.123 22.0649 16.6841 21.7731 16.3777 21.3626C16.0713 20.9522 15.9163 20.4484 15.939 19.9367C15.9616 19.4251 16.1606 18.937 16.502 18.5552C16.8435 18.1735 17.3065 17.9216 17.8125 17.8422V22.2368ZM40.3125 15.9375H19.6875V12.0186L29.5863 13.9984C29.8594 14.0532 30.1406 14.0532 30.4137 13.9984L40.3125 12.0186V15.9375ZM44.0625 20.0338C44.063 20.5292 43.8976 21.0106 43.5927 21.4012C43.2878 21.7917 42.8609 22.0689 42.38 22.1886L42.1875 22.2366V17.8422C42.7095 17.9249 43.185 18.191 43.5287 18.5926C43.8723 18.9942 44.0615 19.5051 44.0625 20.0336V20.0338ZM12.3756 8.64407C12.3234 8.63371 12.2763 8.60589 12.2421 8.56519C12.2079 8.52448 12.1886 8.47333 12.1873 8.42017C12.1861 8.367 12.2029 8.315 12.2352 8.27272C12.2675 8.23045 12.3132 8.20043 12.3648 8.18762L29.9433 3.79309C29.9805 3.78384 30.0195 3.78384 30.0567 3.79309L47.6352 8.18762C47.6868 8.20043 47.7325 8.23045 47.7648 8.27272C47.7971 8.315 47.8139 8.367 47.8127 8.42017C47.8114 8.47333 47.7921 8.52448 47.7579 8.56519C47.7236 8.60589 47.6766 8.63371 47.6244 8.64407L30.0458 12.1597C30.0156 12.1658 29.9844 12.1658 29.9542 12.1597L12.3756 8.64407ZM19.6875 23.75V17.8125H40.3125V23.7499C40.3154 25.4163 39.8236 27.0461 38.8992 28.4327C37.9748 29.8193 36.6595 30.9002 35.1202 31.5384L31.4423 33.0709C30.5187 33.4528 29.4813 33.4528 28.5577 33.0709L24.8798 31.5384C23.3405 30.9002 22.0252 29.8193 21.1009 28.4328C20.1765 27.0462 19.6846 25.4164 19.6875 23.75ZM30 41.25C30.2422 41.2471 30.4809 41.3084 30.6917 41.4278C30.9025 41.5471 31.0779 41.7202 31.2 41.9294C31.3274 42.1418 31.3962 42.3842 31.3993 42.6318C31.4025 42.8794 31.3398 43.1235 31.2178 43.339C31.0958 43.5545 30.9188 43.7337 30.7048 43.8585C30.4909 43.9832 30.2477 44.0489 30 44.0489C29.7523 44.0489 29.5091 43.9832 29.2952 43.8585C29.0812 43.7337 28.9042 43.5545 28.7822 43.339C28.6602 43.1235 28.5975 42.8794 28.6007 42.6318C28.6038 42.3842 28.6726 42.1418 28.8 41.9294C28.9221 41.7202 29.0975 41.5471 29.3083 41.4278C29.5191 41.3084 29.7578 41.2471 30 41.25ZM30.5767 39.4263C30.1953 39.3579 29.8047 39.3579 29.4233 39.4263L24.375 36.0607V33.3594L27.8365 34.8017C29.222 35.3745 30.778 35.3745 32.1635 34.8017L35.625 33.3594V36.0608L30.5767 39.4263ZM25.4368 56.25H3.75V47.3457C3.75162 46.5763 3.98914 45.826 4.43053 45.1958C4.87191 44.5656 5.49594 44.086 6.21844 43.8215L7.65445 43.2993L26.0365 52.0527L25.4368 56.25ZM26.3142 50.1083L10.1271 42.4002L18.4738 39.365L27.1089 44.5461L26.3142 50.1083ZM27.1921 40.9647C26.9735 41.3289 26.8277 41.7321 26.7628 42.1518L20.7429 38.5399L23.3121 37.6057L27.5746 40.4472C27.4307 40.607 27.3026 40.7803 27.1921 40.9647ZM27.3309 56.25L28.8363 45.7125C29.5865 45.9946 30.4135 45.9946 31.1637 45.7125L32.6691 56.25H27.3309ZM32.4254 40.4472L36.6879 37.6057L39.2571 38.5399L33.2372 42.1518C33.1723 41.7321 33.0265 41.3289 32.8079 40.9647C32.6974 40.7803 32.5693 40.607 32.4254 40.4472ZM32.8911 44.5461L41.5262 39.365L49.8729 42.4002L33.6858 50.1083L32.8911 44.5461ZM56.25 56.25H34.5632L33.9635 52.0527L52.3455 43.2993L53.7817 43.8215C54.5041 44.086 55.1281 44.5657 55.5695 45.1958C56.0109 45.826 56.2484 46.5764 56.25 47.3457V56.25Z" fill="#386B5B"/>
</svg>
