<svg width="60" height="60" viewBox="0 0 60 60" fill="none" xmlns="http://www.w3.org/2000/svg">
<path d="M48.7504 0.895142H11.2504C9.99652 0.896692 8.79441 1.39549 7.90776 2.28215C7.02111 3.1688 6.5223 4.37091 6.52075 5.62483V28.3592C6.52292 29.6126 7.02204 30.814 7.90866 31.6999C8.79528 32.5859 9.99704 33.0841 11.2504 33.0854H26.7192C26.7232 33.0855 26.7271 33.0867 26.7306 33.0887C26.7341 33.0908 26.737 33.0936 26.7391 33.0971L28.5895 36.0268C28.7396 36.264 28.9472 36.4594 29.1931 36.5947C29.4389 36.7301 29.7151 36.8011 29.9957 36.8011C30.2764 36.8011 30.5526 36.7301 30.7984 36.5947C31.0443 36.4594 31.2519 36.264 31.402 36.0268L33.2524 33.0971C33.2543 33.0935 33.2572 33.0905 33.2607 33.0884C33.2642 33.0864 33.2682 33.0853 33.2723 33.0854H48.843C50.0723 33.0841 51.2508 32.5953 52.1202 31.7262C52.9895 30.8571 53.4786 29.6787 53.4801 28.4494V5.62483C53.4786 4.37091 52.9798 3.1688 52.0931 2.28215C51.2065 1.39549 50.0043 0.896692 48.7504 0.895142ZM51.8395 28.4494C51.8382 29.2437 51.5221 30.005 50.9604 30.5665C50.3987 31.128 49.6372 31.4438 48.843 31.4447H33.2817C33.0002 31.4449 32.7234 31.5167 32.4773 31.6534C32.2313 31.7902 32.0241 31.9874 31.8754 32.2264L30.0262 35.1561C30.0237 35.1592 30.0205 35.1618 30.0168 35.1636C30.0132 35.1653 30.0092 35.1662 30.0051 35.1662C30.0011 35.1662 29.9971 35.1653 29.9934 35.1636C29.9898 35.1618 29.9866 35.1592 29.984 35.1561L28.1254 32.2264C27.9762 31.9882 27.7688 31.792 27.5228 31.6561C27.2768 31.5202 27.0002 31.449 26.7192 31.4494H11.2504C10.4312 31.4488 9.64562 31.123 9.06641 30.5436C8.4872 29.9641 8.16169 29.1785 8.16138 28.3592V5.62483C8.16231 4.80584 8.48806 4.02067 9.06717 3.44156C9.64628 2.86245 10.4315 2.5367 11.2504 2.53577H48.7504C49.5694 2.5367 50.3546 2.86245 50.9337 3.44156C51.5128 4.02067 51.8386 4.80584 51.8395 5.62483V28.4494Z" fill="#386B5B"/>
<path d="M47.4085 38.2653H45.305V37.9595C45.3052 37.7882 45.2517 37.6212 45.152 37.4818C45.0524 37.3425 44.9117 37.2378 44.7496 37.1825C42.934 36.6208 41.0413 36.3483 39.141 36.3751C35.3851 36.4302 32.2949 37.7556 30.1398 40.2212C27.9835 37.7602 24.8933 36.4302 21.1375 36.3751C19.2361 36.3493 17.3424 36.6218 15.5253 37.1825C15.3634 37.238 15.223 37.3428 15.1236 37.4821C15.0242 37.6214 14.9708 37.7883 14.971 37.9595V38.2653H12.8171C12.5996 38.2653 12.3909 38.3518 12.2371 38.5056C12.0833 38.6594 11.9968 38.8681 11.9968 39.0856V57.9774C11.9968 58.0067 11.9968 58.0349 11.9968 58.063L12.0039 58.1063C12.0039 58.1274 12.0109 58.1474 12.0156 58.1673L12.0261 58.2095C12.0355 58.2388 12.0449 58.2657 12.0554 58.2927C12.0559 58.2973 12.0559 58.3021 12.0554 58.3067L12.0707 58.3349C12.08 58.3536 12.0894 58.3724 12.1 58.3911C12.1105 58.4099 12.1152 58.4145 12.1222 58.4263C12.139 58.4524 12.1574 58.4775 12.1773 58.5013L12.1984 58.5247C12.216 58.5435 12.2335 58.5622 12.2523 58.5798L12.2746 58.5997C12.3004 58.6223 12.3278 58.6431 12.3566 58.6618L12.3683 58.6688C12.395 58.6863 12.4228 58.7019 12.4515 58.7157L12.4691 58.7239C12.5021 58.7392 12.5362 58.7522 12.571 58.7626C12.6034 58.7718 12.6363 58.7792 12.6695 58.7849H12.6953C12.731 58.79 12.767 58.7927 12.8031 58.7931H47.4085C47.445 58.7927 47.4814 58.79 47.5175 58.7849H47.5433C47.5749 58.7796 47.6062 58.7726 47.6371 58.7638H47.6464C47.6803 58.753 47.7135 58.7405 47.746 58.7263L47.7671 58.7157C47.7939 58.7031 47.8198 58.6886 47.8445 58.6724L47.8609 58.663C47.889 58.6442 47.916 58.6231 47.9418 58.602L47.9617 58.5833C47.9827 58.5646 48.0027 58.5446 48.0214 58.5235L48.0355 58.5071C48.0583 58.4806 48.079 58.4524 48.0976 58.4227L48.1082 58.4063C48.1264 58.3765 48.1428 58.3456 48.1574 58.3138C48.1723 58.2791 48.1848 58.2435 48.1949 58.2071C48.1954 58.2021 48.1954 58.197 48.1949 58.1919C48.2029 58.1614 48.2092 58.1305 48.2136 58.0993C48.2136 58.0923 48.2136 58.0852 48.2136 58.0794C48.2174 58.0475 48.2193 58.0154 48.2195 57.9833V39.0856C48.2195 38.8697 48.1344 38.6625 47.9825 38.5089C47.8307 38.3553 47.6245 38.2678 47.4085 38.2653ZM13.6375 39.906H14.9687V54.4302L13.6375 55.8751V39.906ZM14.6921 57.1571L16.2156 55.5095C16.4328 55.472 16.6464 55.4388 16.8566 55.4099C18.9549 55.1005 21.0909 55.1552 23.1707 55.5716C24.1555 55.7725 25.1191 56.066 26.0488 56.4481C26.5547 56.6565 27.0485 56.8932 27.5277 57.1571H14.6921ZM29.3207 56.3169C28.9691 56.0825 28.5437 55.8282 28.0574 55.5716C26.5918 54.8032 25.0228 54.2506 23.3992 53.931C22.1642 53.6864 20.9081 53.5643 19.6492 53.5665C18.6319 53.5687 17.6161 53.6431 16.6093 53.7892V38.5747C16.7265 38.5431 16.8683 38.5079 17.023 38.4716C18.378 38.1528 19.7667 38.0002 21.1585 38.0169C23.9066 38.0661 26.1707 38.8372 27.9179 40.3267C28.4365 40.7676 28.9053 41.2639 29.316 41.8067L29.3207 56.3169ZM30.9613 56.3169V41.8067C31.3743 41.2626 31.8459 40.7654 32.3675 40.3243C34.1148 38.8395 36.3777 38.0661 39.1246 38.0169C40.5099 38.0008 41.8922 38.1519 43.2414 38.4669C43.4031 38.5056 43.5484 38.5419 43.6738 38.5747V53.7892C41.4198 53.4522 39.1249 53.5013 36.8875 53.9345C35.2637 54.2539 33.6948 54.8065 32.2292 55.5751C31.7324 55.8282 31.3117 56.0825 30.9566 56.3169H30.9613ZM32.7589 57.1571C33.2384 56.8936 33.7321 56.6569 34.2378 56.4481C35.1641 56.0655 36.1247 55.772 37.1066 55.5716C39.2631 55.146 41.4776 55.1024 43.6492 55.4427C43.7933 55.4638 43.9339 55.486 44.071 55.5106L45.5628 57.1571H32.7589ZM46.5929 55.8505L45.305 54.4349V39.9036H46.5882L46.5929 55.8505Z" fill="#386B5B"/>
<path d="M40.3321 51.0035C40.5431 51.0434 40.7614 50.999 40.9401 50.8798C41.1188 50.7605 41.2436 50.5759 41.2876 50.3657C41.3316 50.1554 41.2915 49.9363 41.1757 49.7553C41.0599 49.5744 40.8777 49.4461 40.6684 49.398C36.0383 48.4289 33.3653 50.816 33.2539 50.9214C33.1738 50.994 33.1089 51.0818 33.0628 51.1796C33.0167 51.2774 32.9904 51.3833 32.9854 51.4913C32.9804 51.5993 32.9968 51.7072 33.0337 51.8088C33.0706 51.9105 33.1271 52.0038 33.2002 52.0835C33.2732 52.1632 33.3613 52.2277 33.4594 52.2732C33.5574 52.3187 33.6635 52.3444 33.7715 52.3488C33.8795 52.3532 33.9874 52.3362 34.0888 52.2988C34.1902 52.2614 34.2832 52.2043 34.3625 52.1308C34.3836 52.1085 36.5164 50.2043 40.3321 51.0035ZM33.7004 48.6679C33.9056 48.6679 34.1034 48.591 34.2547 48.4523C34.2758 48.4324 36.4086 46.5281 40.2242 47.3273C40.3297 47.3494 40.4385 47.3505 40.5445 47.3305C40.6504 47.3105 40.7513 47.2699 40.8415 47.2109C40.9317 47.1519 41.0094 47.0758 41.0702 46.9868C41.131 46.8977 41.1736 46.7976 41.1957 46.6921C41.2178 46.5866 41.2189 46.4778 41.1989 46.3719C41.179 46.266 41.1383 46.1651 41.0793 46.0749C41.0204 45.9846 40.9442 45.9069 40.8552 45.8462C40.7662 45.7854 40.6661 45.7427 40.5606 45.7207C35.9305 44.7527 33.2586 47.1398 33.1461 47.2441C33.0239 47.3557 32.9382 47.5017 32.9005 47.6628C32.8627 47.824 32.8746 47.9928 32.9346 48.1471C32.9945 48.3014 33.0998 48.4339 33.2365 48.5273C33.3731 48.6207 33.5349 48.6705 33.7004 48.6703V48.6679ZM19.3953 49.398C19.2882 49.4183 19.1862 49.4598 19.0952 49.52C19.0043 49.5801 18.9262 49.6579 18.8657 49.7486C18.8052 49.8393 18.7633 49.9412 18.7426 50.0482C18.7219 50.1553 18.7228 50.2654 18.7451 50.3722C18.7675 50.4789 18.8109 50.5801 18.8728 50.6699C18.9348 50.7596 19.014 50.8362 19.1059 50.8949C19.1977 50.9537 19.3004 50.9936 19.4078 51.0122C19.5153 51.0309 19.6254 51.0279 19.7317 51.0035C23.4922 50.216 25.6051 52.0441 25.7082 52.1308C25.87 52.2701 26.0798 52.3409 26.2929 52.328C26.506 52.3152 26.7057 52.2197 26.8496 52.0619C26.9935 51.9042 27.0702 51.6966 27.0634 51.4832C27.0566 51.2698 26.9669 51.0674 26.8133 50.9191C26.6973 50.816 24.0231 48.4277 19.3953 49.398ZM19.502 45.7207C19.2889 45.7653 19.1023 45.8927 18.9832 46.0749C18.8641 46.257 18.8222 46.4791 18.8668 46.6921C18.9114 46.9052 19.0388 47.0918 19.221 47.2109C19.4032 47.33 19.6253 47.3719 19.8383 47.3273C23.6 46.5398 25.7129 48.3668 25.8149 48.4546C25.9757 48.6012 26.1882 48.6778 26.4055 48.6677C26.6229 48.6576 26.8273 48.5616 26.9739 48.4007C27.1204 48.2399 27.197 48.0274 27.1869 47.8101C27.1768 47.5927 27.0808 47.3883 26.9199 47.2418C26.8051 47.1398 24.1321 44.7515 19.502 45.7207ZM30.4684 4.1355C30.2621 4.1355 30.0547 4.1355 29.8578 4.14839C27.0559 4.27752 24.3803 5.35156 22.2668 7.19556C20.1533 9.03955 18.7264 11.5449 18.2186 14.3034C17.7108 17.0619 18.152 19.9111 19.4703 22.3868C20.7886 24.8626 22.9063 26.819 25.4785 27.9375L25.5465 28.0218L25.5887 27.9867C27.1109 28.6342 28.7474 28.9705 30.4016 28.9757H30.4356C32.0945 28.9819 33.7375 28.6529 35.2661 28.0085C36.7947 27.3641 38.1774 26.4176 39.3313 25.2257C39.794 24.7523 40.2184 24.2429 40.6004 23.7023C42.0663 21.6224 42.8541 19.1406 42.8563 16.596C42.8614 14.9644 42.5449 13.3477 41.9251 11.8384C41.3052 10.329 40.3941 8.95659 39.2437 7.79946C38.0933 6.64232 36.7262 5.72317 35.2205 5.0945C33.7148 4.46583 32.1 4.13995 30.4684 4.1355ZM21.0453 21.8648C20.1244 20.2356 19.6434 18.3948 19.6496 16.5234C19.6518 16.0925 19.6792 15.662 19.7317 15.2343C20.2157 16.3171 20.552 17.2816 20.4934 17.6824L20.4629 17.9167L20.5801 18.1218C21.3506 19.3312 22.5183 20.2345 23.8824 20.6765C23.9188 21.0539 23.7875 21.9656 23.5719 22.7507L23.4864 23.066L23.6715 23.3355C23.7617 23.4656 24.5352 24.5613 25.5055 25.1472C25.5805 25.316 25.6543 25.6464 25.4094 26.0929C23.5803 25.1299 22.0657 23.6625 21.0453 21.8648ZM39.2574 22.7519C37.8913 24.7015 35.9171 26.1431 33.6442 26.8509C31.3712 27.5587 28.9277 27.4929 26.6961 26.6636C27.2305 25.5949 26.9235 24.6503 26.5789 24.2027L26.4828 24.0773L26.3434 24.0058C25.8453 23.7468 25.3203 23.1668 25.0215 22.7882C25.5231 20.7808 25.3461 19.6406 24.4953 19.3957C23.4538 19.0923 22.5417 18.4533 21.9008 17.5781C21.8692 16.3441 20.8625 14.2476 20.2344 13.0546C20.2731 12.9375 20.3129 12.8273 20.3516 12.7148C20.8819 11.323 21.6965 10.057 22.7434 8.99761C23.8813 7.84362 25.2631 6.95908 26.7875 6.40894C27.7973 6.04731 28.8555 5.83913 29.927 5.79136C30.0887 5.78315 30.2551 5.77964 30.4239 5.77964H30.4555C30.9875 5.78103 31.5187 5.82216 32.0446 5.90269C31.8184 6.42534 31.6086 6.99019 31.5547 7.38276C31.4762 7.46128 31.3297 7.58198 31.2254 7.6687C30.7344 8.07417 30.1227 8.57925 30.1414 9.30933C30.1496 9.59175 30.2586 10.0066 30.7637 10.3757C31.6813 11.0542 33.0348 11.6964 34.8981 12.3386C35.3809 12.505 36.3688 12.846 36.5844 13.0804C36.6594 13.432 36.8844 13.7988 37.1434 14.2207C37.2854 14.4403 37.413 14.6689 37.5254 14.905C37.5078 14.9554 37.4821 15.0222 37.461 15.0738C37.2781 15.5425 36.7906 16.7777 37.9977 17.4023C38.6211 17.7152 39.609 18.1992 40.0778 18.3984C40.3204 18.8251 40.5403 19.2644 40.7363 19.7144C40.4067 20.7986 39.9076 21.8238 39.2574 22.7519ZM41.1735 17.5007C40.9707 17.223 40.8442 17.1796 40.7199 17.1363C40.543 17.0753 39.5481 16.6066 38.6516 16.1449C38.6396 16.1389 38.6283 16.1318 38.6176 16.1238C38.6094 16.0066 38.7219 15.7218 38.7781 15.58C38.8451 15.4237 38.898 15.2617 38.9364 15.096C39.0336 14.5921 38.7172 14.0753 38.3504 13.4777C38.2051 13.258 38.0782 13.0268 37.9707 12.7863C37.8184 11.8488 36.6278 11.4363 35.3656 11.0015C33.6629 10.4156 32.3985 9.82026 31.6086 9.23667C31.771 9.06173 31.9469 8.8999 32.1348 8.75269C32.5602 8.40112 32.961 8.07065 32.961 7.56909C32.9739 7.39565 33.186 6.82847 33.4602 6.21206C35.7045 6.86553 37.6754 8.23126 39.0755 10.1031C40.4755 11.975 41.2288 14.2515 41.2215 16.589C41.2137 16.8937 41.1961 17.1976 41.1688 17.5007H41.1735Z" fill="#386B5B"/>
<path d="M32.3657 12.1873C31.5831 12.1861 30.8214 12.4395 30.1954 12.9092C29.6576 12.5065 29.0183 12.2614 28.3492 12.2015C27.68 12.1415 27.0074 12.269 26.4066 12.5697C25.8058 12.8704 25.3006 13.3324 24.9475 13.904C24.5944 14.4756 24.4074 15.1342 24.4075 15.8061V16.3533C24.4057 16.9348 24.5368 17.509 24.7906 18.0322C25.0445 18.5553 25.4145 19.0136 25.8723 19.3721L29.109 21.9232C29.4183 22.1684 29.8013 22.3018 30.196 22.3018C30.5906 22.3018 30.9736 22.1684 31.2829 21.9232L34.5208 19.3721C34.9783 19.0134 35.3479 18.555 35.6016 18.0319C35.8552 17.5088 35.9862 16.9347 35.9844 16.3533V15.8061C35.9832 14.8467 35.6015 13.927 34.9232 13.2486C34.2448 12.5702 33.3251 12.1885 32.3657 12.1873ZM34.3438 16.3533C34.3448 16.6865 34.2697 17.0155 34.1243 17.3152C33.9789 17.615 33.767 17.8776 33.5048 18.083L30.2669 20.6354C30.2465 20.6508 30.2216 20.6592 30.196 20.6592C30.1704 20.6592 30.1455 20.6508 30.1251 20.6354L26.8872 18.083C26.6249 17.8776 26.413 17.615 26.2676 17.3152C26.1222 17.0155 26.0471 16.6865 26.0481 16.3533V15.8061C26.0472 15.3967 26.1732 14.9972 26.4089 14.6625C26.6445 14.3279 26.9782 14.0746 27.3639 13.9375C27.7496 13.8005 28.1683 13.7864 28.5623 13.8973C28.9563 14.0083 29.3062 14.2387 29.5637 14.5568C29.6407 14.6512 29.7376 14.7272 29.8476 14.7794C29.9575 14.8317 30.0777 14.8587 30.1995 14.8587C30.3212 14.8587 30.4414 14.8317 30.5514 14.7794C30.6613 14.7272 30.7583 14.6512 30.8352 14.5568C31.0928 14.2387 31.4426 14.0083 31.8366 13.8973C32.2306 13.7864 32.6494 13.8005 33.0351 13.9375C33.4207 14.0746 33.7544 14.3279 33.9901 14.6625C34.2258 14.9972 34.3518 15.3967 34.3508 15.8061L34.3438 16.3533Z" fill="#386B5B"/>
</svg>
