<svg width="90" height="91" viewBox="0 0 90 91" fill="none" xmlns="http://www.w3.org/2000/svg">
<g clip-path="url(#clip0_2442_86)">
<path d="M89.9086 54.2029L85.6028 41.1202L87.9405 22.3747C87.97 22.1386 87.9527 21.8989 87.8896 21.6695C87.8264 21.4401 87.7187 21.2253 87.5726 21.0375C87.4264 20.8497 87.2447 20.6925 87.0378 20.575C86.8309 20.4574 86.6029 20.3818 86.3668 20.3523L78.4418 19.3641L77.6589 16.9863C77.5845 16.7602 77.4663 16.551 77.3111 16.3706C77.1558 16.1902 76.9665 16.0422 76.754 15.935C76.5415 15.8278 76.31 15.7635 76.0727 15.7458C75.8353 15.7282 75.5968 15.7574 75.3708 15.8319L68.4358 18.1162L8.92915 10.6951C8.45226 10.6356 7.97128 10.768 7.59199 11.0632C7.2127 11.3583 6.96617 11.792 6.90661 12.2689L3.51315 39.4819L1.24592 40.2281C0.295474 40.541 -0.221499 41.5649 0.09104 42.5155L2.2978 49.2265L2.05821 51.1478C1.93586 52.1288 2.62264 53.0227 3.59647 53.1637L12.3388 79.7319C12.4891 80.1883 12.8145 80.5664 13.2435 80.7829C13.6725 80.9995 14.1699 81.0369 14.6264 80.8868L72.6817 61.7812L81.0694 62.8272C81.1455 62.8369 81.2211 62.8413 81.296 62.8413C82.1967 62.8413 82.9774 62.1703 83.0918 61.2533L83.4688 58.2302L88.7539 56.4903C89.7047 56.1776 90.2215 55.1533 89.9086 54.2029ZM19.351 71.8276L34.1712 66.8509C35.12 66.5323 35.6308 65.5049 35.3122 64.5562C34.9936 63.6077 33.9664 63.0964 33.0175 63.4154L19.9257 67.8117L15.5988 54.6622L21.5218 55.4008C21.5103 55.6227 21.5398 55.8448 21.609 56.056C21.9218 57.0066 22.9461 57.5236 23.8967 57.2108C24.5376 56.9999 24.9803 56.465 25.1054 55.8478L32.9671 56.8283C35.7607 60.8137 40.2574 63.0797 44.9634 63.0797C46.5031 63.0797 48.0658 62.8371 49.5975 62.3328C51.4508 61.7239 53.1237 60.7806 54.5831 59.5243L64.274 60.7328L15.2149 76.8783L7.57581 53.662L11.6204 54.1663L17.0529 70.6766C17.0886 70.8003 17.268 71.3723 17.8581 71.7117C18.5539 72.112 19.2544 71.8636 19.351 71.8276ZM38.7812 57.5534L48.7315 58.7943C48.6427 58.8257 48.5555 58.8602 48.4657 58.8897C45.1046 59.9968 41.552 59.4324 38.7812 57.5534ZM34.2684 53.3387L34.2666 53.3386L5.87899 49.7983L10.279 14.5157L68.4276 21.7674C68.4287 21.7676 68.4299 21.7677 68.4311 21.7677L84.1203 23.7242L79.7201 59.0066L34.2684 53.3387ZM83.9651 54.2517L84.5541 49.5273L85.8994 53.6147L83.9651 54.2517Z" fill="#386B5B"/>
<path d="M56.61 27.7255C54.1965 24.6243 50.7197 22.6484 46.8202 22.1622C42.9205 21.6746 39.0653 22.7372 35.9639 25.1506C32.8626 27.5641 30.8869 31.0409 30.4005 34.9404C29.9141 38.8399 30.9755 42.6955 33.3891 45.7967C35.8026 48.898 39.2794 50.8739 43.1789 51.3601C43.7863 51.4361 44.3979 51.4742 45.01 51.4742C52.3172 51.4742 58.6714 46.0159 59.5984 38.5817C60.085 34.6825 59.0235 30.8268 56.61 27.7255ZM56.0021 38.1337C55.2454 44.2004 49.6944 48.519 43.6271 47.7642C40.6881 47.3979 38.0679 45.9086 36.2489 43.5711C34.4299 41.2339 33.6299 38.3279 33.9964 35.389C34.3628 32.4499 35.852 29.8297 38.1893 28.0106C40.1558 26.4802 42.5243 25.6715 44.9766 25.6715C45.4393 25.6715 45.9049 25.7003 46.3714 25.7583C49.3105 26.1246 51.9309 27.6139 53.7498 29.9512C55.569 32.2888 56.3688 35.1944 56.0021 38.1337ZM69.2339 39.7835C69.3576 38.7906 68.6531 37.8851 67.6599 37.7612C66.667 37.6374 65.7615 38.342 65.6376 39.3351C65.5137 40.3281 66.2184 41.2336 67.2115 41.3575C68.2045 41.4812 69.11 40.7767 69.2339 39.7835Z" fill="#386B5B"/>
<path d="M22.362 35.749C23.3628 35.749 24.1741 34.9377 24.1741 33.9369C24.1741 32.9361 23.3628 32.1247 22.362 32.1247C21.3612 32.1247 20.5499 32.9361 20.5499 33.9369C20.5499 34.9377 21.3612 35.749 22.362 35.749Z" fill="#386B5B"/>
<path d="M13.2773 20.2455L10.1928 44.9798C10.1731 45.0753 10.0445 45.7564 10.5159 46.3586C10.9877 46.9612 11.6805 46.9995 11.7779 47.0032L27.3016 48.8449C27.374 48.8533 27.4461 48.8575 27.5175 48.8575C28.4228 48.8575 29.2052 48.1801 29.3145 47.2588C29.4321 46.2653 28.7221 45.3641 27.7284 45.2461L14.0148 43.6193L16.6493 22.4933L30.3623 24.2081C30.4386 24.2178 30.5144 24.2222 30.5894 24.2222C31.4898 24.2222 32.2704 23.5515 32.3852 22.6348C32.5093 21.6419 31.805 20.7361 30.812 20.6118L15.3005 18.6722C15.1861 18.6573 14.5243 18.5822 13.938 19.0526C13.3794 19.501 13.2922 20.1215 13.2773 20.2455ZM76.7837 53.2846L79.8678 28.5527L79.8681 28.5504C79.9917 27.5569 79.2866 26.6516 78.2937 26.5282L61.8739 24.4858C60.8825 24.3644 59.9757 25.0671 59.8521 26.0603C59.7285 27.0533 60.4336 27.9587 61.4266 28.0821L76.0475 29.9009L73.4129 51.0276L58.8122 49.1228C57.8194 48.9922 56.9104 49.6929 56.7808 50.6851C56.6513 51.6774 57.3509 52.5869 58.3432 52.7165L74.751 54.8571C74.8478 54.8765 75.5443 55.0032 76.1498 54.518C76.7289 54.0542 76.7777 53.3892 76.7837 53.2846ZM49.6874 31.0092C49.5749 30.9221 49.0247 30.513 48.1902 30.1433C48.3226 29.1866 47.6798 28.2873 46.7207 28.1132C45.7456 27.9357 44.8122 28.5763 44.6208 29.5452C43.104 29.7253 41.8069 30.7324 41.2325 32.1784C40.6698 33.5953 40.9057 35.1689 41.8486 36.2848C42.5586 37.1252 43.5178 37.6682 44.7323 38.3557C45.1939 38.6164 45.5308 38.7805 45.479 39.3741C45.444 39.7755 45.2102 40.2022 44.8374 40.3814C44.2496 40.6637 43.2949 40.3663 42.2191 39.5656C41.4162 38.9681 40.2811 39.1346 39.6835 39.9373C39.086 40.7403 39.2526 41.8753 40.0553 42.473C40.7695 43.0046 41.4413 43.3776 42.0658 43.633L42.0641 43.6428C41.8857 44.6277 42.5392 45.5704 43.5241 45.749C43.6335 45.7687 43.7421 45.7784 43.8493 45.7784C44.7085 45.7784 45.4714 45.1644 45.6302 44.289L45.6977 43.9163C45.9407 43.8465 46.1776 43.7569 46.4059 43.6483C47.9837 42.8906 49.0447 41.2302 49.1098 39.4184C49.1695 37.7385 48.3755 36.2614 46.9854 35.4674C46.8297 35.3784 46.6736 35.2898 46.5173 35.2016C45.6537 34.713 44.908 34.2907 44.6166 33.9458C44.3691 33.6526 44.7576 33.1761 45.0508 33.1425C46.0708 33.0262 47.1473 33.6359 47.4785 33.8827C48.2697 34.4865 49.4008 34.3396 50.0112 33.5514C50.6239 32.7598 50.4787 31.6218 49.6874 31.0092Z" fill="#386B5B"/>
</g>
<defs>
<clipPath id="clip0_2442_86">
<rect width="90" height="90" fill="white" transform="translate(0 0.829346)"/>
</clipPath>
</defs>
</svg>
