<svg width="40" height="40" viewBox="0 0 40 40" fill="none" xmlns="http://www.w3.org/2000/svg">
<path d="M8.92253 19.8687L13.9615 21.5799L25.9258 14.2656C26.0995 14.1599 26.2772 14.3955 26.1277 14.5332L17.0701 22.8701L16.7337 27.5374C16.7282 27.6156 16.7466 27.6936 16.7864 27.7611C16.8263 27.8286 16.8857 27.8823 16.9568 27.9153C17.028 27.9482 17.1074 27.9587 17.1847 27.9455C17.2619 27.9322 17.3333 27.8958 17.3894 27.841L20.178 25.0985L25.2764 28.9575C25.8257 29.3738 26.6214 29.0804 26.7693 28.4075L30.3193 12.2891C30.5219 11.3697 29.6205 10.5936 28.7419 10.93L8.89749 18.5291C8.27466 18.7678 8.29188 19.6543 8.92253 19.8687Z" fill="#010D07"/>
</svg>
