<svg width="610" height="696" viewBox="0 0 610 696" fill="none" xmlns="http://www.w3.org/2000/svg">
<g clip-path="url(#clip0_2443_183)">
<path opacity="0.0416667" d="M250.899 321.749C188.764 320.487 121.242 412.351 96.793 447.35C85.4926 461.085 36.9191 496.26 -19.7457 400.706C-90.5768 281.264 -131.487 515.856 -325.041 468.297C-415.172 446.151 -524.554 484.52 -411.508 641.666C-329.118 798.892 -272.212 787.205 -226.332 755.018C-30.436 617.591 -186.377 783.247 -107.29 804.742C-28.2029 826.238 -93.6977 881.088 -121.677 1013.09C-149.656 1145.09 140.133 1247.49 150.701 1021.16C161.269 794.824 214.774 815.018 278.682 829.352C342.59 843.686 412.69 899.582 474.286 814.413C535.882 729.245 383.056 742.473 299.538 679.675C216.021 616.877 295.299 576.81 335.164 510C375.03 443.19 479.735 439.219 415.968 368.681C372.683 320.799 328.567 323.327 250.899 321.749Z" stroke="url(#paint0_linear_2443_183)"/>
<path opacity="0.0833333" d="M259.2 310.384C197.089 308.23 128.325 399.116 103.403 433.761C91.9177 447.332 42.8711 481.807 -12.4902 385.449C-81.6918 265.002 -125.785 498.984 -318.675 448.653C-408.495 425.216 -518.388 462.011 -407.488 620.764C-327.242 779.157 -270.182 768.287 -223.87 736.763C-26.1257 602.159 -184.302 765.561 -105.515 788.19C-26.7274 810.818 -92.9608 864.724 -122.731 996.308C-152.5 1127.89 135.869 1234.44 149.511 1008.29C163.153 782.127 216.378 803.086 280.085 818.336C343.792 833.586 413.126 890.482 475.873 806.206C538.62 721.93 385.629 732.963 302.973 668.973C220.317 604.983 300.131 566.057 340.9 499.825C381.67 433.594 486.418 431.126 423.617 359.68C380.986 311.181 336.84 313.076 259.2 310.384Z" stroke="url(#paint1_linear_2443_183)"/>
<path opacity="0.125" d="M267.535 299.017C205.458 295.973 135.467 385.863 110.077 420.146C98.4079 433.552 48.8978 467.319 -5.14906 370.176C-72.7076 248.748 -119.975 482.074 -312.162 428.98C-401.656 404.256 -512.037 439.471 -403.305 599.8C-325.219 759.329 -268.017 749.279 -221.28 718.422C-21.7273 586.67 -182.108 747.786 -103.636 771.543C-25.1634 795.3 -92.1227 848.249 -123.677 979.394C-155.232 1110.54 131.663 1221.22 148.375 995.276C165.088 769.335 218.024 791.057 281.517 807.22C345.011 823.382 413.565 881.267 477.451 797.9C541.337 714.532 388.21 723.37 306.432 658.2C224.653 593.029 304.988 555.252 346.653 489.612C388.318 423.973 493.09 423.008 431.265 350.668C389.298 301.562 345.13 302.823 267.535 299.017Z" stroke="url(#paint2_linear_2443_183)"/>
<path opacity="0.166667" d="M275.951 287.656C213.923 283.72 142.717 372.598 116.864 406.513C105.014 419.75 55.0495 452.804 2.32756 354.895C-63.5749 232.509 -114.008 465.134 -305.454 409.287C-394.603 383.282 -505.453 416.909 -398.909 578.782C-322.997 739.417 -265.665 730.189 -218.514 700.005C-17.19 571.129 -179.744 729.928 -101.602 754.809C-23.46 779.689 -91.1322 831.673 -124.465 962.352C-157.798 1093.03 127.565 1207.82 147.345 982.137C167.126 756.458 219.761 778.937 283.029 796.009C346.297 813.081 414.058 871.944 479.07 789.502C544.082 707.059 390.851 713.698 309.965 647.361C229.08 581.024 309.92 544.403 352.473 479.368C395.026 414.332 499.801 414.871 438.964 341.65C397.668 291.947 353.487 292.574 275.951 287.656Z" stroke="url(#paint3_linear_2443_183)"/>
<path opacity="0.208333" d="M284.399 276.331C222.43 271.506 150.023 359.353 123.712 392.894C111.683 405.96 61.2751 438.293 9.88835 339.637C-54.345 216.317 -107.933 448.196 -298.603 389.608C-387.39 362.325 -498.685 394.359 -394.351 557.745C-320.629 719.453 -263.176 711.049 -215.62 681.545C-12.5649 555.57 -177.26 712.021 -99.4637 738.021C-21.6675 764.02 -90.0392 815.028 -125.144 945.215C-160.249 1075.4 123.527 1194.27 146.371 968.899C169.215 743.526 221.54 766.758 284.57 784.736C347.599 802.715 414.554 862.545 480.68 781.043C546.806 699.542 393.499 703.981 313.523 636.49C233.547 568.998 314.877 533.541 358.309 469.122C401.741 404.704 506.498 406.747 446.662 332.66C406.045 282.369 361.861 282.362 284.399 276.331Z" stroke="url(#paint4_linear_2443_183)"/>
<path opacity="0.25" d="M292.931 264.99C231.034 259.276 157.441 346.076 130.677 379.236C118.472 392.128 67.629 423.734 17.5875 324.351C-44.9643 200.121 -101.697 431.209 -291.552 369.89C-379.96 341.336 -491.679 371.769 -389.575 536.637C-318.057 699.387 -260.496 691.808 -212.543 662.989C-7.79691 539.941 -174.601 694.013 -97.1658 721.126C-19.7304 748.24 -88.7884 798.261 -125.658 927.932C-162.528 1057.6 119.604 1180.53 145.508 955.51C171.412 730.487 223.416 754.467 286.196 773.348C348.975 792.229 415.11 853.014 482.337 772.47C549.564 691.925 396.211 694.164 317.16 625.531C238.108 556.899 319.912 522.612 364.215 458.823C408.518 395.034 513.237 398.58 454.414 323.642C414.484 272.773 370.304 272.132 292.931 264.99Z" stroke="url(#paint5_linear_2443_183)"/>
<path opacity="0.291667" d="M301.496 253.674C239.681 247.073 164.917 332.807 137.704 365.581C125.326 378.296 74.0586 409.17 25.3721 309.078C-35.486 183.963 -95.3526 414.214 -284.356 350.176C-372.367 320.356 -484.489 349.184 -384.635 515.5C-315.334 679.261 -257.676 672.509 -209.336 644.381C-2.93863 524.283 -171.82 675.946 -94.7602 704.168C-17.7006 732.39 -87.4314 781.416 -126.059 910.545C-164.687 1039.67 115.748 1166.64 144.706 942.011C173.664 717.381 225.338 742.106 287.854 761.886C350.371 781.666 415.674 843.394 483.989 763.822C552.303 684.25 398.935 684.288 320.824 614.528C242.712 544.768 324.974 511.658 370.139 448.511C415.304 385.364 519.965 390.412 462.165 314.637C422.93 263.201 378.763 261.926 301.496 253.674Z" stroke="url(#paint6_linear_2443_183)"/>
<path opacity="0.333333" d="M310.142 242.369C248.423 234.881 172.501 319.534 144.846 351.914C132.296 364.45 80.6146 394.586 33.2926 293.805C-25.8599 167.829 -88.8486 397.198 -276.964 330.454C-364.561 299.375 -477.064 326.59 -379.478 494.324C-312.41 659.063 -254.665 653.138 -205.948 625.707C2.06114 508.582 -168.864 657.808 -92.1952 687.133C-15.5266 716.457 -85.9166 764.478 -126.295 893.04C-166.673 1021.6 112.01 1152.58 144.017 928.389C176.024 704.197 227.356 729.66 289.598 750.336C351.84 771.011 416.298 833.67 485.687 755.086C555.075 676.502 401.722 674.339 324.566 603.465C247.41 532.59 330.113 500.665 376.132 438.172C422.15 375.679 526.733 382.229 469.968 305.632C431.435 253.637 387.29 251.728 310.142 242.369Z" stroke="url(#paint7_linear_2443_183)"/>
<path opacity="0.375" d="M318.845 231.062C257.234 222.69 180.17 306.245 152.078 338.225C139.358 350.58 87.2723 379.971 41.324 278.52C-16.1114 151.708 -82.2099 380.151 -269.4 310.714C-356.567 278.38 -469.428 303.979 -374.131 473.096C-309.306 638.782 -251.487 633.687 -202.402 606.957C7.17784 492.829 -165.758 639.587 -89.4949 670.009C-13.2321 700.431 -84.2676 747.437 -126.389 875.407C-168.51 1003.38 108.367 1138.34 143.417 914.631C178.466 690.92 229.448 717.118 291.402 738.685C353.357 760.251 416.958 823.829 487.408 746.248C557.857 668.668 404.548 664.305 328.362 592.33C252.176 520.355 335.305 489.62 382.169 427.793C429.032 365.967 533.515 374.017 477.796 296.613C439.974 244.07 395.858 241.528 318.845 231.062Z" stroke="url(#paint8_linear_2443_183)"/>
<path opacity="0.416667" d="M327.58 219.772C266.089 210.516 187.897 292.957 159.373 324.531C146.487 336.702 94.0069 365.342 49.4413 263.243C-6.26579 135.618 -75.4612 363.09 -261.69 290.974C-348.409 257.393 -461.607 281.369 -368.616 451.838C-306.049 618.438 -248.166 614.172 -198.723 588.15C12.3871 477.04 -162.525 621.302 -86.6832 652.816C-10.8411 684.33 -82.5082 730.311 -126.364 857.665C-170.219 985.018 104.798 1123.94 142.883 900.757C180.968 677.57 231.588 704.498 293.244 726.951C354.9 749.404 417.631 813.889 489.128 737.326C560.624 660.764 407.389 654.202 332.189 581.141C256.988 508.08 340.526 478.54 388.225 417.392C435.923 356.244 540.287 365.793 485.625 287.596C448.52 234.516 404.444 231.341 327.58 219.772Z" stroke="url(#paint9_linear_2443_183)"/>
<path opacity="0.458333" d="M336.396 208.508C275.037 198.37 195.733 279.682 166.783 310.843C153.733 322.828 100.869 350.712 57.6945 247.983C3.72659 119.572 -68.5523 346.029 -253.783 271.248C-340.037 236.425 -453.55 258.775 -362.884 430.561C-302.586 598.042 -244.651 594.608 -194.859 569.298C17.7395 461.228 -159.116 602.966 -83.709 635.565C-8.30241 668.164 -80.5872 713.113 -126.168 839.824C-171.749 966.536 101.353 1109.39 142.466 886.776C183.579 664.158 233.829 691.809 295.174 715.145C356.519 738.481 418.368 803.859 490.897 728.33C563.427 652.802 410.296 644.041 336.096 569.908C261.895 495.775 345.826 467.437 394.351 406.979C442.875 346.522 547.099 357.567 493.505 278.594C457.125 224.986 413.095 221.179 336.396 208.508Z" stroke="url(#paint10_linear_2443_183)"/>
<path opacity="0.5" d="M345.244 197.259C284.029 186.242 203.628 266.408 174.257 297.15C161.045 308.947 107.808 336.07 66.0332 232.731C13.8151 103.558 -61.5332 328.956 -245.73 251.524C-331.503 215.467 -445.308 236.185 -356.985 409.256C-298.968 577.586 -240.992 574.984 -190.861 550.39C23.1853 445.382 -155.578 584.569 -80.6217 618.246C-5.66527 651.924 -78.5536 695.831 -125.852 821.877C-173.15 947.922 97.9853 1094.68 142.119 872.679C186.252 650.672 236.122 679.041 297.144 703.255C358.165 727.469 419.12 793.729 492.669 719.248C566.217 644.768 413.221 633.81 340.034 558.62C266.847 483.429 351.156 456.298 400.497 396.543C449.838 336.788 553.901 349.327 501.385 269.593C465.737 215.469 421.764 211.03 345.244 197.259Z" stroke="url(#paint11_linear_2443_183)"/>
<path opacity="0.541667" d="M354.174 186.024C293.114 174.13 211.632 253.134 181.846 283.452C168.476 295.058 114.875 321.415 74.5081 217.486C24.0499 87.5763 -54.353 311.871 -237.48 231.803C-322.755 194.519 -436.83 213.602 -350.867 387.924C-295.142 557.07 -237.136 555.3 -186.676 531.428C28.7755 429.502 -151.861 566.109 -77.3696 600.859C-2.87803 635.61 -76.3558 678.466 -125.362 803.821C-174.367 929.175 94.7476 1079.81 141.893 858.463C189.038 637.112 238.517 666.194 299.204 691.281C359.891 716.368 419.94 783.496 494.493 710.078C569.046 636.66 416.213 623.508 344.055 547.275C271.897 471.041 356.566 445.123 406.714 386.082C456.862 327.04 560.745 341.072 509.317 260.592C474.407 205.961 430.499 200.892 354.174 186.024Z" stroke="url(#paint12_linear_2443_183)"/>
<path opacity="0.583333" d="M363.132 174.807C302.24 162.038 219.692 239.865 189.498 269.752C175.971 281.165 122.017 306.75 83.0663 202.253C34.3778 71.6315 -47.0645 294.779 -229.086 212.091C-313.846 173.587 -428.17 191.032 -344.583 366.57C-291.161 536.499 -233.137 535.561 -182.358 512.416C34.458 413.591 -148.017 547.594 -74.0047 583.409C0.00753367 619.225 -74.0453 661.023 -124.749 785.662C-175.453 910.301 91.5892 1064.79 141.737 844.134C191.884 623.481 240.963 653.27 301.304 679.226C361.644 705.181 420.775 773.164 496.318 700.823C571.861 628.482 419.222 613.139 348.107 535.877C276.991 458.616 362.004 433.915 412.949 375.599C463.894 317.283 567.577 332.804 517.247 251.594C483.083 196.468 439.248 190.769 363.132 174.807Z" stroke="url(#paint13_linear_2443_183)"/>
<path opacity="0.625" d="M372.173 163.595C311.46 149.953 227.863 226.588 197.266 256.039C183.585 267.257 129.289 292.065 91.7615 187.019C44.8521 55.7116 -39.6136 277.669 -220.494 192.377C-304.722 152.66 -419.272 168.463 -338.078 345.183C-286.97 515.862 -228.939 515.757 -177.85 493.343C40.2869 397.639 -143.991 529.01 -70.4722 565.884C3.0463 602.759 -71.5671 643.49 -123.959 767.389C-176.351 891.288 88.5661 1049.59 141.706 829.68C194.847 609.767 243.516 640.258 303.498 667.077C363.48 693.896 421.681 762.721 498.2 691.471C574.719 620.221 422.303 602.689 352.244 524.414C282.185 446.14 367.525 422.661 419.257 365.082C470.99 307.503 574.451 324.51 525.23 242.586C491.818 186.974 448.064 180.647 372.173 163.595Z" stroke="url(#paint14_linear_2443_183)"/>
<path opacity="0.666667" d="M381.244 152.414C320.723 137.902 236.093 213.33 205.098 242.339C191.266 253.359 136.639 277.386 100.542 171.812C55.421 39.844 -32.0517 260.568 -211.756 172.688C-295.436 131.767 -410.19 145.924 -331.404 323.792C-282.62 495.188 -224.593 495.916 -173.205 474.237C46.2111 381.673 -139.833 510.386 -66.8227 548.312C6.18772 586.238 -68.9717 625.894 -123.042 749.03C-177.112 872.165 85.629 1034.25 141.752 815.126C197.874 595.998 246.125 627.184 305.736 654.861C365.348 682.538 422.609 752.192 500.088 682.047C577.567 611.902 425.404 592.184 356.415 512.912C287.427 433.64 373.077 411.388 425.587 354.557C478.097 297.726 581.317 316.216 533.213 233.593C500.56 177.508 456.896 170.554 381.244 152.414Z" stroke="url(#paint15_linear_2443_183)"/>
<path opacity="0.708333" d="M390.396 141.252C330.078 125.873 244.431 200.079 213.046 228.641C199.065 239.461 144.117 262.702 109.458 156.62C66.1338 24.0173 -24.3289 243.464 -202.821 153.015C-285.938 110.896 -400.873 123.405 -324.511 302.387C-278.06 474.466 -220.049 476.027 -168.371 455.087C52.2812 365.681 -135.493 491.712 -63.0054 530.682C9.48269 569.651 -66.2082 608.226 -121.946 730.573C-177.683 852.92 82.8301 1018.76 141.924 800.463C201.018 582.161 248.84 614.037 308.07 642.567C367.3 671.097 423.609 741.565 502.033 672.539C580.458 603.513 428.577 581.613 360.672 501.359C292.767 421.104 378.712 400.084 431.988 344.012C485.265 287.939 588.224 307.909 541.247 224.604C509.359 168.056 465.794 160.475 390.396 141.252Z" stroke="url(#paint16_linear_2443_183)"/>
<path opacity="0.75" d="M399.602 130.085C339.498 113.842 252.852 186.812 221.082 214.921C206.956 225.54 151.697 247.989 118.482 141.42C76.964 8.20893 -16.4711 226.336 -193.717 133.334C-276.254 90.0272 -391.347 100.886 -317.424 280.945C-273.316 453.675 -215.331 456.068 -163.374 435.872C58.4712 349.64 -130.997 472.964 -59.0456 512.971C12.906 552.977 -63.3015 590.461 -120.696 711.997C-178.09 833.532 80.1451 1003.1 142.199 785.666C204.252 568.234 251.637 600.793 310.474 630.17C369.31 659.547 424.656 730.816 504.011 662.922C583.365 595.028 431.797 570.951 364.989 489.73C298.181 408.509 384.403 388.724 438.436 333.422C492.469 278.12 595.146 299.565 549.306 215.594C518.19 158.594 474.732 150.389 399.602 130.085Z" stroke="url(#paint17_linear_2443_183)"/>
<path opacity="0.791667" d="M408.838 118.976C348.961 101.872 261.332 173.592 229.183 201.242C214.914 211.657 159.355 233.312 127.592 126.276C87.8873 -7.51788 -8.50186 209.247 -184.468 113.711C-266.408 69.2237 -381.637 78.4295 -310.168 259.532C-268.41 432.878 -210.463 436.103 -158.237 416.654C64.7581 333.615 -126.367 454.208 -54.9661 495.243C16.435 536.277 -60.2743 572.665 -119.314 693.365C-178.354 814.065 77.5527 987.32 142.554 770.8C207.555 554.279 254.493 587.515 312.925 617.733C371.357 647.952 425.729 720.008 505.998 653.26C586.268 586.511 435.041 560.262 369.343 478.09C303.645 395.918 390.127 377.372 444.906 322.851C499.685 268.329 602.061 291.246 557.366 206.625C527.027 149.184 483.685 140.356 408.838 118.976Z" stroke="url(#paint18_linear_2443_183)"/>
<path opacity="0.833333" d="M418.129 107.864C358.49 89.9021 269.895 160.357 237.373 187.543C222.964 197.752 167.117 218.608 136.811 111.127C98.9275 -23.224 -0.396977 192.137 -175.048 94.0849C-256.376 48.426 -371.719 55.9774 -302.717 238.088C-263.318 412.016 -205.421 416.072 -152.935 397.375C71.1663 317.544 -121.579 435.383 -50.7419 477.438C20.0948 519.493 -57.1013 554.776 -117.775 674.617C-178.449 794.458 75.0792 971.369 143.016 755.803C210.952 540.236 257.434 574.142 315.449 605.196C373.465 636.25 426.853 709.08 508.021 643.489C589.189 577.899 438.335 549.482 373.759 466.375C309.183 383.269 395.909 365.966 451.423 312.236C506.938 258.506 608.993 282.889 565.452 197.635C535.896 139.764 492.678 130.315 418.129 107.864Z" stroke="url(#paint19_linear_2443_183)"/>
<path opacity="0.875" d="M427.497 96.7881C368.107 77.9725 278.564 147.149 245.676 173.866C231.13 183.868 175.005 203.919 146.161 96.0142C110.107 -38.8672 7.86666 175.047 -165.435 74.4988C-246.135 27.6773 -361.569 33.5727 -295.048 216.656C-258.015 391.132 -200.179 396.019 -147.444 378.077C77.7194 301.469 -116.608 416.53 -46.3491 459.598C23.9094 502.666 -53.7586 536.837 -116.054 655.796C-178.35 774.755 72.7497 955.287 143.608 740.716C214.466 526.145 260.483 560.715 318.071 592.598C375.659 624.482 428.053 698.071 510.104 633.652C592.155 569.232 441.701 538.653 378.261 454.628C314.82 370.603 401.773 354.546 458.011 301.618C514.25 248.69 615.964 274.535 573.585 188.665C544.818 130.375 501.733 120.307 427.497 96.7881Z" stroke="url(#paint20_linear_2443_183)"/>
<path opacity="0.916667" d="M436.895 85.7311C377.767 66.0652 287.293 133.95 254.045 160.192C239.365 169.984 182.972 189.229 155.598 80.9202C121.379 -54.4654 16.2429 157.961 -155.676 54.9354C-235.732 6.96043 -351.235 11.1987 -287.207 195.219C-252.549 370.209 -194.784 375.925 -141.811 358.742C84.3713 285.373 -111.5 397.634 -41.8332 441.706C27.8334 485.778 -50.2912 518.832 -114.197 636.885C-178.103 754.938 70.5202 939.056 144.286 725.523C218.053 511.99 263.595 547.216 320.744 579.923C377.894 612.629 429.283 686.963 512.201 623.728C595.119 560.492 445.095 527.757 382.803 442.83C320.51 357.902 407.672 343.095 464.624 290.979C521.577 238.863 622.929 266.166 581.721 179.695C553.749 120.999 510.805 110.314 436.895 85.7311Z" stroke="url(#paint21_linear_2443_183)"/>
<path opacity="0.958333" d="M446.372 74.7025C387.517 54.19 296.13 120.77 262.529 146.532C247.717 156.113 191.069 174.546 165.168 65.8554C132.792 -70.008 24.78 140.889 -145.722 35.4064C-225.119 -13.7127 -340.668 -11.1323 -279.147 173.789C-246.869 349.26 -189.188 355.804 -135.986 339.382C91.171 269.266 -106.206 378.706 -37.145 423.773C31.9161 468.84 -46.6499 500.77 -112.153 617.894C-177.656 735.019 68.4411 922.686 145.101 710.232C221.761 497.779 266.82 533.655 323.52 567.179C380.219 600.703 430.593 675.767 514.362 613.727C598.132 551.688 448.567 516.803 387.434 430.99C326.301 345.177 413.656 331.622 471.311 280.328C528.966 229.035 629.937 257.789 589.908 170.736C562.736 111.644 519.941 100.343 446.372 74.7025Z" stroke="url(#paint22_linear_2443_183)"/>
<path d="M455.877 63.6834C397.307 42.3283 305.024 107.59 271.076 132.868C256.135 142.235 199.242 159.854 174.821 50.8019C144.294 -85.5129 33.4271 123.814 -135.626 15.8946C-214.347 -34.3591 -329.92 -33.437 -270.917 152.349C-241.026 328.266 -183.439 335.637 -130.02 319.98C98.0676 253.131 -100.777 359.728 -32.3348 405.781C36.1073 451.835 -42.8848 482.634 -109.973 598.807C-177.061 714.981 66.4633 906.161 146.002 694.828C225.54 483.495 270.108 520.015 326.346 554.349C382.585 588.683 431.934 664.462 516.538 603.631C601.142 542.8 452.066 505.772 392.105 419.09C332.144 332.409 419.674 320.108 478.02 269.647C536.366 219.186 636.937 249.386 598.095 161.767C571.728 102.291 529.091 90.3772 455.877 63.6834Z" stroke="url(#paint23_linear_2443_183)"/>
</g>
<defs>
<linearGradient id="paint0_linear_2443_183" x1="421.101" y1="485.957" x2="238.819" y2="1447.58" gradientUnits="userSpaceOnUse">
<stop stop-color="#53D9AF"/>
<stop offset="1" stop-color="#386B5B"/>
</linearGradient>
<linearGradient id="paint1_linear_2443_183" x1="427.155" y1="477.018" x2="231.149" y2="1435.79" gradientUnits="userSpaceOnUse">
<stop stop-color="#53D9AF"/>
<stop offset="1" stop-color="#386B5B"/>
</linearGradient>
<linearGradient id="paint2_linear_2443_183" x1="433.209" y1="468.045" x2="223.529" y2="1423.77" gradientUnits="userSpaceOnUse">
<stop stop-color="#53D9AF"/>
<stop offset="1" stop-color="#386B5B"/>
</linearGradient>
<linearGradient id="paint3_linear_2443_183" x1="439.314" y1="459.044" x2="216.013" y2="1411.51" gradientUnits="userSpaceOnUse">
<stop stop-color="#53D9AF"/>
<stop offset="1" stop-color="#386B5B"/>
</linearGradient>
<linearGradient id="paint4_linear_2443_183" x1="445.417" y1="450.047" x2="208.553" y2="1399.05" gradientUnits="userSpaceOnUse">
<stop stop-color="#53D9AF"/>
<stop offset="1" stop-color="#386B5B"/>
</linearGradient>
<linearGradient id="paint5_linear_2443_183" x1="451.574" y1="441" x2="201.207" y2="1386.35" gradientUnits="userSpaceOnUse">
<stop stop-color="#53D9AF"/>
<stop offset="1" stop-color="#386B5B"/>
</linearGradient>
<linearGradient id="paint6_linear_2443_183" x1="457.732" y1="431.943" x2="193.926" y2="1373.43" gradientUnits="userSpaceOnUse">
<stop stop-color="#53D9AF"/>
<stop offset="1" stop-color="#386B5B"/>
</linearGradient>
<linearGradient id="paint7_linear_2443_183" x1="463.941" y1="422.863" x2="186.763" y2="1360.29" gradientUnits="userSpaceOnUse">
<stop stop-color="#53D9AF"/>
<stop offset="1" stop-color="#386B5B"/>
</linearGradient>
<linearGradient id="paint8_linear_2443_183" x1="470.177" y1="413.745" x2="179.698" y2="1346.92" gradientUnits="userSpaceOnUse">
<stop stop-color="#53D9AF"/>
<stop offset="1" stop-color="#386B5B"/>
</linearGradient>
<linearGradient id="paint9_linear_2443_183" x1="476.416" y1="404.609" x2="172.708" y2="1333.34" gradientUnits="userSpaceOnUse">
<stop stop-color="#53D9AF"/>
<stop offset="1" stop-color="#386B5B"/>
</linearGradient>
<linearGradient id="paint10_linear_2443_183" x1="482.707" y1="395.463" x2="165.847" y2="1319.55" gradientUnits="userSpaceOnUse">
<stop stop-color="#53D9AF"/>
<stop offset="1" stop-color="#386B5B"/>
</linearGradient>
<linearGradient id="paint11_linear_2443_183" x1="489.001" y1="386.295" x2="159.069" y2="1305.55" gradientUnits="userSpaceOnUse">
<stop stop-color="#53D9AF"/>
<stop offset="1" stop-color="#386B5B"/>
</linearGradient>
<linearGradient id="paint12_linear_2443_183" x1="495.348" y1="377.105" x2="152.428" y2="1291.33" gradientUnits="userSpaceOnUse">
<stop stop-color="#53D9AF"/>
<stop offset="1" stop-color="#386B5B"/>
</linearGradient>
<linearGradient id="paint13_linear_2443_183" x1="501.697" y1="367.895" x2="145.873" y2="1276.91" gradientUnits="userSpaceOnUse">
<stop stop-color="#53D9AF"/>
<stop offset="1" stop-color="#386B5B"/>
</linearGradient>
<linearGradient id="paint14_linear_2443_183" x1="508.101" y1="358.652" x2="139.461" y2="1262.27" gradientUnits="userSpaceOnUse">
<stop stop-color="#53D9AF"/>
<stop offset="1" stop-color="#386B5B"/>
</linearGradient>
<linearGradient id="paint15_linear_2443_183" x1="514.509" y1="349.403" x2="133.146" y2="1247.43" gradientUnits="userSpaceOnUse">
<stop stop-color="#53D9AF"/>
<stop offset="1" stop-color="#386B5B"/>
</linearGradient>
<linearGradient id="paint16_linear_2443_183" x1="520.972" y1="340.134" x2="126.979" y2="1232.4" gradientUnits="userSpaceOnUse">
<stop stop-color="#53D9AF"/>
<stop offset="1" stop-color="#386B5B"/>
</linearGradient>
<linearGradient id="paint17_linear_2443_183" x1="527.464" y1="330.822" x2="120.938" y2="1217.14" gradientUnits="userSpaceOnUse">
<stop stop-color="#53D9AF"/>
<stop offset="1" stop-color="#386B5B"/>
</linearGradient>
<linearGradient id="paint18_linear_2443_183" x1="533.96" y1="321.528" x2="115.002" y2="1201.72" gradientUnits="userSpaceOnUse">
<stop stop-color="#53D9AF"/>
<stop offset="1" stop-color="#386B5B"/>
</linearGradient>
<linearGradient id="paint19_linear_2443_183" x1="540.487" y1="312.191" x2="109.197" y2="1186.08" gradientUnits="userSpaceOnUse">
<stop stop-color="#53D9AF"/>
<stop offset="1" stop-color="#386B5B"/>
</linearGradient>
<linearGradient id="paint20_linear_2443_183" x1="547.067" y1="302.852" x2="103.551" y2="1170.26" gradientUnits="userSpaceOnUse">
<stop stop-color="#53D9AF"/>
<stop offset="1" stop-color="#386B5B"/>
</linearGradient>
<linearGradient id="paint21_linear_2443_183" x1="553.654" y1="293.49" x2="98.0203" y2="1154.25" gradientUnits="userSpaceOnUse">
<stop stop-color="#53D9AF"/>
<stop offset="1" stop-color="#386B5B"/>
</linearGradient>
<linearGradient id="paint22_linear_2443_183" x1="560.298" y1="284.117" x2="92.6553" y2="1138.06" gradientUnits="userSpaceOnUse">
<stop stop-color="#53D9AF"/>
<stop offset="1" stop-color="#386B5B"/>
</linearGradient>
<linearGradient id="paint23_linear_2443_183" x1="566.947" y1="274.712" x2="87.4078" y2="1121.67" gradientUnits="userSpaceOnUse">
<stop stop-color="#53D9AF"/>
<stop offset="1" stop-color="#386B5B"/>
</linearGradient>
<clipPath id="clip0_2443_183">
<rect width="610" height="696" fill="white"/>
</clipPath>
</defs>
</svg>
